<?xml version="1.0" encoding="UTF-8" standalone="no"?>
<!-- Created with Inkscape (http://www.inkscape.org/) -->

<svg
   width="800px"
   height="800px"
   viewBox="0 0 800 800"
   version="1.1"
   id="SVGRoot"
   sodipodi:docname="cat-rachana.svg"
   inkscape:version="1.1.2 (b8e25be833, 2022-02-05)"
   xmlns:inkscape="http://www.inkscape.org/namespaces/inkscape"
   xmlns:sodipodi="http://sodipodi.sourceforge.net/DTD/sodipodi-0.dtd"
   xmlns="http://www.w3.org/2000/svg"
   xmlns:svg="http://www.w3.org/2000/svg">
  <sodipodi:namedview
     id="namedview829"
     pagecolor="#ffffff"
     bordercolor="#eeeeee"
     borderopacity="1"
     inkscape:pageshadow="0"
     inkscape:pageopacity="0"
     inkscape:pagecheckerboard="0"
     inkscape:document-units="px"
     showgrid="false"
     inkscape:zoom="0.66368548"
     inkscape:cx="216.21687"
     inkscape:cy="458.80166"
     inkscape:window-width="1920"
     inkscape:window-height="1111"
     inkscape:window-x="-9"
     inkscape:window-y="-9"
     inkscape:window-maximized="1"
     inkscape:current-layer="layer2" />
  <defs
     id="defs824" />
  <g
     inkscape:label="background"
     inkscape:groupmode="layer"
     id="layer1"
     style="display:inline">
    <rect
       style="fill:#284d64;fill-opacity:1;stroke-width:12"
       id="rect940"
       width="800"
       height="800"
       x="0"
       y="0" />
  </g>
  <g
     inkscape:groupmode="layer"
     id="layer5"
     inkscape:label="sky">
    <circle
       style="fill:#ffffff;fill-opacity:1;stroke:none;stroke-width:8.82888"
       id="path55152"
       cx="132.3414"
       cy="110.98933"
       r="1.7657762" />
    <circle
       style="fill:#ffffff;fill-opacity:1;stroke:none;stroke-width:8.82888"
       id="path55152-4"
       cx="135.39067"
       cy="124.63022"
       r="1.7657762" />
    <circle
       style="fill:#ffffff;fill-opacity:1;stroke:none;stroke-width:8.82888"
       id="path55152-1"
       cx="120.31416"
       cy="142.36729"
       r="1.7657762" />
    <circle
       style="fill:#ffffff;fill-opacity:1;stroke:none;stroke-width:8.82888"
       id="path55152-47"
       cx="63.555504"
       cy="107.78"
       r="1.7657762" />
    <circle
       style="fill:#ffffff;fill-opacity:1;stroke:none;stroke-width:8.82888"
       id="path55152-6"
       cx="295.02435"
       cy="146.80156"
       r="1.7657762" />
    <circle
       style="fill:#ffffff;fill-opacity:1;stroke:none;stroke-width:8.82888"
       id="path55152-3"
       cx="174.41225"
       cy="242.58179"
       r="1.7657762" />
    <circle
       style="fill:#ffffff;fill-opacity:1;stroke:none;stroke-width:8.82888"
       id="path55152-7"
       cx="191.26247"
       cy="225.73157"
       r="1.7657762" />
    <circle
       style="fill:#ffffff;fill-opacity:1;stroke:none;stroke-width:8.82888"
       id="path55152-13"
       cx="139.82494"
       cy="228.39212"
       r="1.7657762" />
    <circle
       style="fill:#ffffff;fill-opacity:1;stroke:none;stroke-width:8.82888"
       id="path55152-66"
       cx="256.00281"
       cy="95.364029"
       r="1.7657762" />
    <circle
       style="fill:#ffffff;fill-opacity:1;stroke:none;stroke-width:8.82888"
       id="path55152-72"
       cx="230.28403"
       cy="140.59358"
       r="1.7657762" />
    <circle
       style="fill:#ffffff;fill-opacity:1;stroke:none;stroke-width:8.82888"
       id="path55152-19"
       cx="465.30029"
       cy="91.81662"
       r="1.7657762" />
    <circle
       style="fill:#ffffff;fill-opacity:1;stroke:none;stroke-width:8.82888"
       id="path55152-8"
       cx="480.37683"
       cy="117.53539"
       r="1.7657762" />
    <circle
       style="fill:#ffffff;fill-opacity:1;stroke:none;stroke-width:8.82888"
       id="path55152-9"
       cx="467.07404"
       cy="107.78"
       r="1.7657762" />
    <circle
       style="fill:#ffffff;fill-opacity:1;stroke:none;stroke-width:8.82888"
       id="path55152-30"
       cx="464.41345"
       cy="129.95134"
       r="1.7657762" />
    <circle
       style="fill:#ffffff;fill-opacity:1;stroke:none;stroke-width:8.82888"
       id="path55152-36"
       cx="416.52338"
       cy="163.65178"
       r="1.7657762" />
    <circle
       style="fill:#ffffff;fill-opacity:1;stroke:none;stroke-width:8.82888"
       id="path55152-16"
       cx="70.65033"
       cy="202.67337"
       r="1.7657762" />
    <circle
       style="fill:#ffffff;fill-opacity:1;stroke:none;stroke-width:8.82888"
       id="path55152-138"
       cx="322.51685"
       cy="80.287521"
       r="1.7657762" />
    <circle
       style="fill:#ffffff;fill-opacity:1;stroke:none;stroke-width:8.82888"
       id="path55152-0"
       cx="390.80463"
       cy="88.269211"
       r="1.7657762" />
    <circle
       style="fill:#ffffff;fill-opacity:1;stroke:none;stroke-width:8.82888"
       id="path55152-99"
       cx="462.63974"
       cy="159.21751"
       r="1.7657762" />
    <circle
       style="fill:#ffffff;fill-opacity:1;stroke:none;stroke-width:8.82888"
       id="path55152-99-2"
       cx="578.52551"
       cy="72.448868"
       r="1.7657762" />
    <circle
       style="fill:#ffffff;fill-opacity:1;stroke:none;stroke-width:8.82888"
       id="path55152-99-4"
       cx="620.07709"
       cy="54.336655"
       r="1.7657762" />
    <circle
       style="fill:#ffffff;fill-opacity:1;stroke:none;stroke-width:8.82888"
       id="path55152-99-28"
       cx="590.24518"
       cy="36.224434"
       r="1.7657762" />
    <circle
       style="fill:#ffffff;fill-opacity:1;stroke:none;stroke-width:8.82888"
       id="path55152-99-8"
       cx="642.45099"
       cy="135.30891"
       r="1.7657762" />
    <circle
       style="fill:#ffffff;fill-opacity:1;stroke:none;stroke-width:8.82888"
       id="path55152-99-9"
       cx="576.39465"
       cy="198.16896"
       r="1.7657762" />
    <circle
       style="fill:#ffffff;fill-opacity:1;stroke:none;stroke-width:8.82888"
       id="path55152-99-80"
       cx="551.88989"
       cy="112.935"
       r="1.7657762" />
    <circle
       style="fill:#ffffff;fill-opacity:1;stroke:none;stroke-width:8.82888"
       id="path55152-99-92"
       cx="132.11264"
       cy="36.224434"
       r="1.7657762" />
    <circle
       style="fill:#ffffff;fill-opacity:1;stroke:none;stroke-width:8.82888"
       id="path55152-99-0"
       cx="89.495659"
       cy="278.07581"
       r="1.7657762" />
    <circle
       style="fill:#ffffff;fill-opacity:1;stroke:none;stroke-width:8.82888"
       id="path55152-99-81"
       cx="18.112221"
       cy="150.22485"
       r="1.7657762" />
    <circle
       style="fill:#ffffff;fill-opacity:1;stroke:none;stroke-width:8.82888"
       id="path55152-99-926"
       cx="25.57019"
       cy="40.486134"
       r="1.7657762" />
    <circle
       style="fill:#ffffff;fill-opacity:1;stroke:none;stroke-width:8.82888"
       id="path55152-99-02"
       cx="225.87"
       cy="338.80499"
       r="1.7657762" />
    <circle
       style="fill:#ffffff;fill-opacity:1;stroke:none;stroke-width:8.82888"
       id="path55152-99-6"
       cx="466.65594"
       cy="30.897314"
       r="1.7657762" />
    <circle
       style="fill:#ffffff;fill-opacity:1;stroke:none;stroke-width:8.82888"
       id="path55152-99-03"
       cx="734.07751"
       cy="42.616985"
       r="1.7657762" />
    <circle
       style="fill:#ffffff;fill-opacity:1;stroke:none;stroke-width:8.82888"
       id="path55152-99-45"
       cx="708.50732"
       cy="24.504765"
       r="1.7657762" />
    <circle
       style="fill:#ffffff;fill-opacity:1;stroke:none;stroke-width:8.82888"
       id="path55152-99-23"
       cx="592.37604"
       cy="99.08448"
       r="1.7657762" />
    <circle
       style="fill:#ffffff;fill-opacity:1;stroke:none;stroke-width:8.82888"
       id="path55152-99-64"
       cx="496.48782"
       cy="106.54245"
       r="1.7657762" />
    <circle
       style="fill:#ffffff;fill-opacity:1;stroke:none;stroke-width:8.82888"
       id="path55152-99-00"
       cx="499.68408"
       cy="152.3557"
       r="1.7657762" />
    <circle
       style="fill:#ffffff;fill-opacity:1;stroke:none;stroke-width:8.82888"
       id="path55152-99-1"
       cx="701.04932"
       cy="225.87"
       r="1.7657762" />
    <circle
       style="fill:#ffffff;fill-opacity:1;stroke:none;stroke-width:8.82888"
       id="path55152-99-5"
       cx="653.10522"
       cy="202.43066"
       r="1.7657762" />
    <circle
       style="fill:#ffffff;fill-opacity:1;stroke:none;stroke-width:8.82888"
       id="path55152-99-61"
       cx="394.20706"
       cy="216.28117"
       r="1.7657762" />
    <circle
       style="fill:#ffffff;fill-opacity:1;stroke:none;stroke-width:8.82888"
       id="path55152-99-49"
       cx="779.89075"
       cy="137.43976"
       r="1.7657762" />
    <circle
       style="fill:#ffffff;fill-opacity:1;stroke:none;stroke-width:8.82888"
       id="path55152-5"
       cx="107.8982"
       cy="118.42224"
       r="1.7657762" />
    <circle
       style="fill:#ffffff;fill-opacity:1;stroke:none;stroke-width:8.82888"
       id="path55152-55"
       cx="177.95966"
       cy="168.08606"
       r="1.7657762" />
    <circle
       style="fill:#ffffff;fill-opacity:1;stroke:none;stroke-width:8.82888"
       id="path55152-94"
       cx="202.79156"
       cy="90.042908"
       r="1.7657762" />
    <circle
       style="fill:#ffffff;fill-opacity:1;stroke:none;stroke-width:8.82888"
       id="path55152-84"
       cx="312.76144"
       cy="85.608643"
       r="1.7657762" />
  </g>
  <g
     inkscape:groupmode="layer"
     id="layer7"
     inkscape:label="clouds-back"
     style="display:inline">
    <path
       id="rect940-0"
       style="display:inline;fill:#637580;fill-opacity:1;stroke-width:12"
       d="m 800,183.27344 c -50.48957,36.16399 -61.07422,144.42773 -61.07422,144.42773 -75.97028,25.32343 -21.52539,84.83399 -21.52539,84.83399 -63.30857,-31.65428 -64.57617,83.56836 -64.57617,83.56836 -78.42346,-40.34462 -64.57227,59.50781 -64.57227,59.50781 -83.5673,-64.57475 -86.10156,49.38281 -86.10156,49.38281 -58.24389,-53.1792 -89.89648,10.12891 -89.89648,10.12891 C 367.93791,530.28956 310.95898,594.86522 310.95898,594.86523 326.15304,489.77299 231.19141,515.09375 231.19141,515.09375 258.72905,380.44247 174.21485,397.3418 174.21484,397.3418 156.48847,301.11278 53.925781,320.10547 53.925781,320.10547 36.688249,298.16703 18.501059,286.31327 0,280.98242 V 800 h 800 z" />
    <path
       style="display:inline;fill:#637580;fill-opacity:1;stroke:none;stroke-width:0.848606px;stroke-linecap:butt;stroke-linejoin:miter;stroke-opacity:1"
       d="m 59.11549,309.37115 c 0,0 -13.586758,-30.06455 -32.722717,-40.8895 -19.1359519,-10.82494 -12.216268,-21.44792 -6.631107,-22.30661 5.585154,-0.85867 48.353949,7.7965 39.353824,63.19611 z"
       id="path4749-7" />
    <path
       style="display:inline;fill:#637580;fill-opacity:1;stroke:none;stroke-width:0.848606px;stroke-linecap:butt;stroke-linejoin:miter;stroke-opacity:1"
       d="m 737.41481,282.30616 c 0,0 -2.53697,-32.89439 9.0401,-51.58492 11.57707,-18.69052 0.40302,-24.67971 -4.90736,-22.74806 -5.31036,1.93166 -38.65402,30.07917 -4.13274,74.33298 z"
       id="path4749-7-7" />
    <path
       style="display:inline;fill:#637580;fill-opacity:1;stroke:none;stroke-width:1px;stroke-linecap:butt;stroke-linejoin:miter;stroke-opacity:1"
       d="m 68.01475,303.21342 c 0,0 4.395808,-18.53356 -1.417583,-30.6919 -5.813388,-12.15834 12.237645,-12.2796 16.023843,-7.10146 4.855847,6.64099 8.621682,11.00231 -14.60626,37.79336 z"
       id="path141760-4"
       sodipodi:nodetypes="cssc" />
    <path
       style="display:inline;fill:#637580;fill-opacity:1;stroke:none;stroke-width:1px;stroke-linecap:butt;stroke-linejoin:miter;stroke-opacity:1"
       d="m 718.87613,269.6291 c 0,0 -11.02725,-15.53113 -10.19931,-28.98235 0.82793,-13.45122 -15.95039,-6.79218 -17.51762,-0.57189 -2.01004,7.97759 -3.86481,13.43309 27.71693,29.55424 z"
       id="path141760-4-9"
       sodipodi:nodetypes="cssc" />
  </g>
  <g
     inkscape:groupmode="layer"
     id="layer2"
     inkscape:label="moon"
     style="display:inline">
    <path
       id="rect940-85"
       style="display:inline;fill:#d7cc91;fill-opacity:1;stroke-width:12"
       d="M 521.75195 216.36914 C 361.39913 212.77499 218.84314 324.29164 191.30859 483.85156 C 173.46531 588.48437 209.35199 694.16318 284.94922 767.92578 L 470.80859 800 L 753.79883 800 L 800 532.27734 L 800 375.73438 C 751.20274 295.54232 668.73166 237.98005 571.98047 221.25391 C 555.11896 218.34411 538.34018 216.74095 521.75195 216.36914 z " />
    <path
       id="rect940-85-9"
       style="display:inline;fill:#c9bc79;fill-opacity:1;stroke-width:12"
       d="M 752.09766 314.83984 C 686.38521 683.83433 361.10166 737.36865 263.83594 745.07812 C 267.04389 748.86181 270.32622 752.59087 273.68945 756.26172 C 277.35994 760.21315 281.06743 764.13819 284.94922 767.92578 L 470.80859 800 L 753.79883 800 L 800 532.27734 L 800 375.73438 C 790.89641 360.77379 780.61463 346.60502 769.29297 333.33789 C 769.13232 333.14977 768.96771 332.9651 768.80664 332.77734 C 765.30507 328.69273 761.69662 324.7014 758 320.79297 C 757.5761 320.34511 757.15102 319.89861 756.72461 319.45312 C 755.21926 317.87924 753.63398 316.38392 752.09766 314.83984 z " />
    <path
       id="rect940-4-7"
       style="display:inline;fill:#c9bc79;fill-opacity:1;stroke-width:12"
       d="m 571.98059,221.25362 c -18.44872,-3.18371 -36.78464,-4.72299 -54.89407,-4.87677 a 40.48613,39.953419 9.7910301 0 0 -9.65927,19.76045 40.48613,39.953419 9.7910301 0 0 33.10239,46.2561 40.48613,39.953419 9.7910301 0 0 46.69087,-32.48627 40.48613,39.953419 9.7910301 0 0 -4.71969,-26.49319 c -3.50647,-0.72162 -6.97463,-1.54737 -10.52023,-2.16032 z" />
    <ellipse
       style="fill:#c9bc79;fill-opacity:1;stroke:none;stroke-width:15"
       id="path1193"
       cx="141.65312"
       cy="462.12637"
       rx="31.430023"
       ry="19.710354"
       transform="rotate(-26.421269)" />
    <ellipse
       style="fill:#c9bc79;fill-opacity:1;stroke:none;stroke-width:15"
       id="path1197"
       cx="303.48712"
       cy="710.84546"
       rx="23.439339"
       ry="28.233749"
       transform="rotate(-38.572179)" />
    <circle
       style="fill:#c9bc79;fill-opacity:1;stroke:none;stroke-width:15"
       id="path1199"
       cx="375.05261"
       cy="449.51981"
       r="59.663773"
       transform="rotate(9.7910301)" />
    <ellipse
       style="fill:#c9bc79;fill-opacity:1;stroke:none;stroke-width:15"
       id="path1201"
       cx="560.43646"
       cy="492.66953"
       rx="57.532925"
       ry="59.131062"
       transform="rotate(9.7910301)" />
    <ellipse
       style="fill:#c9bc79;fill-opacity:1;stroke:none;stroke-width:9.18919"
       id="path1201-9"
       cx="555.19574"
       cy="314.74359"
       rx="35.245396"
       ry="36.224434"
       transform="rotate(9.7910301)" />
    <ellipse
       style="display:inline;fill:#d7cc91;fill-opacity:1;stroke:none;stroke-width:18.5088"
       id="path1203-8"
       cx="827.89624"
       cy="64.412079"
       rx="62.445885"
       ry="68.361816"
       transform="rotate(33.499255)" />
    <ellipse
       style="fill:#c9bc79;fill-opacity:1;stroke:none;stroke-width:12.6608"
       id="path1203"
       cx="828.08783"
       cy="63.307434"
       rx="42.715519"
       ry="46.762253"
       transform="rotate(33.499255)" />
  </g>
  <g
     inkscape:groupmode="layer"
     id="layer11"
     inkscape:label="cat1"
     style="display:inline">
    <path
       style="display:inline;fill:#d88743;fill-opacity:1;stroke:none;stroke-width:0.857193px;stroke-linecap:butt;stroke-linejoin:miter;stroke-opacity:1"
       d="m 339.87604,558.60678 1.20801,4.508 5.80713,0.86176 0.48393,4.52428 h 4.83929 l 1.45178,4.30883 5.32321,-0.43088 2.6616,3.87795 6.0491,-1.29264 3.62946,3.87795 2.90356,-2.15441 3.62947,3.01618 6.29107,-1.29265 3.62946,3.01619 7.01695,-1.50809 9.19463,1.93896 4.35536,-2.15441 6.29106,1.93898 3.62946,-3.87795 5.80713,0.64632 2.66161,-3.01619 h 6.775 l 2.66162,-3.66251 4.59731,-0.64632 3.38749,-3.66252 5.56519,-1.29265 1.45174,-4.09339 4.11336,-0.21545 0.84688,-3.98567 3.14556,-1.07722 -1.01007,-2.41798 -13.87073,1.87938 -15.24371,10.98754 -32.90711,3.44707 z"
       id="path13642-8" />
    <path
       style="fill:#d88743;fill-opacity:1;stroke:none;stroke-width:0.764396px;stroke-linecap:butt;stroke-linejoin:miter;stroke-opacity:1"
       d="m 381.49156,721.60931 c -4.88643,3.25762 -63.11646,19.13853 -41.94191,-35.42666 21.17456,-54.5652 11.40169,-79.81179 7.32965,-89.58466 -4.07202,-9.77287 -17.10252,-17.10252 -15.4737,-22.80337 1.62881,-5.70084 15.96951,-15.99534 27.6898,17.91694 11.72028,33.91227 -2.44323,77.36856 -10.99448,103.83675 -8.51637,26.3602 29.42335,11.29273 29.42335,11.29273 z"
       id="path34652"
       sodipodi:nodetypes="cssssscc" />
    <path
       id="path34652-3"
       style="fill:#d37a30;fill-opacity:1;stroke:none;stroke-width:0.764396px;stroke-linecap:butt;stroke-linejoin:miter;stroke-opacity:1"
       d="m 345.5625,668.85547 c -1.03354,3.39209 -2.20094,6.9211 -3.51367,10.59375 3.60778,1.81069 6.97219,3.22237 9.80859,4.29297 1.01804,-3.28291 2.04771,-6.70675 3.05664,-10.26367 -2.90198,-1.10815 -6.0579,-2.60656 -9.35156,-4.62305 z" />
    <path
       id="path34652-21"
       style="fill:#d37a30;fill-opacity:1;stroke:none;stroke-width:0.764396px;stroke-linecap:butt;stroke-linejoin:miter;stroke-opacity:1"
       d="m 349.50781,653.85742 c -0.75437,3.46565 -1.67348,7.11945 -2.75586,10.94727 3.62376,0.53554 7.09513,0.81886 10.25196,0.93945 0.89334,-3.47011 1.73216,-7.02867 2.5039,-10.64258 -3.04844,-0.10937 -6.39583,-0.48136 -10,-1.24414 z" />
    <path
       id="path34652-0"
       style="fill:#d37a30;fill-opacity:1;stroke:none;stroke-width:0.764396px;stroke-linecap:butt;stroke-linejoin:miter;stroke-opacity:1"
       d="m 352.35156,634.79102 c -0.25475,3.36053 -0.68999,6.96961 -1.31054,10.81836 3.83549,0.28703 7.32415,0.32448 10.24414,0.25195 0.59805,-3.56338 1.07204,-7.1611 1.44922,-10.76758 -3.04442,0.20493 -6.52817,0.16778 -10.38282,-0.30273 z" />
    <path
       id="path34652-2"
       style="fill:#d37a30;fill-opacity:1;stroke:none;stroke-width:0.764396px;stroke-linecap:butt;stroke-linejoin:miter;stroke-opacity:1"
       d="m 363.42578,615.74414 c -3.0547,1.616 -6.70146,3.12857 -10.9707,4.29102 0.22521,3.111 0.31449,6.50308 0.18164,10.24414 3.91598,-1.21047 7.56634,-2.71961 10.79101,-4.26563 0.14118,-3.4402 0.15204,-6.86936 -0.002,-10.26953 z" />
    <path
       id="path34652-12"
       style="fill:#d37a30;fill-opacity:1;stroke:none;stroke-width:0.764396px;stroke-linecap:butt;stroke-linejoin:miter;stroke-opacity:1"
       d="m 360.99023,598.14648 c -3.29479,1.68707 -7.24069,3.24367 -11.89062,4.37696 0.8711,2.64046 1.72125,5.82854 2.38672,9.63476 4.11916,-1.32036 7.92728,-2.95751 11.23633,-4.60156 -0.40964,-3.18528 -0.97344,-6.32912 -1.73243,-9.41016 z" />
    <path
       id="path34652-1"
       style="fill:#d37a30;fill-opacity:1;stroke:none;stroke-width:0.764396px;stroke-linecap:butt;stroke-linejoin:miter;stroke-opacity:1"
       d="m 355.57812,582.96289 c -4.10987,1.88928 -9.11662,3.52486 -15.08789,4.45313 2.49443,2.74929 4.89191,5.72513 6.29688,8.99218 4.4993,-1.35145 8.65814,-3.10641 12.24414,-4.87695 -1.13102,-3.25425 -2.28764,-6.0907 -3.45313,-8.56836 z" />
    <path
       id="path11218-4-8"
       style="display:inline;fill:#d88743;fill-opacity:1;stroke:none;stroke-width:0.908423px;stroke-linecap:butt;stroke-linejoin:miter;stroke-opacity:1"
       d="m 346.8415,463.65721 0.72461,5.32422 -2.78125,2.29687 1.33008,3.38867 -2.9043,4.96094 1.81641,3.14453 -1.57422,5.68555 1.33203,3.87305 -1.21094,3.38671 1.45313,3.99219 -1.08985,3.02539 2.66211,2.78125 -0.48437,3.38867 2.54101,2.41993 1.69336,5.20117 1.94727,0.4043 c 1.23087,1.99665 2.66428,3.90059 4.33984,5.67187 l 20.80664,-2.39844 8.64649,-18.08984 c 0,0 -1.28649,-3.503 -4.14454,-8.42578 l 0.34375,-2.20508 -2.29882,-1.81445 -0.1211,-3.63086 -4.83984,-3.14453 -1.81445,-4.11329 -4.47657,-2.17773 -0.60351,-2.66211 -3.50977,-1.20898 -2.41992,-3.02539 -3.99219,-0.60352 -1.93554,-3.75195 -3.23633,0.36328 -3.78516,-0.72852 z" />
    <path
       id="path11218-4-8-6"
       style="display:inline;fill:#d37a30;fill-opacity:1;stroke:none;stroke-width:0.908423px;stroke-linecap:butt;stroke-linejoin:miter;stroke-opacity:1"
       d="m 381.95627,493.60822 c -15.33237,6.53783 -26.17042,12.46488 -33.70703,17.33008 l 0.40625,0.38672 1.69336,5.20117 1.94726,0.4043 c 1.02831,1.66806 2.20689,3.26589 3.54102,4.78125 7.977,-5.28828 17.79912,-10.18045 27.81054,-14.49024 l 2.44141,-5.10742 c 0,0 -1.28648,-3.503 -4.14453,-8.42578 z" />
    <path
       id="path11218-4-8-3"
       style="display:inline;fill:#d37a30;fill-opacity:1;stroke:none;stroke-width:0.908423px;stroke-linecap:butt;stroke-linejoin:miter;stroke-opacity:1"
       d="m 360.56174,469.45783 c -6.69683,2.253 -11.74414,4.71482 -15.50196,7.01172 l -1.84961,3.1582 1.81641,3.14453 -1.46484,5.29102 c 7.10827,-5.70081 17.63826,-9.14257 25.89648,-11.11133 l -0.7207,-0.34961 -0.60352,-2.66211 -3.50976,-1.20898 -2.41993,-3.02539 z" />
    <path
       id="path11218-4-8-0"
       style="display:inline;fill:#d37a30;fill-opacity:1;stroke:none;stroke-width:0.908423px;stroke-linecap:butt;stroke-linejoin:miter;stroke-opacity:1"
       d="m 373.80567,480.12308 c -16.9623,4.88919 -25.83456,11.5812 -30.10938,15.93359 l 1.33008,3.65235 -1.08984,3.02539 2.66211,2.78125 -0.0469,0.33007 c 8.55141,-9.42534 24.51871,-14.01339 33.69727,-15.97265 l -0.25977,-0.20508 -0.12109,-3.63086 -4.83984,-3.14453 z" />
    <path
       id="path11218-4-8-05"
       style="display:inline;fill:#d88743;fill-opacity:1;stroke:none;stroke-width:0.908423px;stroke-linecap:butt;stroke-linejoin:miter;stroke-opacity:1"
       d="m 451.03055,462.45954 -0.72461,5.32422 2.78125,2.29687 -1.33008,3.38867 2.9043,4.96094 -1.81641,3.14453 1.57422,5.68555 -1.33203,3.87305 1.21094,3.38671 -1.45313,3.99219 1.08985,3.02539 -2.66211,2.78125 0.48437,3.38867 -2.54101,2.41993 -1.69336,5.20117 -1.94727,0.4043 c -1.23087,1.99665 -2.66428,3.90059 -4.33984,5.67187 l -20.80664,-2.39844 -8.64649,-18.08984 c 0,0 1.28649,-3.503 4.14454,-8.42578 l -0.34375,-2.20508 2.29882,-1.81445 0.1211,-3.63086 4.83984,-3.14453 1.81445,-4.11329 4.47657,-2.17773 0.60351,-2.66211 3.50977,-1.20898 2.41992,-3.02539 3.99219,-0.60352 1.93554,-3.75195 3.23633,0.36328 3.78516,-0.72852 z" />
    <path
       id="path11218-4-8-6-0"
       style="display:inline;fill:#d37a30;fill-opacity:1;stroke:none;stroke-width:0.908423px;stroke-linecap:butt;stroke-linejoin:miter;stroke-opacity:1"
       d="m 415.91578,492.41055 c 15.33237,6.53783 26.17042,12.46488 33.70703,17.33008 l -0.40625,0.38672 -1.69336,5.20117 -1.94726,0.4043 c -1.02831,1.66806 -2.20689,3.26589 -3.54102,4.78125 -7.977,-5.28828 -17.79912,-10.18045 -27.81054,-14.49024 l -2.44141,-5.10742 c 0,0 1.28648,-3.503 4.14453,-8.42578 z" />
    <path
       id="path11218-4-8-3-2"
       style="display:inline;fill:#d37a30;fill-opacity:1;stroke:none;stroke-width:0.908423px;stroke-linecap:butt;stroke-linejoin:miter;stroke-opacity:1"
       d="m 437.31031,468.26016 c 6.69683,2.253 11.74414,4.71482 15.50196,7.01172 l 1.84961,3.1582 -1.81641,3.14453 1.46484,5.29102 c -7.10827,-5.70081 -17.63826,-9.14257 -25.89648,-11.11133 l 0.7207,-0.34961 0.60352,-2.66211 3.50976,-1.20898 2.41993,-3.02539 z" />
    <path
       id="path11218-4-8-0-4"
       style="display:inline;fill:#d37a30;fill-opacity:1;stroke:none;stroke-width:0.908423px;stroke-linecap:butt;stroke-linejoin:miter;stroke-opacity:1"
       d="m 424.06638,478.92541 c 16.9623,4.88919 25.83456,11.5812 30.10938,15.93359 l -1.33008,3.65235 1.08984,3.02539 -2.66211,2.78125 0.0469,0.33007 c -8.55141,-9.42534 -24.51871,-14.01339 -33.69727,-15.97265 l 0.25977,-0.20508 0.12109,-3.63086 4.83984,-3.14453 z" />
    <path
       style="display:inline;fill:#e0a777;fill-opacity:1;stroke:none;stroke-width:0.579329px;stroke-linecap:butt;stroke-linejoin:miter;stroke-opacity:1"
       d="m 421.70484,498.72105 c 0,0 5.67383,-17.45793 22.6953,-24.4411 0,0 8.29255,23.5682 -3.4916,36.87988 l -13.31165,-1.09113 z"
       id="path11218-3-5"
       sodipodi:nodetypes="ccccc" />
    <path
       style="display:inline;fill:#d88743;fill-opacity:1;stroke:none;stroke-width:0.908423px;stroke-linecap:butt;stroke-linejoin:miter;stroke-opacity:1"
       d="m 339.87604,559.1319 c 0,0 -0.17082,-4.32366 0.55667,-10.79756 0.7275,-6.47391 2.44021,-16.14269 7.15637,-24.183 5.04505,-8.60101 9.63789,-14.51727 18.23518,-20.89859 8.59729,-6.38133 20.24837,-9.66408 35.98796,-9.47891 14.54303,0.1711 22.1995,4.74788 30.37995,10.74687 8.18045,5.99899 15.00283,14.44677 18.6386,22.35989 3.63578,7.91312 5.62473,11.69857 6.53368,17.61203 0.90894,5.91345 0.90894,9.84862 0.90894,9.84862 0,0 -3.03496,4.27832 -9.12024,9.50099 -5.96962,5.12339 -8.70929,7.12118 -19.0177,12.04014 -10.30844,4.91896 -30.12141,8.16179 -44.58958,5.37081 -14.46817,-2.79097 -27.70492,-4.84075 -45.66983,-22.12129 z"
       id="path1053-6"
       sodipodi:nodetypes="cssssssscsssc" />
    <path
       style="display:inline;fill:#e0a777;fill-opacity:1;stroke:none;stroke-width:0.550822px;stroke-linecap:butt;stroke-linejoin:miter;stroke-opacity:1"
       d="m 375.85998,500.50627 c 0,0 -5.39464,-16.59888 -21.57856,-23.23843 0,0 -7.88446,22.40849 3.31978,35.06515 l 12.65665,-1.03744 z"
       id="path11218-3-7-2"
       sodipodi:nodetypes="ccccc" />
    <path
       style="display:inline;fill:#d88743;fill-opacity:1;stroke:none;stroke-width:0.908423px;stroke-linecap:butt;stroke-linejoin:miter;stroke-opacity:1"
       d="m 339.87604,559.1319 -3.16524,-4.79064 2.22422,-2.05314 -1.62539,-4.10626 2.65196,-2.65197 -1.71094,-4.27735 3.16524,-1.7965 -1.19765,-6.33049 3.59297,-1.53985 -1.19765,-6.1594 3.67853,-0.85547 0.25664,-7.87034 6.41604,-0.76992 0.42773,-5.38948 4.19181,-0.59883 0.59883,-3.84962 4.10627,-0.59883 1.11212,-4.96174 4.61954,0.42773 2.39533,-4.19181 5.04728,0.76993 2.48087,-3.84962 5.13282,0.94101 3.76408,-3.67853 2.65197,1.96759 2.48087,-1.4543 2.65196,1.36875 3.93517,-1.79649 2.30978,1.71094 3.0797,-2.39532 2.22423,2.48087 4.61955,-1.53984 1.45429,2.05312 3.67853,-0.85547 1.7965,2.56642 3.42188,0.17109 1.53985,2.39533 4.96174,-0.68438 0.51328,3.59298 h 4.44846 l 0.17108,3.25079 3.67854,-0.25664 0.42776,3.50743 2.56638,0.42774 0.51329,2.39532 3.76404,2.05313 v 2.90861 l 3.76412,0.59883 0.17107,3.84963 2.65199,0.68437 -0.34222,2.99416 2.05317,1.71094 v 2.90861 l 2.05309,1.19765 -0.25661,2.48088 2.30978,0.76992 -0.59883,3.25079 2.05309,1.02656 -0.68436,2.82306 2.30977,2.39533 -1.28319,3.16524 2.30977,1.36876 -1.28319,2.22423 1.36873,1.53984 -1.53988,1.88204 1.45434,2.13868 -4.44847,1.53985 -3.59297,-16.16842 -12.66099,-18.39264 -13.34534,-15.05631 -27.46065,-7.7848 -21.3868,7.9559 -26.69073,18.90592 -6.50158,19.41922 z"
       id="path13374-5" />
    <circle
       style="display:inline;opacity:0.967427;fill:#ffffff;fill-opacity:1;stroke:none;stroke-width:5.45054"
       id="path2238-3"
       cx="373.88315"
       cy="541.65576"
       r="14.534766" />
    <circle
       style="display:inline;opacity:0.967427;fill:#ffffff;fill-opacity:1;stroke:none;stroke-width:5.45054"
       id="path2238-6-0"
       cx="424.73886"
       cy="542.0224"
       r="14.534766" />
    <circle
       style="display:inline;fill:#000000;fill-opacity:1;stroke:none;stroke-width:5.45054"
       id="path2238-6-3-0"
       cx="422.26651"
       cy="542.76025"
       r="10.901074" />
    <circle
       style="display:inline;fill:#000000;fill-opacity:1;stroke:none;stroke-width:5.45054"
       id="path2238-6-3-1-3"
       cx="141.97052"
       cy="645.34174"
       transform="rotate(-22.329919)"
       r="10.901074" />
    <path
       style="display:inline;fill:#ffffff;fill-opacity:1;stroke:none;stroke-width:0.821435px;stroke-linecap:butt;stroke-linejoin:miter;stroke-opacity:1"
       d="m 380.13643,537.65323 c 0,0 -3.00528,-0.66263 -2.20203,2.16643 0.32145,1.13222 3.08434,0.96424 2.72287,3.09982 -0.36146,2.13558 1.46903,2.44541 2.41247,1.50671 0.94344,-0.9387 2.84544,-5.43588 -2.93333,-6.77295 z"
       id="path6493-8"
       sodipodi:nodetypes="csssc" />
    <path
       style="display:inline;fill:#ffffff;fill-opacity:1;stroke:none;stroke-width:0.821435px;stroke-linecap:butt;stroke-linejoin:miter;stroke-opacity:1"
       d="m 426.30849,537.36274 c 0,0 -3.00528,-0.66263 -2.20203,2.16644 0.32145,1.13221 3.08434,0.96423 2.72288,3.09981 -0.36146,2.13558 1.46903,2.44541 2.41247,1.50671 0.94344,-0.9387 2.84543,-5.43588 -2.93333,-6.77295 z"
       id="path6493-0-6"
       sodipodi:nodetypes="csssc" />
    <path
       style="display:inline;fill:#050000;fill-opacity:1;stroke:none;stroke-width:1.14779px;stroke-linecap:butt;stroke-linejoin:miter;stroke-opacity:1"
       d="m 398.5802,561.58702 c 0,0 9.33763,-5.3077 6.55108,-6.45984 -1.45574,-0.60189 -3.14201,-1.03827 -5.99285,-1.03074 -2.85086,0.008 -6.86632,0.82009 -6.76927,1.15117 0.19408,0.66209 2.05225,4.42039 5.6229,6.05074 z"
       id="path9425-0"
       sodipodi:nodetypes="cssscc" />
    <path
       style="display:inline;fill:#ffffff;fill-opacity:1;stroke:#ffffff;stroke-width:1.0173px;stroke-linecap:butt;stroke-linejoin:miter;stroke-opacity:1"
       d="m 338.14507,552.69122 c -16.6797,-28.89392 -5.76314,-63.89532 -5.76314,-63.89532 0,0 -17.5359,36.50408 5.76314,63.89532 z"
       id="path886-4-7" />
    <path
       style="display:inline;fill:#ffffff;fill-opacity:1;stroke:#ffffff;stroke-width:0.898685px;stroke-linecap:butt;stroke-linejoin:miter;stroke-opacity:1"
       d="m 464.44199,492.72038 c 7.17018,31.4217 -8.30409,61.48238 -8.30409,61.48238 0,0 20.91348,-29.76963 8.30409,-61.48238 z"
       id="path886-3" />
    <path
       style="display:inline;fill:#e0a777;fill-opacity:1;stroke:none;stroke-width:0.907009px;stroke-linecap:butt;stroke-linejoin:miter;stroke-opacity:1"
       d="m 400.35169,530.26432 c 0,0 -1.09969,2.91822 -3.46939,-0.22205 -2.3697,-3.14027 -4.33668,-14.85127 -0.29426,-15.47933 4.04243,-0.62804 10.48283,0.77828 3.76365,15.70138 z"
       id="path15524-4"
       sodipodi:nodetypes="cssc" />
    <path
       style="display:inline;fill:#e0a777;fill-opacity:1;stroke:none;stroke-width:0.898723px;stroke-linecap:butt;stroke-linejoin:miter;stroke-opacity:1"
       d="m 403.73816,528.4952 c 0,0 2.93203,-6.89605 3.89235,-7.55259 1.69494,-1.15878 4.2317,-0.97 3.73063,1.91859 -0.50111,2.88858 -7.84912,9.06229 -7.62298,5.634 z"
       id="path15986-1"
       sodipodi:nodetypes="cssc" />
    <path
       style="display:inline;fill:#e0a777;fill-opacity:1;stroke:none;stroke-width:0.898723px;stroke-linecap:butt;stroke-linejoin:miter;stroke-opacity:1"
       d="m 393.63865,528.48585 c 0,0 -2.92332,-7.36166 -4.19481,-8.1575 -0.98608,-0.6172 -3.92924,-0.3651 -3.42818,2.52349 0.50111,2.88859 7.42567,9.0623 7.62299,5.63401 z"
       id="path15986-3-0"
       sodipodi:nodetypes="cssc" />
    <path
       style="display:inline;fill:#d88743;fill-opacity:1;stroke:none;stroke-width:1.10133px;stroke-linecap:butt;stroke-linejoin:miter;stroke-opacity:1"
       d="m 382.08399,584.55219 c 0,0 -17.11008,51.22266 -17.11008,107.05001 0,55.82734 51.58785,53.38281 67.75339,36.71528 22.9266,-23.63862 -13.27879,-133.3296 -20.15586,-149.14845 -6.87707,-15.81886 -30.48745,5.38316 -30.48745,5.38316 z"
       id="path19917-4"
       sodipodi:nodetypes="csssc" />
    <path
       id="path19917-4-3"
       style="display:inline;fill:#d37a30;fill-opacity:1;stroke:none;stroke-width:1.10133px;stroke-linecap:butt;stroke-linejoin:miter;stroke-opacity:1"
       d="m 405.15796,680.44531 c -16.47233,-0.0837 -31.97817,4.43334 -40.24219,7.33008 -0.0115,1.02904 -0.0566,2.04564 -0.0566,3.07813 0,3.67031 0.23698,7.07481 0.65821,10.2539 12.6526,-5.96044 37.78751,-12.59995 74.53125,1.41797 0.13167,-3.855 0.0475,-7.9621 -0.22657,-12.26758 -10.37826,-7.26699 -22.74742,-9.75196 -34.66406,-9.8125 z" />
    <path
       id="path19917-4-5"
       style="display:inline;fill:#d37a30;fill-opacity:1;stroke:none;stroke-width:1.10133px;stroke-linecap:butt;stroke-linejoin:miter;stroke-opacity:1"
       d="m 407.83594,658.21875 c -17.43692,-0.0846 -33.86695,4.76613 -41.68164,7.47852 -0.38384,4.48511 -0.69359,9.03478 -0.89063,13.66211 11.03188,-5.6901 35.82147,-13.9708 73.36328,-1.48438 -0.58649,-4.48695 -1.30674,-9.07442 -2.14453,-13.7168 -8.97333,-4.31482 -18.95933,-5.89246 -28.64648,-5.93945 z" />
    <path
       id="path19917-4-2"
       style="display:inline;fill:#d37a30;fill-opacity:1;stroke:none;stroke-width:1.10133px;stroke-linecap:butt;stroke-linejoin:miter;stroke-opacity:1"
       d="m 407.62109,637.32422 c -16.41438,-0.0782 -31.83589,4.45606 -38.98632,6.91211 -0.61166,4.18529 -1.16133,8.5092 -1.65039,12.93555 9.52316,-5.09852 32.41225,-13.46118 67.66992,-2.41407 -0.91428,-4.40498 -1.91815,-8.78671 -2.95899,-13.13281 -7.65863,-3.09531 -15.97938,-4.26222 -24.07422,-4.30078 z" />
    <path
       id="path19917-4-6"
       style="display:inline;fill:#d37a30;fill-opacity:1;stroke:none;stroke-width:1.10133px;stroke-linecap:butt;stroke-linejoin:miter;stroke-opacity:1"
       d="m 404.08398,614.72461 c -12.66415,-0.0705 -24.60028,3.6056 -31.32031,6.13281 -0.85874,4.15075 -1.70686,8.51303 -2.50976,13.1543 8.87536,-5.25094 28.91985,-12.90245 59.30273,-0.96094 -1.18943,-4.61231 -2.39844,-9.08814 -3.625,-13.40234 -6.89085,-3.56387 -14.47856,-4.88278 -21.84766,-4.92383 z" />
    <path
       id="path19917-4-8"
       style="display:inline;fill:#d37a30;fill-opacity:1;stroke:none;stroke-width:1.10133px;stroke-linecap:butt;stroke-linejoin:miter;stroke-opacity:1"
       d="m 404.43168,597.91311 c -11.20731,-0.0606 -21.76619,3.11935 -27.64648,5.27539 -0.8753,3.45839 -1.79505,7.33532 -2.73242,11.55078 7.17829,-4.30826 24.02792,-11.15691 49.82226,-2.26758 -1.26252,-4.23797 -2.48529,-8.18663 -3.66602,-11.85547 -5.09706,-1.92191 -10.50011,-2.6746 -15.77734,-2.70312 z" />
    <path
       id="path24115-3"
       style="display:inline;fill:none;stroke:#000000;stroke-width:8.17582;stroke-miterlimit:4;stroke-dasharray:none"
       d="m 472.75823,515.56398 c 0,9.40894 -2.11027,18.37249 -5.92651,26.5253 -3.81625,8.15282 -9.3384,15.49487 -16.16216,21.66083 -6.82376,6.16597 -14.94913,11.15579 -23.9717,14.60414 -2.25565,0.86208 -4.56736,1.62784 -6.92885,2.29153 -2.36148,0.66367 -4.04751,-0.88557 -6.5022,-1.77029 -2.33192,-0.84048 -3.7813,-1.2594 -6.70705,-1.64457 -2.52221,-0.33205 -5.6097,-0.36897 -9.77487,0.60925 -2.52276,0.59249 -3.94826,1.16794 -6.98557,2.17093 -2.39882,0.79215 -5.20074,2.76776 -7.65541,2.31388 -2.45469,-0.45387 -4.86593,-1.01553 -7.22742,-1.6792 -2.36148,-0.66369 -4.67321,-1.42945 -6.92885,-2.29153 -9.02258,-3.44835 -17.14793,-8.43817 -23.97169,-14.60414 -6.82375,-6.16596 -12.34593,-13.50802 -16.16217,-21.66083 -3.81622,-8.15281 -5.92651,-17.11636 -5.92651,-26.5253 0,-37.63569 33.76466,-68.14545 75.41549,-68.14545 41.65081,0 75.41547,30.50976 75.41547,68.14545 z"
       sodipodi:nodetypes="sssssssssssssssss" />
    <path
       style="display:inline;fill:#4579b7;fill-opacity:1;stroke:#000000;stroke-width:2.63521;stroke-linecap:butt;stroke-linejoin:miter;stroke-miterlimit:4;stroke-dasharray:none;stroke-opacity:1"
       d="m 380.76812,583.80395 c 0,0 -3.12545,6.73724 -1.33195,5.80713 28.2993,-14.67615 39.29264,2.0567 37.6277,-2.54062 -1.66495,-4.59731 -2.7194,-6.95647 -2.7194,-6.95647 0,0 -17.53741,-8.65021 -33.57635,3.68996 z"
       id="path6941-3"
       sodipodi:nodetypes="csscc" />
    <path
       style="display:inline;fill:#ffffff;fill-opacity:1;stroke:none;stroke-width:1.42811px;stroke-linecap:butt;stroke-linejoin:miter;stroke-opacity:1"
       d="m 337.58833,498.87756 c 0,0 -8.07401,5.58344 -3.85056,15.18931 4.22347,9.60586 3.85056,-15.18931 3.85056,-15.18931 z"
       id="path2946-5" />
    <path
       style="display:inline;fill:#ffffff;fill-opacity:1;stroke:none;stroke-width:1.42811px;stroke-linecap:butt;stroke-linejoin:miter;stroke-opacity:1"
       d="m 335.24947,521.38595 c 8.89961,5.0694 -5.91916,8.93579 0,0 z"
       id="path2948-8" />
    <path
       id="path19917-6-9"
       style="display:inline;fill:#e0a777;fill-opacity:1;stroke:none;stroke-width:1.08009px;stroke-linecap:butt;stroke-linejoin:miter;stroke-opacity:1"
       d="m 404.2104,594.21558 c -4.94978,-0.99189 -9.68087,-0.51216 -14.27796,6.14508 -6.08809,8.8164 -7.91078,89.54252 -9.14342,126.44757 10.56401,24.65762 31.66186,22.86296 42.79632,11.15166 1.86595,-77.49005 -12.97586,-136.07067 -13.93912,-138.65759 -0.979,-2.62925 -3.23886,-4.64647 -5.43582,-5.08672 z"
       sodipodi:nodetypes="asccsa" />
  </g>
  <g
     inkscape:groupmode="layer"
     id="layer6"
     inkscape:label="cat2"
     style="display:inline">
    <path
       style="fill:#555555;fill-opacity:1;stroke:none;stroke-width:1.01364px;stroke-linecap:butt;stroke-linejoin:miter;stroke-opacity:1"
       d="m 569.94708,779.87445 c 0,0 18.46219,1.88486 34.69325,-11.07483 8.11553,-6.47985 33.87969,-21.19844 43.35529,-33.41188 9.47561,-12.21345 17.83855,-25.88332 21.704,-37.76792 6.89796,-21.20827 14.35369,-59.18515 14.35369,-59.18515 0,0 -74.34219,12.89557 -71.88685,64.74572 2.90481,61.34174 -32.1843,42.56043 -32.1843,42.56043 l -33.96297,2.32199 6.58492,22.57305 z"
       id="path20662"
       sodipodi:nodetypes="cssscscccc" />
    <path
       style="fill:#555555;fill-opacity:1;stroke:none;stroke-width:1.01364px;stroke-linecap:butt;stroke-linejoin:miter;stroke-opacity:1"
       d="m 543.75955,579.21788 c 0,0 -10.93076,-30.20133 -41.10022,-41.42944 0,0 -13.1395,41.69356 8.23688,64.29113 l 23.21545,-2.67727 z"
       id="path11218-4"
       sodipodi:nodetypes="ccccc" />
    <path
       style="fill:#555555;fill-opacity:1;stroke:none;stroke-width:1.01364px;stroke-linecap:butt;stroke-linejoin:miter;stroke-opacity:1"
       d="m 576.07322,578.00666 c 0,0 8.57746,-29.0609 38.35967,-41.27923 0,0 15.85917,39.75194 -4.75928,63.04315 l -23.29116,-1.90913 z"
       id="path11218"
       sodipodi:nodetypes="ccccc" />
    <path
       style="fill:#7e7e7e;fill-opacity:1;stroke:none;stroke-width:0.64643px;stroke-linecap:butt;stroke-linejoin:miter;stroke-opacity:1"
       d="m 584.5243,574.89044 c 0,0 6.331,-19.48 25.32399,-27.272 0,0 9.25304,26.298 -3.89602,41.15151 l -14.85347,-1.21751 z"
       id="path11218-3"
       sodipodi:nodetypes="ccccc" />
    <path
       style="fill:#7e7e7e;fill-opacity:1;stroke:none;stroke-width:0.614621px;stroke-linecap:butt;stroke-linejoin:miter;stroke-opacity:1"
       d="m 533.36943,576.88244 c 0,0 -6.01948,-18.52146 -24.07791,-25.93004 0,0 -8.79768,25.00397 3.7043,39.12659 l 14.12261,-1.1576 z"
       id="path11218-3-7"
       sodipodi:nodetypes="ccccc" />
    <path
       style="fill:#555555;fill-opacity:1;stroke:none;stroke-width:1.01364px;stroke-linecap:butt;stroke-linejoin:miter;stroke-opacity:1"
       d="m 493.21763,642.29842 c 0,0 -0.1906,-4.82445 0.62115,-12.0482 0.81176,-7.22375 2.72285,-18.01242 7.98525,-26.98401 5.6294,-9.59723 10.75421,-16.19874 20.34729,-23.31918 9.59307,-7.12045 22.59364,-10.78343 40.15629,-10.57681 16.22748,0.19091 24.77076,5.2978 33.89872,11.99163 9.12795,6.69383 16.74054,16.12007 20.79743,24.94974 4.05689,8.82966 6.27621,13.05357 7.29044,19.65195 1.01422,6.59838 1.01422,10.98934 1.01422,10.98934 0,0 -3.38648,4.77386 -10.17659,10.60145 -6.66106,5.71681 -9.71806,7.94599 -21.22045,13.4347 -11.50241,5.4887 -33.61023,9.10713 -49.75418,5.99289 -16.14396,-3.11424 -30.91387,-5.40144 -50.95957,-24.6835 z"
       id="path1053"
       sodipodi:nodetypes="cssssssscsssc" />
    <circle
       style="opacity:0.967427;fill:#a7ba7f;fill-opacity:1;stroke:none;stroke-width:6.08185"
       id="path2238"
       cx="531.16364"
       cy="622.79816"
       r="16.218264" />
    <circle
       style="opacity:0.967427;fill:#a7ba7f;fill-opacity:1;stroke:none;stroke-width:6.08185"
       id="path2238-6"
       cx="587.90979"
       cy="623.20728"
       r="16.218264" />
    <circle
       style="opacity:1;fill:#000000;fill-opacity:1;stroke:none;stroke-width:6.08185"
       id="path2238-6-3"
       cx="585.15106"
       cy="624.03058"
       r="12.163697" />
    <circle
       style="fill:#000000;fill-opacity:1;stroke:none;stroke-width:6.08185"
       id="path2238-6-3-1"
       cx="256.8501"
       cy="780.41718"
       r="12.163697"
       transform="rotate(-22.329919)" />
    <path
       style="fill:#ffffff;fill-opacity:1;stroke:none;stroke-width:0.916578px;stroke-linecap:butt;stroke-linejoin:miter;stroke-opacity:1"
       d="m 538.1412,618.33196 c 0,0 -3.35337,-0.73938 -2.45708,2.41737 0.35868,1.26335 3.44159,1.07591 3.03825,3.45885 -0.40332,2.38293 1.63918,2.72865 2.6919,1.68123 1.05271,-1.04743 3.175,-6.0655 -3.2731,-7.55744 z"
       id="path6493"
       sodipodi:nodetypes="csssc" />
    <path
       style="fill:#ffffff;fill-opacity:1;stroke:none;stroke-width:0.916578px;stroke-linecap:butt;stroke-linejoin:miter;stroke-opacity:1"
       d="m 589.66117,618.00783 c 0,0 -3.35337,-0.73938 -2.45709,2.41737 0.35869,1.26334 3.44159,1.07591 3.03826,3.45885 -0.40333,2.38293 1.63918,2.72864 2.6919,1.68122 1.05271,-1.04742 3.175,-6.06549 -3.27309,-7.55743 z"
       id="path6493-0"
       sodipodi:nodetypes="csssc" />
    <path
       style="fill:#050000;fill-opacity:1;stroke:none;stroke-width:1.28073px;stroke-linecap:butt;stroke-linejoin:miter;stroke-opacity:1"
       d="m 558.72124,645.0379 c 0,0 10.41916,-5.92247 7.30986,-7.20806 -1.62436,-0.67159 -3.50594,-1.15853 -6.68698,-1.15012 -3.18107,0.009 -7.66161,0.91508 -7.55332,1.2845 0.21656,0.73878 2.28995,4.93238 6.27417,6.75158 z"
       id="path9425"
       sodipodi:nodetypes="cssscc" />
    <path
       style="fill:#555555;fill-opacity:1;stroke:none;stroke-width:1.01364px;stroke-linecap:butt;stroke-linejoin:miter;stroke-opacity:1"
       d="m 493.21763,642.29842 -3.53186,-5.34553 2.48185,-2.29094 -1.81366,-4.58187 2.95913,-2.95913 -1.90912,-4.77278 3.53187,-2.00458 -1.33638,-7.06372 4.00913,-1.71821 -1.33637,-6.87282 4.1046,-0.95455 0.28636,-8.78192 7.15919,-0.8591 0.47727,-6.01372 4.67733,-0.66819 0.66819,-4.29551 4.58188,-0.66819 1.24093,-5.53643 5.1546,0.47727 2.67277,-4.67733 5.63189,0.8591 2.76821,-4.2955 5.72734,1.05001 4.20005,-4.1046 2.95914,2.19549 2.76822,-1.62275 2.95913,1.52729 4.39096,-2.00458 2.57731,1.90912 3.4364,-2.67277 2.48185,2.76823 5.15462,-1.7182 1.62273,2.29093 4.1046,-0.95455 2.00458,2.86367 3.81822,0.19091 1.71821,2.67276 5.53643,-0.76364 0.57273,4.00914 h 4.96371 l 0.1909,3.62731 4.10461,-0.28636 0.4773,3.91368 2.86364,0.47728 0.57274,2.67276 4.20001,2.29093 v 3.24551 l 4.20009,0.66818 0.19089,4.29551 2.95916,0.76365 -0.38185,3.34095 2.29097,1.90911 v 3.24551 l 2.29089,1.33637 -0.28633,2.76823 2.57731,0.8591 -0.66819,3.62731 2.29089,1.14546 -0.76363,3.15005 2.57731,2.67276 -1.43182,3.53186 2.57731,1.52729 -1.43182,2.48186 1.52726,1.71819 -1.71823,2.10003 1.62279,2.3864 -4.96373,1.7182 -4.00912,-18.04113 -14.12746,-20.52299 -14.89107,-16.80022 -30.6413,-8.68647 -23.86393,8.8774 -29.7822,21.09571 -7.25463,21.66846 z"
       id="path13374" />
    <path
       style="fill:#ffffff;fill-opacity:1;stroke:#ffffff;stroke-width:1.13512px;stroke-linecap:butt;stroke-linejoin:miter;stroke-opacity:1"
       d="m 491.28617,635.11174 c -18.61164,-32.24057 -6.43066,-71.29604 -6.43066,-71.29604 0,0 -19.567,40.7322 6.43066,71.29604 z"
       id="path886-4" />
    <path
       style="fill:#ffffff;fill-opacity:1;stroke:#ffffff;stroke-width:1.00278px;stroke-linecap:butt;stroke-linejoin:miter;stroke-opacity:1"
       d="m 632.2115,568.19474 c 8.00067,35.06113 -9.26592,68.60361 -9.26592,68.60361 0,0 23.3358,-33.21771 9.26592,-68.60361 z"
       id="path886" />
    <path
       style="fill:#555555;fill-opacity:1;stroke:none;stroke-width:0.956478px;stroke-linecap:butt;stroke-linejoin:miter;stroke-opacity:1"
       d="m 493.21763,641.71248 1.34792,5.03013 6.47976,0.96158 0.53997,5.0483 h 5.3998 l 1.61994,4.80791 5.93977,-0.48079 2.96989,4.32712 6.74974,-1.44236 4.04984,4.32711 3.23987,-2.40395 4.04985,3.36554 7.01974,-1.44238 4.04984,3.36554 7.8297,-1.68276 10.2596,2.16354 4.85982,-2.40394 7.01972,2.16356 4.04984,-4.32712 6.47976,0.72118 2.96989,-3.36553 h 7.55971 l 2.96991,-4.08673 5.12979,-0.72118 3.77986,-4.08674 6.20977,-1.44236 1.61989,-4.56752 4.5898,-0.2404 0.94496,-4.44731 3.5099,-1.20199 -1.12706,-2.69805 -15.47731,2.09707 -17.00932,12.26017 -36.7186,3.84634 z"
       id="path13642" />
    <path
       style="fill:#555555;fill-opacity:1;stroke:none;stroke-width:1.01364px;stroke-linecap:butt;stroke-linejoin:miter;stroke-opacity:1"
       d="m 502.65933,537.78844 -2.69398,-1.48136 0.80997,5.93976 -3.10488,2.56491 1.48494,3.77985 -3.23987,5.53479 2.02492,3.50986 -1.75494,6.34475 1.48495,4.31984 -1.34995,3.77986 1.61994,4.45483 -1.21496,3.37486 2.96989,3.10489 -0.53998,3.77985 2.83489,2.6999 1.88993,5.80477 7.15473,1.48495 -10.93458,-35.50364 4.31982,-15.11942 z"
       id="path14301" />
    <path
       style="fill:#555555;fill-opacity:1;stroke:none;stroke-width:1.01364px;stroke-linecap:butt;stroke-linejoin:miter;stroke-opacity:1"
       d="m 538.57386,573.43065 0.94497,-6.07477 -2.5649,-2.02492 -0.135,-4.04985 -5.39978,-3.50986 -2.02492,-4.58982 -4.99482,-2.42992 -0.67497,-2.96988 -3.91485,-1.34995 -2.6999,-3.37487 -4.45482,-0.67497 -2.15992,-4.18484 -3.61112,0.40499 -4.2245,-0.81355 13.91039,10.26318 12.14953,12.41952 z"
       id="path14658"
       sodipodi:nodetypes="ccccccccccccccccc" />
    <path
       style="fill:#555555;fill-opacity:1;stroke:none;stroke-width:1.01364px;stroke-linecap:butt;stroke-linejoin:miter;stroke-opacity:1"
       d="m 580.08237,570.80206 -0.33509,-6.55106 4.45483,-2.96989 v -3.64486 l 4.04984,-2.02492 0.80997,-4.58982 3.91486,-1.34995 1.07995,-3.91485 4.18484,-0.80997 2.1599,-4.31983 3.91488,0.40498 2.42991,-4.99481 3.77986,1.75494 1.28238,-2.7674 2.76743,4.11735 4.31984,1.68742 -1.21491,1.41745 3.37479,1.07996 -1.61988,4.99481 2.42991,1.75493 -1.34993,4.45483 1.88993,2.6999 -1.07999,3.91484 1.88993,3.50987 -1.88993,2.56489 2.02495,4.99482 -2.29499,1.61994 1.35003,2.6999 -2.42992,2.42991 0.53999,2.83489 -1.755,2.4299 v 3.37487 l -2.02486,1.34994 v 4.18484 l -7.55971,3.10489 5.80472,-11.87955 3.5099,-18.0893 -2.42992,-19.84424 -1.48495,-7.28971 -8.36966,5.80477 -19.84424,18.49429 z"
       id="path14897"
       sodipodi:nodetypes="cccccccccccccccccccccccccccccccccccccccccc" />
    <path
       style="display:inline;fill:#7e7e7e;fill-opacity:1;stroke:none;stroke-width:1.01206px;stroke-linecap:butt;stroke-linejoin:miter;stroke-opacity:1"
       d="m 560.69791,610.08723 c 0,0 -1.22706,3.25622 -3.87124,-0.24777 -2.64418,-3.504 -4.83898,-16.57142 -0.32834,-17.27223 4.51065,-0.70078 11.69701,0.86843 4.19958,17.52 z"
       id="path15524"
       sodipodi:nodetypes="cssc" />
    <path
       style="fill:#7e7e7e;fill-opacity:1;stroke:none;stroke-width:1.00282px;stroke-linecap:butt;stroke-linejoin:miter;stroke-opacity:1"
       d="m 564.47661,608.1132 c 0,0 3.27164,-7.69478 4.34319,-8.42738 1.89125,-1.29299 4.72184,-1.08234 4.16273,2.14082 -0.55915,3.22316 -8.75825,10.11194 -8.50592,6.28656 z"
       id="path15986"
       sodipodi:nodetypes="cssc" />
    <path
       style="fill:#7e7e7e;fill-opacity:1;stroke:none;stroke-width:1.00282px;stroke-linecap:butt;stroke-linejoin:miter;stroke-opacity:1"
       d="m 553.20732,608.10276 c 0,0 -3.26191,-8.21432 -4.68067,-9.10234 -1.1003,-0.68869 -4.38435,-0.40738 -3.82526,2.81578 0.55916,3.22316 8.28576,10.11194 8.50593,6.28656 z"
       id="path15986-3"
       sodipodi:nodetypes="cssc" />
    <path
       style="fill:#555555;fill-opacity:1;stroke:none;stroke-width:1.01364px;stroke-linecap:butt;stroke-linejoin:miter;stroke-opacity:1"
       d="m 542.62372,663.81069 c 0,0 -19.09186,38.88662 -19.09186,81.26897 0,42.38235 57.56304,40.52654 75.60096,27.87308 25.58208,-17.94569 -14.81681,-101.2196 -22.49042,-113.22877 -7.67361,-12.00918 -34.01868,4.08672 -34.01868,4.08672 z"
       id="path19917"
       sodipodi:nodetypes="csssc" />
    <path
       id="path19917-6"
       style="display:inline;fill:#7e7e7e;fill-opacity:1;stroke:none;stroke-width:1.09523px;stroke-linecap:butt;stroke-linejoin:miter;stroke-opacity:1"
       d="m 566.99734,681.12171 c -3.48112,0.0327 -8.26466,1.37848 -16.46559,4.45762 -11.27189,4.23215 -16.40823,62.59623 -18.17645,89.04937 15.15402,17.67431 45.41881,16.38791 61.39113,7.99338 2.6767,-55.54403 -15.62203,-96.57321 -19.9956,-99.38826 -2.12616,-1.3685 -4.04594,-2.1375 -6.75349,-2.11211 z" />
    <path
       id="path24115"
       style="opacity:1;fill:none;stroke:#000000;stroke-width:9.12279;stroke-miterlimit:4;stroke-dasharray:none"
       d="m 641.49097,593.68422 c 0,10.49873 -2.35469,20.50049 -6.61295,29.5976 -4.25827,9.09713 -10.42002,17.28958 -18.03415,24.16971 -7.61412,6.88015 -16.68062,12.44791 -26.74823,16.29568 -2.51691,0.96193 -5.09638,1.81638 -7.73139,2.55694 -2.635,0.74054 -4.51632,-0.98814 -7.25533,-1.97534 -2.60201,-0.93782 -4.21926,-1.40526 -7.48389,-1.83505 -2.81434,-0.37051 -6.25945,-0.4117 -10.90705,0.67982 -2.81497,0.66111 -4.40557,1.30322 -7.79467,2.42237 -2.67667,0.88391 -5.80313,3.08834 -8.54211,2.5819 -2.73901,-0.50645 -5.42953,-1.13316 -8.06454,-1.8737 -2.635,-0.74056 -5.21448,-1.59501 -7.73139,-2.55695 -10.06762,-3.84776 -19.1341,-9.41552 -26.74822,-16.29567 -7.61412,-6.88013 -13.77591,-15.07259 -18.03417,-24.16971 -4.25823,-9.09711 -6.61294,-19.09887 -6.61294,-29.5976 0,-41.99487 37.67547,-76.03844 84.15052,-76.03844 46.47504,0 84.15051,34.04357 84.15051,76.03844 z"
       sodipodi:nodetypes="sssssssssssssssss" />
    <path
       style="fill:#ffffff;fill-opacity:1;stroke:#000000;stroke-width:1.01364px;stroke-linecap:butt;stroke-linejoin:miter;stroke-opacity:1"
       d="m 541.13877,668.87197 -2.83489,8.77466 8.50467,-2.69989 14.17445,-3.37487 9.17965,0.53998 8.77467,1.21496 4.04984,2.2949 -2.70412,-7.89483 -6.61052,-3.44473 -17.00934,-1.61993 z"
       id="path7516" />
    <path
       style="fill:#b76145;fill-opacity:1;stroke:#000000;stroke-width:3.04093;stroke-linecap:butt;stroke-linejoin:miter;stroke-miterlimit:4;stroke-dasharray:none;stroke-opacity:1"
       d="m 540.31434,670.66302 c 0,0 -3.72989,7.51758 -1.58955,6.47974 33.77234,-16.37602 46.89176,2.29492 44.90482,-2.83489 -1.98694,-5.1298 -3.24533,-7.7622 -3.24533,-7.7622 0,0 -20.9291,-9.65212 -40.06994,4.11735 z"
       id="path6941"
       sodipodi:nodetypes="csscc" />
    <path
       style="fill:#ffffff;fill-opacity:1;stroke:none;stroke-width:1.59352px;stroke-linecap:butt;stroke-linejoin:miter;stroke-opacity:1"
       d="m 490.66495,575.06508 c 0,0 -9.00919,6.23015 -4.29655,16.94863 4.71265,10.71846 4.29655,-16.94863 4.29655,-16.94863 z"
       id="path2946" />
    <path
       style="fill:#ffffff;fill-opacity:1;stroke:none;stroke-width:1.59352px;stroke-linecap:butt;stroke-linejoin:miter;stroke-opacity:1"
       d="m 488.05519,600.18052 c 9.93041,5.65657 -6.60476,9.97078 0,0 z"
       id="path2948" />
  </g>
  <g
     inkscape:groupmode="layer"
     id="layer12"
     inkscape:label="cat3">
    <path
       sodipodi:type="star"
       style="fill:#dedede;fill-opacity:1;stroke:none;stroke-width:7;stroke-miterlimit:4;stroke-dasharray:none;stroke-opacity:1"
       id="path154561"
       inkscape:flatsided="false"
       sodipodi:sides="15"
       sodipodi:cx="232.12936"
       sodipodi:cy="101.54828"
       sodipodi:r1="8.9942036"
       sodipodi:r2="7.9085808"
       sodipodi:arg1="0.47689187"
       sodipodi:arg2="0.67952983"
       inkscape:rounded="0.1"
       inkscape:randomized="0"
       d="m 240.12005,105.6768 c -0.0916,0.18029 -1.7107,0.68501 -1.83885,0.84145 -0.13431,0.16395 -0.36665,1.91816 -0.5312,2.05172 -0.15701,0.12745 -1.84143,-0.07 -2.02212,0.0208 -0.18938,0.0952 -1.11514,1.60319 -1.31979,1.65828 -0.19528,0.0526 -1.65375,-0.81293 -1.85575,-0.80349 -0.21171,0.01 -1.67081,1.01103 -1.88017,0.97811 -0.19977,-0.0314 -1.18013,-1.41529 -1.36851,-1.48882 -0.19742,-0.0771 -1.93757,0.24404 -2.11545,0.12881 -0.16973,-0.10994 -0.50245,-1.77293 -0.64463,-1.91673 -0.14901,-0.15071 -1.86933,-0.56514 -1.98496,-0.74276 -0.11033,-0.16947 0.26211,-1.82401 0.19071,-2.01321 -0.0748,-0.19829 -1.47785,-1.27661 -1.51125,-1.4859 -0.0319,-0.19969 0.98135,-1.55971 0.99307,-1.76159 0.0123,-0.21158 -0.83084,-1.767338 -0.77622,-1.972116 0.0521,-0.195393 1.53089,-1.02572 1.62372,-1.20538 0.0973,-0.188291 -0.0402,-1.952474 0.093,-2.117333 0.12709,-0.157303 1.81574,-0.314371 1.97362,-0.440743 0.16545,-0.132444 0.75744,-1.800013 0.94617,-1.896448 0.18007,-0.09201 1.78663,0.451336 1.98225,0.400102 0.20502,-0.05369 1.42409,-1.336313 1.63573,-1.347648 0.20193,-0.01082 1.44859,1.139003 1.64814,1.171766 0.20913,0.03434 1.8445,-0.641553 2.04244,-0.565829 0.18888,0.07225 0.86008,1.629726 1.02905,1.740821 0.1771,0.116432 1.94598,0.164138 2.09602,0.313828 0.14315,0.142829 0.12285,1.838653 0.23203,2.008872 0.11442,0.178395 1.71097,0.941447 1.78715,1.139221 0.0727,0.188707 -0.63561,1.729657 -0.60511,1.929567 0.032,0.20952 1.18014,1.55598 1.16929,1.76764 -0.0103,0.20195 -1.28419,1.32159 -1.33763,1.51662 -0.056,0.20441 0.44524,1.90146 0.34924,2.09041 z"
       inkscape:transform-center-x="0.65020737"
       inkscape:transform-center-y="0.39832758"
       transform="rotate(9.4166854,236.18105,185.1231)" />
    <path
       style="display:inline;fill:#dedede;fill-opacity:1;stroke:none;stroke-width:0.571626px;stroke-linecap:butt;stroke-linejoin:miter;stroke-opacity:1"
       d="m 270.64046,50.57457 c 0,0 -6.16422,-17.031551 -23.1778,-23.363461 0,0 -7.40981,23.512411 4.64505,36.255941 l 13.09198,-1.5098 z"
       id="path11218-4-9"
       sodipodi:nodetypes="ccccc" />
    <path
       style="display:inline;fill:#dedede;fill-opacity:1;stroke:none;stroke-width:0.571626px;stroke-linecap:butt;stroke-linejoin:miter;stroke-opacity:1"
       d="m 288.86323,49.89152 c 0,0 4.83712,-16.388421 21.63232,-23.278751 0,0 8.94352,22.417461 -2.68392,35.552161 l -13.13467,-1.07662 z"
       id="path11218-8"
       sodipodi:nodetypes="ccccc" />
    <path
       style="display:inline;fill:#eaa6b1;fill-opacity:1;stroke:none;stroke-width:0.364544px;stroke-linecap:butt;stroke-linejoin:miter;stroke-opacity:1"
       d="m 293.62908,48.13418 c 0,0 3.57027,-10.985431 14.28106,-15.379601 0,0 5.2181,14.830331 -2.1971,23.206731 l -8.37637,-0.6866 z"
       id="path11218-3-54"
       sodipodi:nodetypes="ccccc" />
    <path
       style="display:inline;fill:#eaa6b1;fill-opacity:1;stroke:none;stroke-width:0.346606px;stroke-linecap:butt;stroke-linejoin:miter;stroke-opacity:1"
       d="m 264.78112,49.25754 c 0,0 -3.39459,-10.444881 -13.57835,-14.622831 0,0 -4.96131,14.100581 2.08898,22.064811 l 7.96422,-0.65281 z"
       id="path11218-3-7-9"
       sodipodi:nodetypes="ccccc" />
    <path
       style="display:inline;fill:#dedede;fill-opacity:1;stroke:none;stroke-width:0.571626px;stroke-linecap:butt;stroke-linejoin:miter;stroke-opacity:1"
       d="m 242.13816,86.14782 c 0,0 -0.10748,-2.72067 0.35029,-6.79438 0.45778,-4.07372 1.53551,-10.15782 4.50315,-15.2172 3.17461,-5.4122 6.06467,-9.13502 11.47453,-13.15048 5.40985,-4.01546 12.74132,-6.08114 22.64549,-5.96462 9.15123,0.10766 13.96907,2.98761 19.11664,6.76249 5.14756,3.77488 9.44055,9.09065 11.72837,14.07 2.28782,4.97935 3.53937,7.36135 4.11133,11.0824 0.57195,3.72105 0.57195,6.19726 0.57195,6.19726 0,0 -1.90975,2.69214 -5.73892,5.97852 -3.7564,3.2239 -5.48035,4.48101 -11.96693,7.57628 -6.4866,3.095262 -18.95395,5.13582 -28.05807,3.37959 -9.10413,-1.75622 -17.43338,-3.04605 -28.73783,-13.91986 z"
       id="path1053-1"
       sodipodi:nodetypes="cssssssscsssc" />
    <path
       id="path2238-6-4"
       style="display:inline;opacity:0.967427;fill:#ffffff;fill-opacity:1;stroke-width:3.42976"
       d="m 304.68428,74.2538 a 9.1460281,9.1460281 0 0 1 -9.14603,9.14604 9.1460281,9.1460281 0 0 1 -9.14603,-9.14604 9.1460281,9.1460281 0 0 1 9.14603,-9.14602 9.1460281,9.1460281 0 0 1 9.14603,9.14602 z" />
    <circle
       style="display:inline;fill:#000000;fill-opacity:1;stroke:none;stroke-width:3.42976"
       id="path2238-6-3-3"
       cx="293.98257"
       cy="74.718063"
       r="6.8595209" />
    <path
       style="display:inline;fill:#eaa6b1;fill-opacity:1;stroke:none;stroke-width:0.722247px;stroke-linecap:butt;stroke-linejoin:miter;stroke-opacity:1"
       d="m 279.07787,87.69271 c 0,0 5.87571,-3.33988 4.12227,-4.06487 -0.91603,-0.37873 -1.97712,-0.65333 -3.77101,-0.64859 -1.79391,0.005 -4.32064,0.51604 -4.25957,0.72437 0.12212,0.41662 1.29138,2.78154 3.53821,3.80745 z"
       id="path9425-7"
       sodipodi:nodetypes="cssscc" />
    <path
       style="display:inline;fill:#dedede;fill-opacity:1;stroke:none;stroke-width:0.571626px;stroke-linecap:butt;stroke-linejoin:miter;stroke-opacity:1"
       d="m 242.13816,86.14782 -1.99173,-3.01452 1.3996,-1.29194 -1.02279,-2.58387 1.66876,-1.66876 -1.07662,-2.69153 1.99174,-1.13045 -0.75363,-3.98347 2.26088,-0.96896 -0.75362,-3.87581 2.31472,-0.53831 0.16149,-4.95242 4.03731,-0.48447 0.26915,-3.39134 2.6377,-0.37682 0.37682,-2.42238 2.58387,-0.37682 0.69981,-3.12218 2.90685,0.26915 1.50727,-2.6377 3.17601,0.48447 1.56109,-2.42238 3.22984,0.59214 2.36855,-2.31472 1.66876,1.23811 1.56109,-0.91512 1.66875,0.86129 2.47622,-1.13045 1.45343,1.07661 1.9379,-1.50726 1.3996,1.5611 2.90686,-0.96896 0.91512,1.29194 2.31472,-0.53831 1.13045,1.61493 2.15322,0.10766 0.96896,1.50726 3.12218,-0.43065 0.32298,2.26089 h 2.79921 l 0.10765,2.04557 2.31473,-0.16149 0.26917,2.20705 1.6149,0.26916 0.32299,1.50726 2.36852,1.29193 v 1.83025 l 2.36858,0.37681 0.10765,2.42239 1.66877,0.43065 -0.21534,1.88407 1.29195,1.07661 v 1.83025 l 1.29192,0.75363 -0.16148,1.5611 1.45344,0.48447 -0.37682,2.04557 1.29191,0.64596 -0.43063,1.77642 1.45343,1.50726 -0.80745,1.99174 1.45343,0.86129 -0.80745,1.3996 0.86127,0.96895 -0.96897,1.18427 0.91515,1.34578 -2.79922,0.96895 -2.26088,-10.17401 -7.96695,-11.57361 -8.39758,-9.47421 -17.27966,-4.89859 -13.45768,5.00626 -16.79519,11.89659 -4.09113,12.21958 z"
       id="path13374-1" />
    <path
       style="display:inline;fill:#ffffff;fill-opacity:1;stroke:#ffffff;stroke-width:0.640133px;stroke-linecap:butt;stroke-linejoin:miter;stroke-opacity:1"
       d="m 241.04895,82.09501 c -10.49574,-18.18155 -3.62647,-40.20625 -3.62647,-40.20625 0,0 -11.0345,22.97027 3.62647,40.20625 z"
       id="path886-4-0" />
    <path
       style="display:inline;fill:#ffffff;fill-opacity:1;stroke:#ffffff;stroke-width:0.565502px;stroke-linecap:butt;stroke-linejoin:miter;stroke-opacity:1"
       d="m 320.52151,44.35825 c 4.51185,19.77216 -5.22536,38.6879 -5.22536,38.6879 0,0 13.15984,-18.73259 5.22536,-38.6879 z"
       id="path886-6" />
    <path
       style="display:inline;fill:#dedede;fill-opacity:1;stroke:none;stroke-width:0.53939px;stroke-linecap:butt;stroke-linejoin:miter;stroke-opacity:1"
       d="m 242.13816,85.81739 0.76014,2.83666 3.65416,0.54227 0.3045,2.84691 h 3.04513 l 0.91354,2.71134 3.34964,-0.27113 1.67482,2.44021 3.80641,-0.8134 2.28384,2.440202 1.82707,-1.355662 2.28385,1.897942 3.95867,-0.813412 2.28384,1.89794 4.41543,-0.948958 5.78574,1.220088 2.74062,-1.355658 3.95865,1.220098 2.28385,-2.44021 3.65415,0.4067 1.67482,-1.89794 h 4.26318 l 1.67483,-2.30464 2.89287,-0.4067 2.13159,-2.30465 3.5019,-0.8134 0.91351,-2.57578 2.58834,-0.13556 0.5329,-2.50799 1.97935,-0.67785 -0.63559,-1.52152 -8.72818,1.18261 -9.59213,6.91393 -20.70686,2.16908 z"
       id="path13642-3" />
    <path
       style="display:inline;fill:#dedede;fill-opacity:1;stroke:none;stroke-width:0.571626px;stroke-linecap:butt;stroke-linejoin:miter;stroke-opacity:1"
       d="m 247.46266,27.211109 -1.51923,-0.83539 0.45677,3.34963 -1.75095,1.44644 0.83741,2.13158 -1.82707,3.12126 1.14192,1.97933 -0.98967,3.578021 0.83741,2.4361 -0.76128,2.13159 0.91354,2.51223 -0.68516,1.9032 1.67482,1.75095 -0.30451,2.13159 1.59869,1.52256 1.0658,3.27351 4.03479,0.83741 -6.16638,-20.021701 2.43609,-8.52635 z"
       id="path14301-4" />
    <path
       style="display:inline;fill:#dedede;fill-opacity:1;stroke:none;stroke-width:0.571626px;stroke-linecap:butt;stroke-linejoin:miter;stroke-opacity:1"
       d="m 267.71608,47.31096 0.5329,-3.42577 -1.44644,-1.14192 -0.0761,-2.283851 -3.04512,-1.97933 -1.14192,-2.58835 -2.81675,-1.37032 -0.38063,-1.67481 -2.20772,-0.76129 -1.52257,-1.9032 -2.51222,-0.38064 -1.21805,-2.35997 -2.03643,0.22839 -2.38234,-0.45879 7.84454,5.78775 6.85153,7.00379 z"
       id="path14658-8"
       sodipodi:nodetypes="ccccccccccccccccc" />
    <path
       style="display:inline;fill:#dedede;fill-opacity:1;stroke:none;stroke-width:0.571626px;stroke-linecap:butt;stroke-linejoin:miter;stroke-opacity:1"
       d="m 291.12413,45.82861 -0.18897,-3.69437 2.51223,-1.674821 v -2.05546 l 2.28384,-1.14192 0.45677,-2.58836 2.20772,-0.76128 0.60902,-2.20772 2.35998,-0.45677 1.21804,-2.43609 2.20773,0.22838 1.37031,-2.81674 2.13159,0.98967 0.72318,-1.56063 1.56065,2.32191 2.4361,0.95159 -0.68513,0.79935 1.90316,0.60903 -0.91351,2.81674 1.37031,0.98966 -0.76127,2.51223 1.0658,1.52257 -0.60905,2.20771 1.0658,1.979331 -1.0658,1.44643 1.14194,2.81675 -1.29422,0.91354 0.76133,1.52256 -1.37032,1.37031 0.30452,1.59869 -0.9897,1.3703 v 1.90321 l -1.14189,0.76128 v 2.35997 l -4.26318,1.75095 3.27348,-6.69928 1.97935,-10.20117 -1.37031,-11.190841 -0.83741,-4.11091 -4.71994,3.2735 -11.19084,10.429561 z"
       id="path14897-1"
       sodipodi:nodetypes="cccccccccccccccccccccccccccccccccccccccccc" />
    <path
       style="display:inline;fill:#ffffff;fill-opacity:1;stroke:none;stroke-width:0.570735px;stroke-linecap:butt;stroke-linejoin:miter;stroke-opacity:1"
       d="m 280.19258,67.98284 c 0,0 -0.69198,1.8363 -2.18313,-0.13972 -1.49114,-1.97603 -2.72886,-9.34519 -0.18516,-9.7404 2.54371,-0.39519 6.59634,0.48974 2.36829,9.88012 z"
       id="path15524-3"
       sodipodi:nodetypes="cssc" />
    <path
       style="display:inline;fill:#ffffff;fill-opacity:1;stroke:none;stroke-width:0.565524px;stroke-linecap:butt;stroke-linejoin:miter;stroke-opacity:1"
       d="m 282.32351,66.86962 c 0,0 1.84499,-4.33935 2.44928,-4.75248 1.06654,-0.72917 2.6628,-0.61037 2.3475,1.20728 -0.31532,1.81765 -4.93907,5.70246 -4.79678,3.5452 z"
       id="path15986-6"
       sodipodi:nodetypes="cssc" />
    <path
       style="display:inline;fill:#ffffff;fill-opacity:1;stroke:none;stroke-width:0.565524px;stroke-linecap:butt;stroke-linejoin:miter;stroke-opacity:1"
       d="m 275.96838,66.86373 c 0,0 -1.8395,-4.63233 -2.63959,-5.13312 -0.6205,-0.38837 -2.47248,-0.22973 -2.15719,1.58792 0.31533,1.81765 4.67262,5.70246 4.79678,3.5452 z"
       id="path15986-3-09"
       sodipodi:nodetypes="cssc" />
    <path
       style="display:inline;fill:#dedede;fill-opacity:1;stroke:none;stroke-width:0.571626px;stroke-linecap:butt;stroke-linejoin:miter;stroke-opacity:1"
       d="m 269.99993,98.27932 c 0,0 -10.76655,21.92948 -10.76655,45.83032 0,23.90085 32.46175,22.85429 42.63394,15.71858 14.4266,-10.12018 -8.3557,-57.08116 -12.68311,-63.85354 -4.3274,-6.77238 -19.18428,2.30464 -19.18428,2.30464 z"
       id="path19917-8"
       sodipodi:nodetypes="csssc" />
    <path
       id="path24115-8"
       style="display:inline;fill:none;stroke:#000000;stroke-width:5.14465;stroke-miterlimit:4;stroke-dasharray:none;stroke-opacity:1"
       d="m 325.75452,58.73263 c 0,5.92059 -1.32789,11.56092 -3.72927,16.69109 -2.40138,5.13018 -5.8762,9.75018 -10.17007,13.63012 -4.29386,3.87995 -9.40676,7.01979 -15.08423,9.18968 -1.41937,0.542472 -2.87402,1.024322 -4.35999,1.441952 -1.48597,0.417608 -2.54691,-0.55725 -4.09153,-1.11396 -1.46736,-0.528872 -2.37938,-0.792482 -4.22042,-1.034852 -1.5871,-0.20894 -3.52991,-0.23217 -6.15085,0.38337 -1.58746,0.37282 -2.48445,0.734932 -4.39568,1.366062 -1.50946,0.49847 -3.27258,1.741618 -4.81718,1.456018 -1.54462,-0.2856 -3.0619,-0.63903 -4.54787,-1.056638 -1.48597,-0.41763 -2.94062,-0.89948 -4.35999,-1.441952 -5.67748,-2.16989 -10.79037,-5.30973 -15.08423,-9.18968 -4.29386,-3.87994 -7.7687,-8.49995 -10.17008,-13.63012 -2.40136,-5.13017 -3.72926,-10.7705 -3.72926,-16.69109 0,-23.682331 21.24647,-42.88065 47.45533,-42.88065 26.20885,0 47.45532,19.198319 47.45532,42.88065 z"
       sodipodi:nodetypes="sssssssssssssssss" />
    <path
       style="display:inline;fill:#ffffff;fill-opacity:1;stroke:#000000;stroke-width:0.571626px;stroke-linecap:butt;stroke-linejoin:miter;stroke-opacity:1"
       d="m 269.16252,101.13355 -1.5987,4.94833 4.79608,-1.52256 7.99345,-1.90321 5.17671,0.30452 4.94834,0.68515 2.28384,1.29417 -1.52495,-4.45216 -3.72789,-1.942598 -9.59214,-0.913532 z"
       id="path7516-5" />
    <path
       style="display:inline;fill:#aa2757;fill-opacity:1;stroke:#000000;stroke-width:1.71488;stroke-linecap:butt;stroke-linejoin:miter;stroke-miterlimit:4;stroke-dasharray:none;stroke-opacity:1"
       d="m 268.69759,102.14358 c 0,0 -2.10341,4.23942 -0.8964,3.65415 19.04537,-9.235 26.44385,1.29418 25.32335,-1.59869 -1.1205,-2.89287 -1.83015,-4.377368 -1.83015,-4.377368 0,0 -11.80263,-5.443162 -22.5968,2.321908 z"
       id="path6941-1"
       sodipodi:nodetypes="csscc" />
    <path
       style="display:inline;fill:#ffffff;fill-opacity:1;stroke:none;stroke-width:0.89864px;stroke-linecap:butt;stroke-linejoin:miter;stroke-opacity:1"
       d="m 240.69862,48.23267 c 0,0 -5.08059,3.51339 -2.42297,9.5579 2.65762,6.04451 2.42297,-9.5579 2.42297,-9.5579 z"
       id="path2946-6" />
    <path
       style="display:inline;fill:#ffffff;fill-opacity:1;stroke:none;stroke-width:0.89864px;stroke-linecap:butt;stroke-linejoin:miter;stroke-opacity:1"
       d="m 239.22689,62.39611 c 5.60009,3.18993 -3.72465,5.62286 0,0 z"
       id="path2948-9" />
    <rect
       style="fill:#dedede;fill-opacity:1;stroke:none;stroke-width:2.58685;stroke-miterlimit:4;stroke-dasharray:none;stroke-opacity:1"
       id="rect68564"
       width="21.114981"
       height="9.0528517"
       x="186.72133"
       y="207.21761"
       transform="matrix(0.85231017,-0.52303669,0.58498563,0.81104366,0,0)" />
    <path
       id="path2238-6-4-7"
       style="display:inline;opacity:0.967427;fill:#ffffff;fill-opacity:1;stroke-width:3.42976"
       d="m 253.45968,74.45685 a 9.1460281,9.1460281 0 0 0 9.14603,9.14603 9.1460281,9.1460281 0 0 0 9.14603,-9.14603 9.1460281,9.1460281 0 0 0 -9.14603,-9.14603 9.1460281,9.1460281 0 0 0 -9.14603,9.14603 z" />
    <circle
       style="display:inline;fill:#000000;fill-opacity:1;stroke:none;stroke-width:3.42976"
       id="path2238-6-3-3-7"
       cx="-264.16144"
       cy="74.921127"
       r="6.8595209"
       transform="scale(-1,1)" />
    <rect
       style="fill:#dedede;fill-opacity:1;stroke:none;stroke-width:2.58685;stroke-miterlimit:4;stroke-dasharray:none;stroke-opacity:1"
       id="rect68564-6"
       width="21.114981"
       height="9.0528517"
       x="-267.33435"
       y="-85.349625"
       transform="matrix(-0.85231017,-0.52303669,-0.58498563,0.81104366,0,0)" />
    <path
       style="display:inline;fill:#ffffff;fill-opacity:1;stroke:none;stroke-width:0.463235px;stroke-linecap:butt;stroke-linejoin:miter;stroke-opacity:1"
       d="m 259.43273,76.10128 c 0,0 1.18354,1.26931 1.71575,-0.30143 0.21301,-0.62863 -1.12374,-1.43467 -0.27256,-2.31071 0.85118,-0.87604 0.10029,-1.60562 -0.63817,-1.47159 -0.73846,0.13403 -3.06067,1.61379 -0.80501,4.08373 z"
       id="path6493-8-5"
       sodipodi:nodetypes="csssc" />
    <path
       style="display:inline;fill:#ffffff;fill-opacity:1;stroke:none;stroke-width:0.463235px;stroke-linecap:butt;stroke-linejoin:miter;stroke-opacity:1"
       d="m 297.82705,71.56126 c 0,0 -1.65962,-0.50752 -1.3352,1.1189 0.12982,0.65091 1.6905,0.68063 1.39134,1.86488 -0.29914,1.18426 0.71593,1.44068 1.28846,0.95539 0.57252,-0.48529 1.84379,-2.92787 -1.34462,-3.93916 z"
       id="path6493-8-5-4"
       sodipodi:nodetypes="csssc" />
    <path
       style="fill:#ffffff;fill-opacity:1;stroke:none;stroke-width:1px;stroke-linecap:butt;stroke-linejoin:miter;stroke-opacity:1"
       d="m 268.9531,133.5776 c 0,0 -3.05539,-16.27565 5.52689,-21.90779 4.2617,-2.79675 10.33965,-3.1096 15.24889,0.66589 3.34365,2.57146 8.37002,18.75979 4.2617,26.43584 l -2.53039,4.72782 z"
       id="path152204"
       sodipodi:nodetypes="cssscc" />
    <path
       style="fill:#dedede;fill-opacity:1;stroke:none;stroke-width:1.20446px;stroke-linecap:butt;stroke-linejoin:miter;stroke-opacity:1"
       d="m 250.44248,105.99961 c 0,0 -4.84296,14.26034 2.38653,21.29093 7.22947,7.03059 2.75655,15.6003 1.55231,16.45788 -1.20423,0.85758 -2.39976,-7.40744 -2.39976,-7.40744 l -12.76288,15.63826 4.49221,-7.95074 c 0,0 15.62907,-1.61731 3.23363,-17.29798 -4.08788,-5.17134 -2.73701,-11.80742 -0.97566,-21.31382 z"
       id="path162942"
       sodipodi:nodetypes="csscccscc" />
  </g>
  <g
     inkscape:groupmode="layer"
     id="layer14"
     inkscape:label="flag"
     style="display:inline" />
  <g
     inkscape:groupmode="layer"
     id="layer13"
     inkscape:label="rocketdust"
     style="display:inline">
    <rect
       style="display:inline;fill:#ffffff;fill-opacity:1;stroke:none;stroke-width:3.447;stroke-miterlimit:4;stroke-dasharray:none;stroke-opacity:1"
       id="rect78404"
       width="26.367912"
       height="12.807271"
       x="-444.07935"
       y="186.26755"
       transform="rotate(-77.466478)" />
    <rect
       style="display:inline;fill:#ffffff;fill-opacity:1;stroke:none;stroke-width:3.447;stroke-miterlimit:4;stroke-dasharray:none;stroke-opacity:1"
       id="rect78404-1"
       width="26.367912"
       height="12.807271"
       x="-364.82501"
       y="241.08463"
       transform="rotate(-69.227224)" />
    <rect
       style="display:inline;fill:#ffffff;fill-opacity:1;stroke:none;stroke-width:3.447;stroke-miterlimit:4;stroke-dasharray:none;stroke-opacity:1"
       id="rect78404-3"
       width="26.367912"
       height="12.807271"
       x="-286.91425"
       y="274.74384"
       transform="rotate(-62.737984)" />
    <rect
       style="display:inline;fill:#ffffff;fill-opacity:1;stroke:none;stroke-width:3.447;stroke-miterlimit:4;stroke-dasharray:none;stroke-opacity:1"
       id="rect78404-3-5"
       width="26.367912"
       height="12.807271"
       x="-216.15044"
       y="294.04068"
       transform="rotate(-57.943217)" />
    <rect
       style="display:inline;fill:#ffffff;fill-opacity:1;stroke:none;stroke-width:3.447;stroke-miterlimit:4;stroke-dasharray:none;stroke-opacity:1"
       id="rect78404-3-5-4"
       width="26.367912"
       height="12.807271"
       x="-143.80106"
       y="309.56021"
       transform="rotate(-52.449211)" />
  </g>
  <g
     inkscape:groupmode="layer"
     id="layer3"
     inkscape:label="clouds"
     style="display:inline">
    <path
       id="rect940-8"
       style="display:inline;fill:#fff9cb;fill-opacity:1;stroke-width:12"
       d="m 800,275.85938 c -51.27894,50.39935 -19.21868,81.59618 -19.21868,81.59618 -78.76586,30.39932 -21.5528,115.40186 -21.5528,115.40186 29.44974,49.95091 -90.36679,37.65754 -49.17704,157.51668 C 621.71228,663.34526 652.46134,763.83427 566.5984,765.6659 501.39662,767.05678 437.16456,678.67042 354.80469,706.86523 323.24442,636.2697 246.70313,675.06836 246.70312,675.06836 271.33854,589.43479 189.70703,589.64062 189.70703,589.64062 48.766684,580.02833 163.22394,475.17367 76.130859,456.3418 76.159012,382.8531 18.841373,371.93621 0,370.28125 V 800 h 800 z"
       sodipodi:nodetypes="ccccscccccccc" />
    <path
       id="rect940-8-7"
       style="display:inline;fill:#f6efb2;fill-opacity:1;stroke-width:12"
       d="M 638.49414 740.91211 C 636.223 740.9012 634.14233 741.86268 632.95898 743.23047 C 629.76828 746.91849 618.06165 777.18379 646.13477 800 L 659.625 800 C 654.38281 789.73012 648.08357 774.45762 648.69531 761.13086 C 649.4052 745.66606 643.49065 740.93611 638.49414 740.91211 z " />
    <path
       id="rect940-8-1"
       style="display:inline;fill:#f6efb2;fill-opacity:1;stroke-width:12"
       d="M 800 485.25977 C 773.87112 513.17417 738.65613 531.09113 727.68555 580.12305 C 718.04255 623.2215 746.95813 631.46212 738.33984 655.23633 C 726.59956 687.62276 673.34858 682.93672 661.62891 724.48828 C 653.18774 754.41605 665.24613 785.05762 672.68945 800 L 800 800 L 800 485.25977 z " />
    <path
       id="rect940-8-2"
       style="display:inline;fill:#f6efb2;fill-opacity:1;stroke-width:12"
       d="M 23.373047 606.2793 C 15.136012 606.032 7.3107421 607.79359 0 610.77148 L 0 800 L 410.66406 800 C 444.21337 789.02855 465.1269 773.6778 453.87109 752.18945 C 418.71208 685.0677 283.40309 838.48871 237.58984 726.61914 C 191.77658 614.74957 171.53424 639.25501 183.25391 665.89062 C 194.97358 692.52625 150.22427 730.88043 79.90625 641.38477 C 60.129307 616.21411 40.858715 606.80427 23.373047 606.2793 z " />
    <path
       style="fill:#f6efb2;fill-opacity:1;stroke:none;stroke-width:1px;stroke-linecap:butt;stroke-linejoin:miter;stroke-opacity:1"
       d="m 274.23752,742.49468 c 0,0 14.4399,-12.42197 16.87244,-25.67729 2.43254,-13.25532 17.11598,-2.75527 17.14069,3.65938 0.0317,8.22685 0.5195,13.96833 -34.01313,22.01791 z"
       id="path141760"
       sodipodi:nodetypes="cssc" />
  </g>
  <g
     inkscape:groupmode="layer"
     id="layer8"
     inkscape:label="cloud specks"
     style="display:inline">
    <path
       style="display:inline;fill:#fff9cb;fill-opacity:1;stroke:none;stroke-width:0.678054px;stroke-linecap:butt;stroke-linejoin:miter;stroke-opacity:1"
       d="m 122.69119,536.16987 c 0,0 18.39804,18.87947 35.72123,21.79558 17.32319,2.9161 15.02055,12.78085 11.05944,14.94782 -3.96111,2.16696 -38.44402,7.32074 -46.78067,-36.7434 z"
       id="path4749" />
    <path
       style="display:inline;fill:#f6efb2;fill-opacity:1;stroke:none;stroke-width:0.870381px;stroke-linecap:butt;stroke-linejoin:miter;stroke-opacity:1"
       d="m 274.09147,750.98342 c 0,0 33.18842,-6.60169 48.44168,-23.20973 15.25327,-16.60804 24.26176,-7.23088 23.82431,-1.45163 -0.43744,5.77925 -19.00393,46.50193 -72.26599,24.66136 z"
       id="path4749-2" />
  </g>
  <g
     inkscape:groupmode="layer"
     id="layer4"
     inkscape:label="cloud swirls" />
  <g
     inkscape:groupmode="layer"
     id="layer9"
     inkscape:label="rocket"
     style="display:inline">
    <path
       style="fill:#cd7132;fill-opacity:1;stroke:none;stroke-width:0.61994px;stroke-linecap:butt;stroke-linejoin:miter;stroke-opacity:1"
       d="m 174.00594,291.5741 c -4.91996,-80.0418 47.00814,-83.24186 47.00814,-83.24186 l 34.26037,33.57352 c 0,0 -7.674,52.87061 -81.26851,49.66834"
       id="path13254"
       sodipodi:nodetypes="cccc" />
    <path
       style="fill:#cd8c32;fill-opacity:1;stroke:none;stroke-width:0.389642px;stroke-linecap:butt;stroke-linejoin:miter;stroke-opacity:1"
       d="m 189.75449,274.89628 c -3.09228,-50.30755 29.54537,-52.31884 29.54537,-52.31884 l 21.53319,21.10151 c 0,0 -4.82322,33.23003 -51.07856,31.21733"
       id="path13254-9"
       sodipodi:nodetypes="cccc" />
    <path
       style="fill:#bb563d;fill-opacity:1;stroke:none;stroke-width:0.254302px;stroke-linecap:butt;stroke-linejoin:miter;stroke-opacity:1"
       d="m 290.92204,136.91787 -29.54328,-11.00625 -69.54954,52.35951 24.19285,13.73668 z"
       id="path2292" />
    <path
       style="fill:#bb563d;fill-opacity:1;stroke:none;stroke-width:0.254302px;stroke-linecap:butt;stroke-linejoin:miter;stroke-opacity:1"
       d="m 328.01998,171.07887 11.21724,29.46391 -51.86101,69.92206 -13.90928,-24.09404 z"
       id="path2292-5" />
    <path
       style="fill:#637580;fill-opacity:1;stroke:none;stroke-width:0.254302px;stroke-linecap:butt;stroke-linejoin:miter;stroke-opacity:1"
       d="m 216.02207,192.00781 c 0,0 145.20022,-125.828775 164.89235,-106.798329 20.391,19.705789 -103.8162,157.447059 -107.79784,161.866249 -22.9451,25.46599 -80.1421,-36.19996 -57.09451,-55.06792 z"
       id="path897"
       sodipodi:nodetypes="cssc" />
    <path
       id="path897-7"
       style="fill:#718591;fill-opacity:1;stroke:none;stroke-width:0.254302px;stroke-linecap:butt;stroke-linejoin:miter;stroke-opacity:1"
       d="M 380.91469,85.209091 227.73673,236.56903 c 14.25783,14.3489 34.01603,23.11919 45.38028,10.50641 3.98165,-4.41919 128.18868,-142.16056 107.79768,-161.866349 z" />
    <path
       id="path897-6"
       style="fill:#bb563d;fill-opacity:1;stroke:none;stroke-width:0.254302px;stroke-linecap:butt;stroke-linejoin:miter;stroke-opacity:1"
       d="m 380.91444,85.209561 c -6.34545,-6.132227 -25.74623,2.81269 -49.09811,17.706199 5.52484,8.30181 15.14595,18.97775 32.09511,30.48131 14.89821,-22.78873 23.64705,-41.766695 17.003,-48.187509 z" />
    <path
       style="fill:#bb563d;fill-opacity:1;stroke:none;stroke-width:0.254302px;stroke-linecap:butt;stroke-linejoin:miter;stroke-opacity:1"
       d="m 213.54389,250.22922 c 54.80991,-102.50191 85.91735,-82.68836 85.91735,-82.68836 0,0 16.59387,32.89317 -85.91735,82.68836 z"
       id="path2495"
       sodipodi:nodetypes="ccc" />
    <path
       id="path2495-0"
       style="display:inline;fill:#cc5e43;fill-opacity:1;stroke:none;stroke-width:0.254302px;stroke-linecap:butt;stroke-linejoin:miter;stroke-opacity:1"
       d="M 297.96289 166.875 L 213.54297 250.22852 C 316.05419 200.43333 299.46094 167.54102 299.46094 167.54102 C 299.46094 167.54102 298.94984 167.22273 297.96289 166.875 z " />
    <circle
       style="fill:#2e3f4a;fill-opacity:1;stroke:#d2981b;stroke-width:5.13496;stroke-opacity:1"
       id="path10502"
       cx="330.80688"
       cy="-124.85058"
       r="17.116468"
       transform="rotate(44.795194)" />
    <path
       id="path10502-2"
       style="fill:#485862;fill-opacity:1;stroke:none;stroke-width:4.3795;stroke-opacity:1"
       d="m 337.06585,142.08415 -28.75902,4.59254 a 14.598317,14.598317 0 0 0 5.94525,9.66794 14.598317,14.598317 0 0 0 20.35187,-3.46353 14.598317,14.598317 0 0 0 2.4619,-10.79695 z" />
  </g>
  <g
     inkscape:groupmode="layer"
     id="layer15"
     inkscape:label="planet">
    <circle
       style="fill:#82bbab;fill-opacity:1;stroke:none;stroke-width:4.88648;stroke-miterlimit:4;stroke-dasharray:none;stroke-opacity:1"
       id="path225967"
       cx="692.60797"
       cy="80.604141"
       r="8.3768101" />
    <circle
       style="fill:none;fill-opacity:1;stroke:#82bbab;stroke-width:2;stroke-miterlimit:4;stroke-dasharray:none;stroke-opacity:1"
       id="path225969"
       cx="692.46448"
       cy="80.128845"
       r="14.633471" />
    <circle
       style="fill:#d7d220;fill-opacity:1;stroke:none;stroke-width:2.88493;stroke-miterlimit:4;stroke-dasharray:none;stroke-opacity:1"
       id="path225967-7"
       cx="59.977551"
       cy="163.38498"
       r="4.94558" />
    <circle
       style="fill:none;fill-opacity:1;stroke:#d7d220;stroke-width:1.18078;stroke-miterlimit:4;stroke-dasharray:none;stroke-opacity:1"
       id="path225969-7"
       cx="59.892834"
       cy="163.10437"
       r="8.6394472" />
    <circle
       style="fill:#bb563d;fill-opacity:1;stroke:none;stroke-width:2.88493;stroke-miterlimit:4;stroke-dasharray:none;stroke-opacity:1"
       id="path225967-7-8"
       cx="405.02051"
       cy="37.949051"
       r="4.94558" />
    <circle
       style="fill:none;fill-opacity:1;stroke:#bb563d;stroke-width:1.18078;stroke-miterlimit:4;stroke-dasharray:none;stroke-opacity:1"
       id="path225969-7-2"
       cx="404.93579"
       cy="37.668442"
       r="8.6394472" />
  </g>
</svg>
