<?xml version="1.0" encoding="UTF-8" standalone="no"?>
<!-- Created with Inkscape (http://www.inkscape.org/) -->

<svg
   width="800px"
   height="800px"
   viewBox="0 0 800 800"
   version="1.1"
   id="SVGRoot"
   sodipodi:docname="elephant-rachana.svg"
   inkscape:version="1.1.2 (b8e25be833, 2022-02-05)"
   xmlns:inkscape="http://www.inkscape.org/namespaces/inkscape"
   xmlns:sodipodi="http://sodipodi.sourceforge.net/DTD/sodipodi-0.dtd"
   xmlns="http://www.w3.org/2000/svg"
   xmlns:svg="http://www.w3.org/2000/svg">
  <sodipodi:namedview
     id="namedview829"
     pagecolor="#ffffff"
     bordercolor="#eeeeee"
     borderopacity="1"
     inkscape:pageshadow="0"
     inkscape:pageopacity="0"
     inkscape:pagecheckerboard="0"
     inkscape:document-units="px"
     showgrid="false"
     inkscape:zoom="0.938593"
     inkscape:cx="361.71163"
     inkscape:cy="396.87064"
     inkscape:window-width="1920"
     inkscape:window-height="1111"
     inkscape:window-x="-9"
     inkscape:window-y="-9"
     inkscape:window-maximized="1"
     inkscape:current-layer="layer8" />
  <defs
     id="defs824" />
  <g
     inkscape:label="background"
     inkscape:groupmode="layer"
     id="layer1"
     style="display:inline">
    <rect
       style="fill:#f2fcff;fill-opacity:1;stroke-width:2"
       id="rect936"
       width="800"
       height="800"
       x="0"
       y="0" />
  </g>
  <g
     inkscape:groupmode="layer"
     id="layer3"
     inkscape:label="hill">
    <path
       id="rect936-7"
       style="display:inline;fill:#bccca6;fill-opacity:1;stroke-width:2"
       d="M 627.61523 594.55273 C 382.42462 591.55312 241.76149 700.30285 164.39258 800 L 798.93555 800 L 798.93555 612.99219 C 736.86651 601.02165 679.83095 595.19153 627.61523 594.55273 z " />
    <path
       style="fill:#a6b78d;fill-opacity:1;stroke:none;stroke-width:1px;stroke-linecap:butt;stroke-linejoin:miter;stroke-opacity:1"
       d="m 178.54843,809.1182 c 0,0 210.16558,-325.95556 620.38712,-196.12601 l -1.11788,15.31748 C 561.43109,560.07323 285.92398,658.9931 181.93428,830.06656 c -8.26115,8.3203 4.68932,-30.03587 -3.38585,-20.94836 z"
       id="path26754"
       sodipodi:nodetypes="ccccc" />
    <path
       style="fill:#a6b78d;fill-opacity:1;stroke:none;stroke-width:1px;stroke-linecap:butt;stroke-linejoin:miter;stroke-opacity:1"
       d="m 739.14209,583.15249 c 0,0 -6.21228,27.34017 2.43526,19.79727 8.64753,-7.54288 2.41852,-29.28167 -2.43526,-19.79727 z"
       id="path33526" />
    <path
       style="fill:#a6b78d;fill-opacity:1;stroke:none;stroke-width:1px;stroke-linecap:butt;stroke-linejoin:miter;stroke-opacity:1"
       d="m 757.88912,585.8609 c 0,0 -14.31401,15.06738 -8.28706,17.32749 6.02695,2.2601 24.10781,-16.57412 8.28706,-17.32749 z"
       id="path33528" />
    <path
       style="fill:#a6b78d;fill-opacity:1;stroke:none;stroke-width:1px;stroke-linecap:butt;stroke-linejoin:miter;stroke-opacity:1"
       d="m 447.15657,599.07823 c 0,0 1.77473,20.7067 7.46471,17.69733 5.68998,-3.00937 3.59655,-29.03365 -7.46471,-17.69733 z"
       id="path33528-1" />
    <path
       style="fill:#a6b78d;fill-opacity:1;stroke:none;stroke-width:1px;stroke-linecap:butt;stroke-linejoin:miter;stroke-opacity:1"
       d="m 294.10086,674.38727 c 0,0 3.04242,27.87151 -4.68502,19.38848 -7.72745,-8.48301 0.94861,-29.36607 4.68502,-19.38848 z"
       id="path33526-1" />
    <path
       style="fill:#a6b78d;fill-opacity:1;stroke:none;stroke-width:1px;stroke-linecap:butt;stroke-linejoin:miter;stroke-opacity:1"
       d="m 278.03256,683.24354 c 0,0 14.31401,15.06738 8.28706,17.32749 -6.02695,2.2601 -24.10781,-16.57412 -8.28706,-17.32749 z"
       id="path33528-7" />
    <path
       style="fill:#a6b78d;fill-opacity:1;stroke:none;stroke-width:1px;stroke-linecap:butt;stroke-linejoin:miter;stroke-opacity:1"
       d="m 320.05447,657.96891 c 0,0 12.76692,12.72543 16.36794,9.17958 3.60101,-3.54586 -12.73935,-16.29887 -16.36794,-9.17958 z"
       id="path36143" />
    <path
       style="fill:#a6b78d;fill-opacity:1;stroke:none;stroke-width:1px;stroke-linecap:butt;stroke-linejoin:miter;stroke-opacity:1"
       d="m 330.2816,640.85285 c 0,0 2.66356,23.43934 11.18696,22.37392 8.5234,-1.06543 -1.59814,-34.09359 -11.18696,-22.37392 z"
       id="path36145" />
    <path
       style="fill:#a6b78d;fill-opacity:1;stroke:none;stroke-width:1px;stroke-linecap:butt;stroke-linejoin:miter;stroke-opacity:1"
       d="m 428.33184,600.24867 c 0,0 10.41047,21.16883 18.07557,17.29202 7.6651,-3.87682 -12.99965,-31.55845 -18.07557,-17.29202 z"
       id="path36145-9" />
    <path
       style="fill:#a6b78d;fill-opacity:1;stroke:none;stroke-width:1px;stroke-linecap:butt;stroke-linejoin:miter;stroke-opacity:1"
       d="m 352.60828,639.5729 c 0,0 -10.17963,12.87185 -2.94971,16.27469 7.22991,3.40283 8.90393,-16.4161 2.94971,-16.27469 z"
       id="path36147" />
    <path
       style="fill:#a6b78d;fill-opacity:1;stroke:none;stroke-width:1px;stroke-linecap:butt;stroke-linejoin:miter;stroke-opacity:1"
       d="m 657.08455,572.39654 c 0,0 -2.22669,17.88778 2.7823,18.5589 5.00899,0.67112 5.06675,-20.05672 -2.7823,-18.5589 z"
       id="path36143-1" />
    <path
       style="fill:#a6b78d;fill-opacity:1;stroke:none;stroke-width:1px;stroke-linecap:butt;stroke-linejoin:miter;stroke-opacity:1"
       d="m 668.84779,570.08232 c 0,0 -7.90681,22.22565 0.2178,25.01386 8.12462,2.7882 13.54544,-31.32807 -0.2178,-25.01386 z"
       id="path36145-7" />
    <path
       style="fill:#a6b78d;fill-opacity:1;stroke:none;stroke-width:1px;stroke-linecap:butt;stroke-linejoin:miter;stroke-opacity:1"
       d="m 687.03697,578.91487 c 0,0 -14.56125,7.56835 -9.36136,13.63566 5.19986,6.06731 14.85037,-11.32409 9.36136,-13.63566 z"
       id="path36147-7" />
    <path
       style="fill:#a6b78d;fill-opacity:1;stroke:none;stroke-width:0.788721px;stroke-linecap:butt;stroke-linejoin:miter;stroke-opacity:1"
       d="m 535.08045,734.52865 c 0,0 -7.92924,-28.67596 -2.2655,-24.31223 5.66374,4.36374 21.5222,24.93562 2.2655,24.31223 z"
       id="path38211" />
    <path
       style="fill:#a6b78d;fill-opacity:1;stroke:none;stroke-width:0.924587px;stroke-linecap:butt;stroke-linejoin:miter;stroke-opacity:1"
       d="m 551.27623,730.88122 c 0,0 -4.96118,-25.8184 6.61492,-22.29771 11.57609,3.5207 1.65372,20.53737 -6.61492,22.29771 z"
       id="path38213" />
    <path
       style="fill:#a6b78d;fill-opacity:1;stroke:none;stroke-width:0.641861px;stroke-linecap:butt;stroke-linejoin:miter;stroke-opacity:1"
       d="m 529.99079,736.31194 c 0,0 -9.23626,-29.77206 -11.87519,-23.39234 -2.63894,6.37973 -1.9792,24.81006 11.87519,23.39234 z"
       id="path38215" />
    <path
       style="fill:#a6b78d;fill-opacity:1;stroke:none;stroke-width:0.826453px;stroke-linecap:butt;stroke-linejoin:miter;stroke-opacity:1"
       d="m 639.89559,664.46968 c 0,0 3.7824,-29.15619 7.89868,-23.78444 4.11627,5.37176 12.10856,28.42148 -7.89868,23.78444 z"
       id="path38211-7" />
    <path
       style="fill:#a6b78d;fill-opacity:1;stroke:none;stroke-width:0.816925px;stroke-linecap:butt;stroke-linejoin:miter;stroke-opacity:1"
       d="m 655.54975,667.30678 c 0,0 7.62265,-25.46608 14.74116,-20.42737 7.11848,5.03872 -7.77945,19.9277 -14.74116,20.42737 z"
       id="path38213-7" />
    <path
       style="fill:#a6b78d;fill-opacity:1;stroke:none;stroke-width:0.641861px;stroke-linecap:butt;stroke-linejoin:miter;stroke-opacity:1"
       d="m 636.26479,663.47416 c 0,0 -0.39194,-31.16938 -4.73556,-25.80302 -4.34363,5.36636 -8.95028,23.22388 4.73556,25.80302 z"
       id="path38215-3" />
    <path
       style="fill:#a6b78d;fill-opacity:1;stroke:none;stroke-width:0.826453px;stroke-linecap:butt;stroke-linejoin:miter;stroke-opacity:1"
       d="m 384.72151,717.62354 c 0,0 -6.94355,-28.56881 -1.17238,-25.03426 5.77117,3.53457 21.50991,22.1748 1.17238,25.03426 z"
       id="path38211-7-9" />
    <path
       style="fill:#a6b78d;fill-opacity:1;stroke:none;stroke-width:0.816925px;stroke-linecap:butt;stroke-linejoin:miter;stroke-opacity:1"
       d="m 400.34994,714.64799 c 0,0 -2.03406,-26.5045 6.41932,-24.35922 8.45335,2.14531 -0.10177,21.39212 -6.41932,24.35922 z"
       id="path38213-7-5" />
    <path
       style="fill:#a6b78d;fill-opacity:1;stroke:none;stroke-width:0.641861px;stroke-linecap:butt;stroke-linejoin:miter;stroke-opacity:1"
       d="m 380.97544,717.99873 c 0,0 -11.56243,-28.94813 -13.68843,-22.37964 -2.126,6.56849 -0.0104,24.88887 13.68843,22.37964 z"
       id="path38215-3-6" />
    <path
       style="fill:#a6b78d;fill-opacity:1;stroke:none;stroke-width:0.782931px;stroke-linecap:butt;stroke-linejoin:miter;stroke-opacity:1"
       d="m 743.36013,726.28721 c 0,0 5.09097,-29.01741 8.46845,-23.53002 3.3775,5.48741 9.19964,28.74964 -8.46845,23.53002 z"
       id="path38211-6" />
    <path
       style="fill:#a6b78d;fill-opacity:1;stroke:none;stroke-width:0.779081px;stroke-linecap:butt;stroke-linejoin:miter;stroke-opacity:1"
       d="m 755.36518,729.8069 c 0,0 8.48786,-25.22634 14.64695,-19.99123 6.15908,5.23512 -8.29072,19.68882 -14.64695,19.99123 z"
       id="path38213-8" />
    <path
       style="fill:#a6b78d;fill-opacity:1;stroke:none;stroke-width:0.733521px;stroke-linecap:butt;stroke-linejoin:miter;stroke-opacity:1"
       d="m 741.47268,724.87221 c 0,0 1.26572,-31.15678 -4.7076,-25.98516 -5.97333,5.17162 -13.00202,22.81101 4.7076,25.98516 z"
       id="path38215-4" />
  </g>
  <g
     inkscape:groupmode="layer"
     id="layer8"
     inkscape:label="balloons" />
  <g
     inkscape:groupmode="layer"
     id="layer2"
     inkscape:label="elephant"
     style="display:inline">
    <path
       style="display:inline;fill:#e7e6e6;fill-opacity:1;stroke:none;stroke-width:4;stroke-linecap:butt;stroke-linejoin:miter;stroke-miterlimit:4;stroke-dasharray:none;stroke-opacity:1"
       d="m 610.63132,499.98472 c 0,0 69.06405,100.56071 11.19004,113.42432 -22.66592,5.03794 -91.35972,11.06362 -92.97903,-0.38561 0,0 -34.1955,1.9891 -41.62163,-0.48628 -7.42606,-2.47537 16.75568,-77.38827 16.75568,-77.38827 0,0 73.27862,-47.9208 106.65494,-35.16416 z"
       id="path9031-1"
       sodipodi:nodetypes="cscccc" />
    <path
       style="fill:#dadada;fill-opacity:1;stroke:none;stroke-width:0.580842px;stroke-linecap:butt;stroke-linejoin:miter;stroke-opacity:1"
       d="m 614.48218,492.4975 c 0,0 16.19074,3.93829 26.25528,-13.12765 10.06454,-17.06594 -43.75883,-38.50777 -43.75883,-38.50777 0,0 -25.64472,-8.83243 -17.45427,9.8125 8.19045,18.64493 11.78626,36.4242 19.84353,38.88799 8.05727,2.4638 15.11429,2.93493 15.11429,2.93493 z"
       id="path13529" />
    <path
       style="fill:#e7e6e6;fill-opacity:1;stroke:none;stroke-width:0.580842px;stroke-linecap:butt;stroke-linejoin:miter;stroke-opacity:1"
       d="m 489.8284,476.61979 c 0,0 97.20353,-14.71263 99.73735,-24.93655 0,0 14.55566,-16.53274 12.45696,-30.06972 -4.39406,-28.34239 -30.18073,-50.26579 -55.56084,-57.2672 -25.38012,-7.00142 -48.89068,15.38339 -48.89068,15.38339 -24.75375,-15.7805 -28.15736,-57.55243 -30.32332,-66.21623 -2.16595,-8.66381 -10.21091,-5.56959 -10.21091,-5.56959 -9.59207,11.13918 0.30941,11.4486 0.30941,11.4486 l -8.35438,33.10812 c -11.2544,44.6008 12.05778,60.5717 12.05778,60.5717 0,0 -9.81931,27.69566 28.77863,63.54748 z"
       id="path7806"
       sodipodi:nodetypes="ccsscsccscc" />
    <circle
       style="fill:#000000;fill-opacity:1;stroke-width:1.09669"
       id="path8339"
       cx="498.20554"
       cy="410.22058"
       r="5.4834495" />
    <path
       style="fill:#ffffff;fill-opacity:1;stroke:none;stroke-width:0.580842px;stroke-linecap:butt;stroke-linejoin:miter;stroke-opacity:1"
       d="m 552.83616,562.9608 c 0,0 6.03785,17.90495 -14.01419,12.36707 0,0 0.62467,-11.0729 0.62467,-11.0729 z"
       id="path9033-7"
       sodipodi:nodetypes="cc" />
    <path
       style="fill:none;stroke:#dadada;stroke-width:5;stroke-linecap:butt;stroke-linejoin:miter;stroke-miterlimit:4;stroke-dasharray:none;stroke-opacity:1"
       d="m 610.63132,499.98472 c 0,0 68.74248,99.19092 11.19004,113.42432 -57.55244,14.2334 -84.51873,0.46869 -91.32602,2.94406 -6.80723,2.47538 8.9513,-52.09813 8.9513,-52.09813 0,0 9.39338,-3.04058 21.98445,-4.18174"
       id="path8717"
       sodipodi:nodetypes="csscc" />
    <path
       style="fill:#ffffff;fill-opacity:1;stroke:none;stroke-width:0.580842px;stroke-linecap:butt;stroke-linejoin:miter;stroke-opacity:1"
       d="m 499.87047,611.29481 c 8.04501,-19.18414 -10.48281,-15.4743 -10.48281,-15.4743 0,0 -4.58757,14.73137 -2.60997,15.76725 1.97759,1.03588 10.4059,0.94171 10.4059,0.94171 z"
       id="path9033"
       sodipodi:nodetypes="cc" />
    <path
       style="fill:none;stroke:#dadada;stroke-width:5;stroke-linecap:butt;stroke-linejoin:miter;stroke-miterlimit:4;stroke-dasharray:none;stroke-opacity:1"
       d="m 503.97638,535.14888 c 0,0 -24.18174,74.9129 -16.75568,77.38827 7.42613,2.47538 41.62163,0.48628 41.62163,0.48628"
       id="path9031"
       sodipodi:nodetypes="csc" />
    <ellipse
       style="fill:#ffc2b0;fill-opacity:1;stroke-width:1.16168"
       id="path9777"
       cx="584.4939"
       cy="283.99899"
       rx="9.5920715"
       ry="5.8790116"
       transform="rotate(15)" />
    <path
       style="display:inline;fill:#dadada;fill-opacity:1;stroke:none;stroke-width:0.685061px;stroke-linecap:butt;stroke-linejoin:miter;stroke-opacity:1"
       d="m 561.44073,443.67716 c 0,0 76.08891,17.15174 54.12451,69.41964 -6.76606,16.101 -41.2688,0.57308 -47.42233,10.2496 -6.1536,9.67654 -32.10511,30.5745 -49.14399,21.18129 -17.03899,-9.39325 -21.15208,4.34701 -31.70953,-5.97528 -10.55738,-10.32229 -13.20227,-66.2444 18.88891,-87.44704 z"
       id="path7379-6"
       sodipodi:nodetypes="cssssc" />
    <path
       style="fill:#e7e6e6;fill-opacity:1;stroke:none;stroke-width:0.675978px;stroke-linecap:butt;stroke-linejoin:miter;stroke-opacity:1"
       d="m 559.4101,439.41705 c 0,0 72.77011,17.46155 51.76375,70.67357 -6.47096,16.39183 -39.46877,0.58343 -45.3539,10.43474 -5.88519,9.85132 -30.70477,31.12676 -47.00045,21.56388 -16.2958,-9.56292 -20.22949,4.42553 -30.32645,-6.08321 -10.0969,-10.50874 -12.62642,-67.44097 18.06501,-89.02659 z"
       id="path7379"
       sodipodi:nodetypes="cssssc" />
    <path
       style="fill:#ffc2b0;fill-opacity:1;stroke:none;stroke-width:0.580842px;stroke-linecap:butt;stroke-linejoin:miter;stroke-opacity:1"
       d="m 529.13222,459.25108 c 0,0 -28.46683,17.32761 -17.94645,37.1306 10.52033,19.80299 -1.23771,28.46679 24.13486,15.47109 25.37256,-12.99572 24.1349,-10.52035 37.13061,-8.66381 12.9957,1.85653 50.74514,-29.08564 -17.94645,-51.364 0,0 -6.80723,-6.18844 -25.37257,7.42612 z"
       id="path8235" />
  </g>
  <g
     inkscape:groupmode="layer"
     id="layer6"
     inkscape:label="flowers">
    <g
       inkscape:groupmode="layer"
       id="layer5"
       inkscape:label="flower2"
       style="display:inline">
      <path
         style="fill:none;stroke:#6f8451;stroke-width:3;stroke-linecap:butt;stroke-linejoin:miter;stroke-miterlimit:4;stroke-dasharray:none;stroke-opacity:1"
         d="m 675.45763,808.16235 c 0,0 45.81325,-134.24349 12.78509,-206.69235"
         id="path38871" />
      <path
         style="fill:#dddb9c;fill-opacity:1;stroke:none;stroke-width:1.05229px;stroke-linecap:butt;stroke-linejoin:miter;stroke-opacity:1"
         d="m 667.89339,586.98848 c 0,0 -0.52473,-10.77919 3.14842,-7.18613 3.67315,3.59307 7.87104,-4.19191 9.44525,-0.59884 1.57421,3.59307 7.3463,-5.3896 7.3463,2.39537 0,7.78498 5.24736,4.19192 5.7721,7.78498 0.52473,3.59307 3.80433,5.3896 1.5742,5.68903 -2.23012,0.29941 0.13119,0.29941 -0.91828,2.54509 -1.04948,2.24567 1.96776,6.737 -0.26237,7.63527 -2.23013,0.89825 1.96776,2.99422 -1.70539,4.64104 -3.67315,1.64682 -7.87104,-3.14393 -9.70762,-0.74855 -1.83657,2.39537 -4.32907,2.99422 -3.80434,0.59884 0.52475,-2.39538 -5.6409,5.68901 -5.77209,0.44913 -0.13119,-5.23989 -6.82157,-0.29942 -5.50973,-4.19191 1.31184,-3.89249 -5.64091,-3.44336 -4.46025,-5.09018 1.18065,-1.64683 -3.93553,-3.74278 -1.44302,-5.23989 2.49249,-1.49711 -0.9183,-4.0422 1.31183,-4.64104 2.23014,-0.59885 -1.70539,-4.64105 0.26237,-5.09018 1.96777,-0.44914 0,-5.09018 1.57421,-4.0422 1.57421,1.04797 3.14841,5.09017 3.14841,5.09017 z"
         id="path39581" />
      <path
         style="fill:none;stroke:#6f8451;stroke-width:3;stroke-linecap:butt;stroke-linejoin:miter;stroke-miterlimit:4;stroke-dasharray:none;stroke-opacity:1"
         d="m 699.91915,687.01038 c 0,0 9.00099,-17.26543 11.2611,-31.57944 2.26011,-14.31401 -1.50674,-38.42181 3.76684,-45.9555 5.27359,-7.53369 5.27359,-24.10781 5.27359,-24.10781"
         id="path41846" />
      <path
         style="fill:#dddb9c;fill-opacity:1;stroke:none;stroke-width:0.570578px;stroke-linecap:butt;stroke-linejoin:miter;stroke-opacity:1"
         d="m 721.33149,572.20344 c 0,0 5.38899,-2.28052 4.24608,0.26039 -1.1429,2.5409 3.60405,3.22365 2.06909,4.69612 -1.53497,1.47247 4.11569,2.73283 0.15286,4.18696 -3.96284,1.45414 -1.1537,3.4541 -2.88469,4.39235 -1.73099,0.93825 -2.0329,2.94325 -2.60188,1.86396 -0.56897,-1.07928 -0.12791,0.12271 -1.46707,0.008 -1.33916,-0.11476 -3.06183,2.26005 -3.93564,1.29261 -0.8738,-0.96744 -1.15662,1.56095 -2.681,-8.3e-4 -1.52439,-1.56217 0.13016,-4.5939 -1.43223,-5.08136 -1.56237,-0.48746 -2.33277,-1.64437 -1.01543,-1.8247 1.31735,-0.18031 -3.94956,-1.80879 -1.30678,-2.8543 2.6428,-1.04553 -1.12176,-3.52837 1.1047,-3.58766 2.22645,-0.0593 0.69914,-3.5146 1.75797,-3.22121 1.05883,0.29339 1.17011,-2.70243 2.39776,-1.71329 1.22764,0.98912 1.8861,-1.22248 2.60749,-0.19912 0.7214,1.02337 2.04392,-1.735 2.64009,-0.81723 0.59619,0.91778 2.59109,-0.95077 2.35167,0.0463 -0.2394,0.99707 -2.00299,2.55343 -2.00299,2.55343 z"
         id="path39581-0" />
      <path
         style="display:inline;fill:#6f8451;fill-opacity:1;stroke:none;stroke-width:1.05056px;stroke-linecap:butt;stroke-linejoin:miter;stroke-opacity:1"
         d="m 693.1436,729.43149 c 0,0 15.6728,-14.68817 23.28531,-14.68817 7.6125,0 10.52316,-7.6938 10.52316,-7.6938 0,0 4.03015,10.14182 -15.225,21.33281 -19.25516,11.19099 -20.59854,12.24014 -20.59854,12.24014 z"
         id="path42001" />
    </g>
    <g
       inkscape:groupmode="layer"
       id="layer4"
       inkscape:label="flower1">
      <path
         style="fill:none;stroke:#6f8451;stroke-width:5;stroke-linecap:butt;stroke-linejoin:miter;stroke-miterlimit:4;stroke-dasharray:none;stroke-opacity:1"
         d="m 222.48814,708.55653 c 0,0 10.73851,30.4974 6.87265,61.42433 -3.86593,30.92695 -3.86593,30.92695 -3.86593,30.92695"
         id="path21672" />
      <path
         style="fill:#ffa78d;fill-opacity:1;stroke:none;stroke-width:0.806328px;stroke-linecap:butt;stroke-linejoin:miter;stroke-opacity:1"
         d="m 224.49557,719.1704 c 0,0 -41.23563,-19.29912 -33.4104,-32.80297 3.37481,-5.82384 13.97163,0.60747 19.43884,5.46717 5.46714,4.85969 1.662,-19.59471 9.1119,-20.65373 8.1111,-1.15301 10.32689,21.26119 15.79403,18.83134 5.46715,-2.42985 10.98437,-14.01631 15.18655,-9.7194 10.91606,11.16208 -3.03736,27.33581 -26.12092,38.87759 z"
         id="path15652"
         sodipodi:nodetypes="casasac" />
      <path
         style="fill:#ff9171;fill-opacity:1;stroke:none;stroke-width:0.459301px;stroke-linecap:butt;stroke-linejoin:miter;stroke-opacity:1"
         d="m 224.49557,719.1704 c 0,0 -23.4886,-10.99319 -19.03119,-18.68523 1.92236,-3.31738 7.95854,0.34602 11.07274,3.1142 3.1142,2.76818 0.94671,-11.16154 5.19033,-11.76478 4.62026,-0.65678 5.8824,12.11081 8.9966,10.72672 3.1142,-1.3841 6.25687,-7.98397 8.65053,-5.53637 6.218,6.35814 -1.73014,15.57103 -14.87901,22.14546 z"
         id="path15652-3"
         sodipodi:nodetypes="casasac" />
      <path
         style="fill:#6f8451;fill-opacity:1;stroke:none;stroke-width:1.2813px;stroke-linecap:butt;stroke-linejoin:miter;stroke-opacity:1"
         d="m 252.33413,737.11299 c -15.18703,-4.94862 -22.86593,9.55592 -22.86593,9.55592 0,0 16.04028,6.14309 22.86593,-9.55592 z"
         id="path21805" />
      <path
         style="fill:#6f8451;fill-opacity:1;stroke:none;stroke-width:0.926495px;stroke-linecap:butt;stroke-linejoin:miter;stroke-opacity:1"
         d="m 229.50714,753.02549 c 0,0 -6.28194,-14.30887 -14.13436,-13.95988 -7.85243,0.349 -7.85243,0.349 -7.85243,0.349 0,0 2.09396,9.07391 11.51695,11.69139 9.42291,2.61747 10.46984,1.91949 10.46984,1.91949 z"
         id="path21986" />
    </g>
  </g>
  <g
     inkscape:groupmode="layer"
     id="layer7"
     inkscape:label="clouds">
    <path
       style="fill:#e3eef1;fill-opacity:1;stroke:none;stroke-width:1.225;stroke-linecap:butt;stroke-linejoin:miter;stroke-miterlimit:4;stroke-dasharray:none;stroke-opacity:1"
       d="m 241.34563,107.23544 c 65.64503,0.15615 40.4514,53.50025 40.4514,53.50025 54.80513,-20.87815 48.28071,52.19535 39.14653,71.76861 -9.13419,19.57326 -238.793784,5.21954 -238.793784,5.21954 -52.11403,-23.44201 -11.74396,-173.54957 53.500244,-131.79329 0,0 62.28738,-84.548482 105.69561,1.30489 z"
       id="path47406"
       sodipodi:nodetypes="ccsscc" />
  </g>
</svg>
