<?xml version="1.0" encoding="UTF-8" standalone="no"?>
<!-- Created with Inkscape (http://www.inkscape.org/) -->

<svg
   width="800px"
   height="800px"
   viewBox="0 0 800 800"
   version="1.1"
   id="SVGRoot"
   sodipodi:docname="fox-rachana.svg"
   inkscape:version="1.1.2 (b8e25be833, 2022-02-05)"
   xmlns:inkscape="http://www.inkscape.org/namespaces/inkscape"
   xmlns:sodipodi="http://sodipodi.sourceforge.net/DTD/sodipodi-0.dtd"
   xmlns="http://www.w3.org/2000/svg"
   xmlns:svg="http://www.w3.org/2000/svg">
  <sodipodi:namedview
     id="namedview14"
     pagecolor="#505050"
     bordercolor="#eeeeee"
     borderopacity="1"
     inkscape:pageshadow="0"
     inkscape:pageopacity="0"
     inkscape:pagecheckerboard="0"
     inkscape:document-units="px"
     showgrid="false"
     inkscape:zoom="0.90583674"
     inkscape:cx="355.47244"
     inkscape:cy="264.39643"
     inkscape:window-width="1453"
     inkscape:window-height="1093"
     inkscape:window-x="305"
     inkscape:window-y="0"
     inkscape:window-maximized="0"
     inkscape:current-layer="layer1"
     showguides="true"
     inkscape:guide-bbox="true" />
  <defs
     id="defs9" />
  <g
     inkscape:label="background square"
     inkscape:groupmode="layer"
     id="layer1"
     style="display:inline">
    <rect
       style="fill:#ffffff;fill-opacity:1;fill-rule:evenodd"
       id="rect64"
       width="800"
       height="800"
       x="-2.2867198e-08"
       y="-2.2867198e-08" />
  </g>
  <g
     inkscape:groupmode="layer"
     id="layer2"
     inkscape:label="background circle"
     style="display:inline">
    <circle
       style="fill:#dee7c4;fill-opacity:1;stroke:none;stroke-width:40;stroke-miterlimit:4;stroke-dasharray:none;stroke-opacity:1"
       id="path3692"
       cx="400"
       cy="400"
       r="370" />
  </g>
  <g
     inkscape:groupmode="layer"
     id="layer21"
     inkscape:label="mountain"
     style="display:inline" />
  <g
     inkscape:groupmode="layer"
     id="layer12"
     inkscape:label="tree-back"
     style="display:inline" />
  <g
     inkscape:groupmode="layer"
     id="layer7"
     inkscape:label="grass back"
     style="display:inline">
    <path
       id="path3692-5"
       style="display:inline;fill:#9dad4f;fill-opacity:1;stroke:none;stroke-width:40.4282;stroke-miterlimit:4;stroke-dasharray:none;stroke-opacity:1"
       d="m 47.376161,360.59441 c -7.043023,0.16294 -12.088639,0.72039 -15.888802,1.39142 A 370.3217,377.63622 0 0 0 29.356602,392.36378 370.3217,377.63622 0 0 0 399.6783,770 370.3217,377.63622 0 0 0 770,392.36378 a 370.3217,377.63622 0 0 0 -0.68615,-21.862 C 740.46673,404.82204 691.31847,448.37507 621.3963,458.93851 502.06585,476.96628 467.81384,446.54587 254.56592,394.71603 134.61396,365.56175 75.841931,359.93587 47.376161,360.59441 Z" />
  </g>
  <g
     inkscape:groupmode="layer"
     id="layer10"
     inkscape:label="flower2"
     style="display:inline">
    <path
       style="fill:#5f771e;fill-opacity:1;stroke:none;stroke-width:0.731045px;stroke-linecap:butt;stroke-linejoin:miter;stroke-opacity:1"
       d="m 583.79931,283.76842 c 0,0 -3.73293,-14.4489 18.8666,-15.18408 16.44011,-0.53478 12.91514,2.79687 12.91514,2.79687 0,0 -1.61371,19.07372 -31.78174,12.38721 z"
       id="path36671-02"
       sodipodi:nodetypes="cscc" />
    <path
       style="fill:#76952b;fill-opacity:1;stroke:none;stroke-width:0.782481px;stroke-linecap:butt;stroke-linejoin:miter;stroke-opacity:1"
       d="m 581.71411,314.74179 c 0,0 -4.28194,-15.38875 19.88894,-16.62447 17.5832,-0.89895 13.87704,2.73651 13.87704,2.73651 0,0 -1.34798,20.44434 -33.76598,13.88796 z"
       id="path36671-9-6"
       sodipodi:nodetypes="cscc" />
    <path
       style="fill:#76952b;fill-opacity:1;stroke:none;stroke-width:0.782481px;stroke-linecap:butt;stroke-linejoin:miter;stroke-opacity:1"
       d="m 580.0164,347.4221 c 0,0 -2.81893,-15.72265 21.36124,-14.68473 17.58996,0.75506 13.55902,4.02665 13.55902,4.02665 0,0 -3.26054,20.22759 -34.92024,10.65802 z"
       id="path36671-2-4"
       sodipodi:nodetypes="cscc" />
    <path
       style="fill:#5f771e;fill-opacity:1;stroke:none;stroke-width:0.872651px;stroke-linecap:butt;stroke-linejoin:miter;stroke-opacity:1"
       d="m 582.54183,421.78083 c 0,0 -4.20029,-17.31179 22.78692,-17.79006 19.63193,-0.34793 15.36578,3.56635 15.36578,3.56635 0,0 -2.26299,22.73741 -38.15269,14.22369 z"
       id="path36671-4-4"
       sodipodi:nodetypes="cscc" />
    <path
       style="fill:#5f771e;fill-opacity:1;stroke:none;stroke-width:0.847029px;stroke-linecap:butt;stroke-linejoin:miter;stroke-opacity:1"
       d="m 594.05786,466.96646 c 0,0 -8.02707,-15.31488 17.27468,-22.11244 18.40582,-4.94493 15.30893,-0.2554 15.30893,-0.2554 0,0 3.21656,21.94436 -32.58361,22.36784 z"
       id="path36671-3-7"
       sodipodi:nodetypes="cscc" />
    <path
       style="fill:#76952b;fill-opacity:1;stroke:none;stroke-width:0.827565px;stroke-linecap:butt;stroke-linejoin:miter;stroke-opacity:1"
       d="m 581.07185,386.52016 c 0,0 -4.44728,-16.29781 21.12248,-17.47704 18.60082,-0.85783 14.66198,2.96745 14.66198,2.96745 0,0 -1.53367,21.61489 -35.78445,14.50953 z"
       id="path36671-21-6"
       sodipodi:nodetypes="cscc" />
    <path
       style="fill:#76952b;fill-opacity:1;stroke:none;stroke-width:0.731045px;stroke-linecap:butt;stroke-linejoin:miter;stroke-opacity:1"
       d="m 579.05004,281.40797 c 0,0 5.16908,-13.99951 -17.2415,-17.00694 -16.30266,-2.18776 -13.13114,1.48196 -13.13114,1.48196 0,0 -0.31544,19.13924 30.37264,15.52498 z"
       id="path36671-09-5"
       sodipodi:nodetypes="cscc" />
    <path
       style="fill:#76952b;fill-opacity:1;stroke:none;stroke-width:0.782481px;stroke-linecap:butt;stroke-linejoin:miter;stroke-opacity:1"
       d="m 574.14801,314.51844 c 0,0 8.05872,-13.7915 -15.00108,-21.14031 -16.7749,-5.34592 -14.11647,-0.88671 -14.11647,-0.88671 0,0 -3.90144,20.11381 29.11755,22.02696 z"
       id="path36671-9-7-7"
       sodipodi:nodetypes="cscc" />
    <path
       style="fill:#76952b;fill-opacity:1;stroke:none;stroke-width:0.782481px;stroke-linecap:butt;stroke-linejoin:miter;stroke-opacity:1"
       d="m 570.88154,346.77015 c 0,0 4.74081,-15.25362 -19.38222,-17.2126 -17.54838,-1.42505 -13.95278,2.3197 -13.95278,2.3197 0,0 0.73519,20.47551 33.33498,14.89284 z"
       id="path36671-2-6-4"
       sodipodi:nodetypes="cscc" />
    <path
       style="fill:#5f771e;fill-opacity:1;stroke:none;stroke-width:0.872651px;stroke-linecap:butt;stroke-linejoin:miter;stroke-opacity:1"
       d="m 578.02755,422.85334 c 0,0 1.17481,-17.77529 -25.49593,-13.62675 -19.4017,3.01785 -14.52848,6.14406 -14.52848,6.14406 0,0 6.12184,22.01441 40.0244,7.48265 z"
       id="path36671-4-1-4"
       sodipodi:nodetypes="cscc" />
    <path
       style="fill:#5f771e;fill-opacity:1;stroke:none;stroke-width:0.847029px;stroke-linecap:butt;stroke-linejoin:miter;stroke-opacity:1"
       d="m 582.5624,455.58231 c 0,0 1.96456,-17.17905 -24.0861,-14.39566 -18.95063,2.02477 -14.37109,5.28208 -14.37109,5.28208 0,0 4.91281,21.6279 38.45719,9.11358 z"
       id="path36671-3-0-6"
       sodipodi:nodetypes="cscc" />
    <path
       style="fill:#76952b;fill-opacity:1;stroke:none;stroke-width:0.827565px;stroke-linecap:butt;stroke-linejoin:miter;stroke-opacity:1"
       d="m 572.26915,385.26061 c 0,0 3.46077,-16.53541 -22.13368,-16.17733 -18.61878,0.2605 -14.45738,3.84239 -14.45738,3.84239 0,0 2.82866,21.4838 36.59104,12.33488 z"
       id="path36671-21-9-2"
       sodipodi:nodetypes="cscc" />
    <path
       style="fill:#5f771e;fill-opacity:1;stroke:none;stroke-width:0.872651px;stroke-linecap:butt;stroke-linejoin:miter;stroke-opacity:1"
       d="m 592.44278,488.5293 c 0,0 2.94649,-17.5687 -24.00541,-16.1081 -19.60626,1.06249 -15.07009,4.66035 -15.07009,4.66035 0,0 3.88965,22.51627 39.07549,11.44772 z"
       id="path36671-0-7-4"
       sodipodi:nodetypes="cscc" />
    <path
       style="display:inline;fill:#5f771e;fill-opacity:1;stroke:none;stroke-width:0.783738px;stroke-linecap:butt;stroke-linejoin:miter;stroke-opacity:1"
       d="m 601.99712,187.28696 c 0,0 -55.08767,209.65421 9.87851,311.72229 64.96618,102.06808 -13.24553,2.9671 -13.24553,2.9671 0,0 -66.64508,-123.60846 3.36702,-314.68939 z"
       id="path4301-1"
       sodipodi:nodetypes="cscc" />
    <path
       style="fill:#dc7530;fill-opacity:1;stroke:none;stroke-width:0.899989px;stroke-linecap:butt;stroke-linejoin:miter;stroke-opacity:1"
       d="m 554.4439,191.87205 c 0,0 -9.06992,29.61485 13.93054,48.6521 23.0005,19.03726 39.6785,4.76796 39.6785,4.76796 0,0 18.81597,-3.0216 21.85612,-47.77519 1.52008,-22.37681 -1.74572,-17.75144 -8.4586,-11.7146 -6.71287,6.03681 -16.87282,13.48507 -16.87282,13.48507 l -2.64793,-28.15321 -20.50024,24.81396 -14.92913,-28.29993 z"
       id="path38056-1"
       sodipodi:nodetypes="cscssccccc" />
    <path
       id="path38056-1-9"
       style="display:inline;fill:#e88c4f;fill-opacity:1;stroke:none;stroke-width:0.899989px;stroke-linecap:butt;stroke-linejoin:miter;stroke-opacity:1"
       d="m 602.04981,172.4201 -14.88799,77.53157 c 12.74675,2.29117 20.89061,-4.66013 20.89061,-4.66013 0,0 18.81658,-3.02185 21.85673,-47.77544 1.52007,-22.37679 -1.74634,-17.75062 -8.45923,-11.71378 -6.71286,6.03681 -16.87275,13.48416 -16.87275,13.48416 z" />
  </g>
  <g
     inkscape:groupmode="layer"
     id="layer17"
     inkscape:label="grass middle"
     style="display:inline">
    <path
       id="path3692-6"
       style="display:inline;fill:#8e9e42;fill-opacity:1;stroke:none;stroke-width:40;stroke-miterlimit:4;stroke-dasharray:none;stroke-opacity:1"
       d="M 115.31192,422.50781 C 72.447891,422.75387 46.133405,433.73792 32.392,441.85547 A 370,370 0 0 0 246.66543,736.92578 L 603.15372,708.48242 A 370,370 0 0 0 767.5209,426.26172 C 721.43085,472.239 592.44278,504.5293 592.44278,504.5293 c 0,0 -107.5195,42.98899 -307.33985,-41.62696 -73.43885,-31.09842 -129.01189,-40.62862 -169.79101,-40.39453 z" />
  </g>
  <g
     inkscape:groupmode="layer"
     id="layer18"
     inkscape:label="flower3"
     style="display:inline">
    <path
       style="display:inline;fill:#76952b;fill-opacity:1;stroke:none;stroke-width:0.850633px;stroke-linecap:butt;stroke-linejoin:miter;stroke-opacity:1"
       d="m 285.71129,240.67348 c 0,0 -9.64096,-14.4423 14.90499,-23.91504 17.85605,-6.89097 15.26095,-1.87928 15.26095,-1.87928 0,0 5.54041,21.5731 -30.16594,25.79432 z"
       id="path36671"
       sodipodi:nodetypes="cscc" />
    <path
       style="display:inline;fill:#76952b;fill-opacity:1;stroke:none;stroke-width:0.910484px;stroke-linecap:butt;stroke-linejoin:miter;stroke-opacity:1"
       d="m 290.61082,270.46978 c 0,0 -4.91759,-17.92402 23.21231,-19.26016 20.4632,-0.97199 16.1355,3.24256 16.1355,3.24256 0,0 -1.65454,23.78291 -39.34781,16.0176 z"
       id="path36671-9"
       sodipodi:nodetypes="cscc" />
    <path
       style="display:inline;fill:#76952b;fill-opacity:1;stroke:none;stroke-width:0.910484px;stroke-linecap:butt;stroke-linejoin:miter;stroke-opacity:1"
       d="m 294.40817,306.36577 c 0,0 -3.90022,-18.17254 24.26029,-17.92218 20.48545,0.18214 15.92725,4.14627 15.92725,4.14627 0,0 -2.99148,23.65194 -40.18754,13.77591 z"
       id="path36671-2"
       sodipodi:nodetypes="cscc" />
    <path
       style="display:inline;fill:#76952b;fill-opacity:1;stroke:none;stroke-width:0.962944px;stroke-linecap:butt;stroke-linejoin:miter;stroke-opacity:1"
       d="m 296.46318,341.48519 c 0,0 -2.57383,-19.48805 27.09255,-16.84096 21.58091,1.92563 16.44004,5.71898 16.44004,5.71898 0,0 -5.15528,24.68135 -43.53259,11.12198 z"
       id="path36671-21"
       sodipodi:nodetypes="cscc" />
    <path
       style="display:inline;fill:#76952b;fill-opacity:1;stroke:none;stroke-width:1.0154px;stroke-linecap:butt;stroke-linejoin:miter;stroke-opacity:1"
       d="m 299.00577,384.30826 c 0,0 -1.031,-20.70251 29.92021,-15.37212 22.51555,3.87762 16.78681,7.42271 16.78681,7.42271 0,0 -7.53823,25.49661 -46.70702,7.94941 z"
       id="path36671-4"
       sodipodi:nodetypes="cscc" />
    <path
       style="display:inline;fill:#5f771e;fill-opacity:1;stroke:none;stroke-width:0.985591px;stroke-linecap:butt;stroke-linejoin:miter;stroke-opacity:1"
       d="m 294.59953,426.33193 c 0,0 -2.52623,-19.96036 27.82272,-17.08648 22.07743,2.09059 16.79472,5.94457 16.79472,5.94457 0,0 -5.41337,25.23284 -44.61744,11.14191 z"
       id="path36671-3"
       sodipodi:nodetypes="cscc" />
    <path
       style="display:inline;fill:#5f771e;fill-opacity:1;stroke:none;stroke-width:0.999581px;stroke-linecap:butt;stroke-linejoin:miter;stroke-opacity:1"
       d="m 291.38851,460.46909 c 0,0 -1.20779,-20.36936 29.30938,-15.41069 22.19982,3.60715 16.59363,7.15028 16.59363,7.15028 0,0 -7.18284,25.16839 -45.90301,8.26041 z"
       id="path36671-22"
       sodipodi:nodetypes="cscc" />
    <path
       style="display:inline;fill:#5f771e;fill-opacity:1;stroke:none;stroke-width:1.0154px;stroke-linecap:butt;stroke-linejoin:miter;stroke-opacity:1"
       d="m 279.04689,512.43311 c 0,0 -4.28821,-20.27976 27.1164,-19.90534 22.84542,0.27239 17.74857,4.67788 17.74857,4.67788 0,0 -3.41616,26.36725 -44.86497,15.22746 z"
       id="path36671-0"
       sodipodi:nodetypes="cscc" />
    <path
       style="display:inline;fill:#5f771e;fill-opacity:1;stroke:none;stroke-width:1.0154px;stroke-linecap:butt;stroke-linejoin:miter;stroke-opacity:1"
       d="m 273.04689,512.43311 c 0,0 9.48357,-18.43148 -20.90848,-26.35066 -22.10882,-5.76083 -18.35391,-0.16736 -18.35391,-0.16736 0,0 -3.6569,26.33494 39.26239,26.51802 z"
       id="path36671-0-7"
       sodipodi:nodetypes="cscc" />
    <path
       style="display:inline;fill:#76952b;fill-opacity:1;stroke:none;stroke-width:1.0154px;stroke-linecap:butt;stroke-linejoin:miter;stroke-opacity:1"
       d="m 289.32801,386.57708 c 0,0 6.03604,-19.82986 -25.2821,-22.18866 -22.7825,-1.71591 -18.08819,3.11625 -18.08819,3.11625 0,0 1.10958,26.56446 43.37029,19.07241 z"
       id="path36671-4-1"
       sodipodi:nodetypes="cscc" />
    <path
       style="display:inline;fill:#76952b;fill-opacity:1;stroke:none;stroke-width:0.962944px;stroke-linecap:butt;stroke-linejoin:miter;stroke-opacity:1"
       d="m 287.40142,344.69225 c 0,0 5.5037,-18.87108 -24.22056,-20.76026 -21.62302,-1.37429 -17.11791,3.15582 -17.11791,3.15582 0,0 1.34703,25.17799 41.33847,17.60444 z"
       id="path36671-21-9"
       sodipodi:nodetypes="cscc" />
    <path
       style="display:inline;fill:#76952b;fill-opacity:1;stroke:none;stroke-width:0.910484px;stroke-linecap:butt;stroke-linejoin:miter;stroke-opacity:1"
       d="m 286.51374,307.12715 c 0,0 2.58673,-18.40548 -25.48329,-16.13591 -20.41963,1.65102 -15.58883,5.27799 -15.58883,5.27799 0,0 4.68022,23.37645 41.07212,10.85792 z"
       id="path36671-2-6"
       sodipodi:nodetypes="cscc" />
    <path
       style="display:inline;fill:#5f771e;fill-opacity:1;stroke:none;stroke-width:0.910484px;stroke-linecap:butt;stroke-linejoin:miter;stroke-opacity:1"
       d="m 283.77236,268.77368 c 0,0 3.20394,-18.30814 -24.92652,-16.98337 -20.46357,0.96372 -15.75743,4.75101 -15.75743,4.75101 0,0 3.89184,23.52057 40.68395,12.23236 z"
       id="path36671-9-7"
       sodipodi:nodetypes="cscc" />
    <path
       style="display:inline;fill:#76952b;fill-opacity:1;stroke:none;stroke-width:0.850633px;stroke-linecap:butt;stroke-linejoin:miter;stroke-opacity:1"
       d="m 277.37737,233.90936 c 0,0 3.32342,-17.04356 -22.97685,-16.31418 -19.13223,0.53061 -14.80467,4.15329 -14.80467,4.15329 0,0 3.21052,22.04059 37.78152,12.16089 z"
       id="path36671-09"
       sodipodi:nodetypes="cscc" />
    <path
       style="display:inline;fill:#5f771e;fill-opacity:1;stroke:none;stroke-width:1px;stroke-linecap:butt;stroke-linejoin:miter;stroke-opacity:1"
       d="m 260.63778,147.53827 c 0,0 68.17723,275.78915 -12.22578,410.05437 -80.403,134.26521 16.39285,3.90305 16.39285,3.90305 0,0 82.48083,-162.60045 -4.16707,-413.95742 z"
       id="path4301"
       sodipodi:nodetypes="cscc" />
    <path
       style="display:inline;fill:#5f771e;fill-opacity:1;stroke:none;stroke-width:0.985591px;stroke-linecap:butt;stroke-linejoin:miter;stroke-opacity:1"
       d="m 287.58757,427.54672 c 0,0 5.22665,-19.42884 -25.23057,-20.72367 -22.15617,-0.94194 -17.44885,3.59693 -17.44885,3.59693 0,0 1.91912,25.73553 42.67942,17.12674 z"
       id="path36671-3-0"
       sodipodi:nodetypes="cscc" />
    <path
       style="display:inline;fill:#5f771e;fill-opacity:1;stroke:none;stroke-width:0.999581px;stroke-linecap:butt;stroke-linejoin:miter;stroke-opacity:1"
       d="m 283.63487,466.17632 c 0,0 5.31226,-19.70151 -25.57647,-21.03265 -22.47011,-0.9684 -17.69865,3.63771 -17.69865,3.63771 0,0 1.9312,26.10194 43.27512,17.39494 z"
       id="path36671-22-2"
       sodipodi:nodetypes="cscc" />
  </g>
  <g
     inkscape:groupmode="layer"
     id="layer14"
     inkscape:label="grass front"
     style="display:inline">
    <path
       id="path3692-64"
       style="display:inline;fill:#85953a;fill-opacity:1;stroke:none;stroke-width:40;stroke-miterlimit:4;stroke-dasharray:none;stroke-opacity:1"
       d="M 559.29297,564.23633 C 334.35626,561.6232 193.47444,626.97993 137.5,659.42578 A 370,370 0 0 0 400,770 370,370 0 0 0 721.25391,581.74023 c -24.13413,-7.0429 -56.79862,-12.33475 -100.30469,-15.14062 -21.20579,-1.36764 -41.75815,-2.13212 -61.65625,-2.36328 z" />
  </g>
  <g
     inkscape:groupmode="layer"
     id="layer13"
     inkscape:label="sign"
     style="display:inline">
    <path
       style="fill:#5f771e;fill-opacity:1;stroke:none;stroke-width:1px;stroke-linecap:butt;stroke-linejoin:miter;stroke-opacity:1"
       d="m 461.77495,663.28015 c 0,0 13.24742,-252.80494 4.96778,-314.62623 0,0 33.67053,172.21646 6.62371,326.7697 z"
       id="path23397" />
    <path
       style="fill:#5f771e;fill-opacity:1;stroke:none;stroke-width:1.05724px;stroke-linecap:butt;stroke-linejoin:miter;stroke-opacity:1"
       d="m 431.41756,680.47852 c 0,0 -28.96432,-94.81535 -43.27951,-242.66463 0,0 43.00306,180.52478 63.47651,244.19412 20.47345,63.66932 -20.197,-1.52949 -20.197,-1.52949 z"
       id="path23395" />
    <path
       id="rect9919"
       style="fill:#473d21;fill-opacity:1;stroke-width:2.63054"
       d="m 438.18305,549.45513 14.597,-2.76961 6.9949,114.59463 -13.19835,2.33944 z"
       sodipodi:nodetypes="ccccc" />
    <path
       id="rect26504"
       style="fill:#6a5c37;fill-opacity:1;stroke-width:3.10913"
       d="m 365.4869,512.32202 40.16801,-2.2079 47.06771,-3.03587 32.16438,3.03587 h 39.61604 v 21.07652 21.07651 10.53826 10.53826 l -2.2079,16.66071 -40.99598,-1.37994 -46.23976,3.03587 -29.40449,2.75988 h -39.61604 l 2.2079,-21.35251 6.62371,-9.57231 -8.83161,-11.22822 v -21.07651 z"
       sodipodi:nodetypes="ccccccccccccccccccc" />
    <text
       xml:space="preserve"
       style="font-style:normal;font-variant:normal;font-weight:normal;font-stretch:normal;font-size:24.7754px;line-height:1.25;font-family:Jokerman;-inkscape-font-specification:'Jokerman, Normal';font-variant-ligatures:normal;font-variant-caps:normal;font-variant-numeric:normal;font-variant-east-asian:normal;fill:#aca591;fill-opacity:1;stroke:none;stroke-width:0.619388"
       x="416.95093"
       y="555.81897"
       id="text24716"
       transform="matrix(0.93663137,-0.06580129,0.00903145,1.0670214,0,0)"><tspan
         sodipodi:role="line"
         id="tspan26246"
         x="416.95093"
         y="555.81897"
         style="font-style:normal;font-variant:normal;font-weight:normal;font-stretch:normal;font-size:24.7754px;font-family:Jokerman;-inkscape-font-specification:'Jokerman, Normal';font-variant-ligatures:normal;font-variant-caps:normal;font-variant-numeric:normal;font-variant-east-asian:normal;fill:#aca591;fill-opacity:1;stroke-width:0.619388">BEWARE</tspan><tspan
         sodipodi:role="line"
         id="tspan26248"
         x="416.95093"
         y="586.78821"
         style="font-style:normal;font-variant:normal;font-weight:normal;font-stretch:normal;font-size:24.7754px;font-family:Jokerman;-inkscape-font-specification:'Jokerman, Normal';font-variant-ligatures:normal;font-variant-caps:normal;font-variant-numeric:normal;font-variant-east-asian:normal;fill:#aca591;fill-opacity:1;stroke-width:0.619388" /></text>
    <path
       id="path40630"
       style="fill:#aca591;fill-opacity:1;stroke-width:5"
       d="m 381.0679,522.83797 a 3.863831,3.863831 0 0 1 -3.86383,3.86384 3.863831,3.863831 0 0 1 -3.86384,-3.86384 3.863831,3.863831 0 0 1 3.86384,-3.86383 3.863831,3.863831 0 0 1 3.86383,3.86383 z" />
    <path
       id="path40632"
       style="fill:#aca591;fill-opacity:1;stroke-width:5"
       d="m 518.96953,522.24846 a 3.4498491,3.4498491 0 0 1 -3.44985,3.44985 3.4498491,3.4498491 0 0 1 -3.44985,-3.44985 3.4498491,3.4498491 0 0 1 3.44985,-3.44985 3.4498491,3.4498491 0 0 1 3.44985,3.44985 z" />
    <path
       id="path40634"
       style="fill:#aca591;fill-opacity:1;stroke-width:5"
       d="m 518.41755,581.30244 a 3.0358672,3.3118551 0 0 1 -3.03587,3.31185 3.0358672,3.3118551 0 0 1 -3.03587,-3.31185 3.0358672,3.3118551 0 0 1 3.03587,-3.31186 3.0358672,3.3118551 0 0 1 3.03587,3.31186 z" />
    <path
       id="path40636"
       style="fill:#aca591;fill-opacity:1;stroke-width:5"
       d="m 379.06903,585.8187 a 3.0358672,3.3118551 0 0 1 -3.03587,3.31185 3.0358672,3.3118551 0 0 1 -3.03587,-3.31185 3.0358672,3.3118551 0 0 1 3.03587,-3.31186 3.0358672,3.3118551 0 0 1 3.03587,3.31186 z" />
  </g>
  <g
     inkscape:groupmode="layer"
     id="layer3"
     inkscape:label="fox"
     style="display:inline">
    <path
       id="path852"
       style="fill:#473d21;fill-opacity:1;stroke-width:0.53239"
       d="m 240.78728,532.84628 c -7.32447,18.33833 -34.10236,28.77972 -66.59686,21.23917 -32.49452,-7.54054 -50.50349,-13.5374 -46.21757,-32.80803 4.28594,-19.27061 17.63278,-35.76717 50.12726,-28.22664 16.24727,3.77027 35.68864,22.9598 48.03541,30.12137 12.34678,7.1616 17.59893,2.29524 14.65176,9.67413 z"
       sodipodi:nodetypes="ssssss" />
    <path
       style="fill:#6a5c37;fill-opacity:1;stroke:none;stroke-width:0.525978;stroke-linecap:butt;stroke-linejoin:miter;stroke-miterlimit:4;stroke-dasharray:none;stroke-opacity:1"
       d="m 152.41442,512.76331 c 1.16854,-3.70651 22.58814,-10.68449 41.11106,5.52894 18.52298,16.21346 17.10918,19.36061 42.17608,22.19875 25.0669,2.83814 26.39779,-19.19383 26.39779,-19.19383 0,0 10.29876,20.57828 -1.9418,37.09982 -4.47464,6.03961 -9.92745,10.24515 -13.68924,11.82263 -3.76178,1.57749 -12.32574,4.40125 -19.29937,5.26527 -13.94723,1.72812 -38.99652,-4.10964 -54.86779,-9.77853 -15.8713,-5.66885 -34.06909,-17.05304 -46.42662,-35.31099 -12.35753,-18.25797 -1.47218,-26.69555 3.84232,-29.92921 6.4973,-3.95338 12.89737,-3.52308 12.89737,-3.52308 0,0 -4.994,4.9604 -8.85548,11.29348 -1.47878,2.42529 -2.65519,5.57981 -2.43227,7.74217 0.28672,2.78125 -0.3253,2.54291 2.32053,6.88346 11.90582,19.5319 10.09436,5.67745 12.77924,-0.72056 0,0 2.60834,-7.45466 5.98818,-9.37832 z"
       id="path2295"
       sodipodi:nodetypes="csscsssssscssscc" />
    <path
       style="fill:#6a5c37;fill-opacity:1;stroke:none;stroke-width:0.419867px;stroke-linecap:butt;stroke-linejoin:miter;stroke-opacity:1"
       d="m 255.54474,493.99076 c 0,0 -7.02354,-3.24298 10.89248,-22.16446 4.479,-4.73036 15.30853,-7.68771 17.39688,-6.44003 1.04418,0.62384 0.17605,1.65066 -0.18843,4.27193 -0.36448,2.62129 -0.22532,6.83702 -0.10042,8.9738 0.24977,4.27358 -0.14758,11.73538 -1.18425,16.08264 -1.03671,4.34727 -4.98346,6.8869 -6.75457,8.35566 -7.0844,5.87512 -15.389,3.93717 -15.389,3.93717 z"
       id="path9213"
       sodipodi:nodetypes="csssssscc" />
    <path
       style="fill:#ffffff;fill-opacity:1;stroke:none;stroke-width:0.280752px;stroke-linecap:butt;stroke-linejoin:miter;stroke-opacity:1"
       d="m 263.15992,496.96899 c 0,0 -4.92193,-0.0698 3.53389,-17.30041 2.11399,-4.30766 7.57148,-8.8808 9.07768,-8.67864 1.50619,0.2022 3.12127,5.46989 3.384,8.20882 0.31953,3.3311 0.3006,6.61916 -0.011,9.67265 -0.36901,3.61612 -2.15258,7.00109 -3.04906,8.44726 -3.58587,5.78472 -8.02407,6.64838 -8.02407,6.64838 z"
       id="path9213-8"
       sodipodi:nodetypes="cssssscc" />
    <path
       style="fill:#473d21;fill-opacity:1;stroke:none;stroke-width:0.419867px;stroke-linecap:butt;stroke-linejoin:miter;stroke-opacity:1"
       d="m 255.54474,493.99076 c 0,0 -7.02354,-3.24298 10.89248,-22.16446 4.479,-4.73036 15.26403,-7.75313 17.35237,-6.50543 1.04419,0.62385 0.85913,0.58791 0.34233,1.22616 -0.51686,0.63826 -3.15295,1.75609 -5.0465,2.86558 -2.76713,1.62139 -3.06908,1.97281 -6.47991,5.84418 -3.41083,3.87135 -9.77875,13.56522 -10.29708,15.73882 -1.03672,4.34728 8.11694,12.57406 6.34579,14.04285 -7.08438,5.8751 -8.43679,1.96901 -8.43679,1.96901 z"
       id="path9213-9"
       sodipodi:nodetypes="cssssssscc" />
    <path
       style="fill:#6a5c37;fill-opacity:1;stroke:none;stroke-width:0.419867px;stroke-linecap:butt;stroke-linejoin:miter;stroke-opacity:1"
       d="m 226.31138,483.65494 c 0,0 7.70587,0.17506 -0.44809,-24.79612 -2.03848,-6.24277 -10.55412,-13.68929 -12.96525,-13.48573 -1.20557,0.10178 -0.85698,1.41093 -1.63702,3.93581 -0.78006,2.52483 -2.68875,6.26535 -3.70522,8.13726 -2.03292,3.74387 -4.83079,10.6486 -5.7347,15.02667 -0.90388,4.37809 1.58126,8.41029 2.55726,10.51655 3.90392,8.425 12.21312,10.34237 12.21312,10.34237 z"
       id="path9213-7"
       sodipodi:nodetypes="csssssscc" />
    <path
       style="fill:#ffffff;fill-opacity:1;stroke:none;stroke-width:0.280752px;stroke-linecap:butt;stroke-linejoin:miter;stroke-opacity:1"
       d="m 218.18396,482.97997 c 0,0 4.4683,2.10933 4.13073,-17.16189 -0.0844,-4.8178 -3.07185,-11.35066 -4.5157,-11.83305 -1.44387,-0.48246 -5.12858,3.55548 -6.52404,5.9096 -1.69717,2.8631 -3.07087,5.83679 -4.08146,8.72811 -1.19674,3.42401 -1.01998,7.26389 -0.82324,8.96374 0.78704,6.79949 4.42427,9.53711 4.42427,9.53711 z"
       id="path9213-8-6"
       sodipodi:nodetypes="cssssscc" />
    <path
       style="fill:#473d21;fill-opacity:1;stroke:none;stroke-width:0.419867px;stroke-linecap:butt;stroke-linejoin:miter;stroke-opacity:1"
       d="m 226.31138,483.65494 c 0,0 7.70587,0.17506 -0.44809,-24.79612 -2.03848,-6.24277 -10.48633,-13.72861 -12.89743,-13.52506 -1.20558,0.10179 -1.0235,0.15105 -0.82736,0.95475 0.1961,0.80368 2.10066,2.97517 3.33903,4.81145 1.80972,2.68348 1.93335,3.13365 3.37187,8.13034 1.43851,4.99668 3.08103,16.5494 2.62908,18.73843 -0.90388,4.37807 -12.63881,7.75758 -11.66282,9.86385 3.90394,8.42499 6.77582,5.49917 6.77582,5.49917 z"
       id="path9213-9-0"
       sodipodi:nodetypes="cssssssscc" />
    <path
       id="path5781"
       style="display:inline;fill:#6a5c37;fill-opacity:1;stroke-width:0.515787"
       d="m 274.43124,519.62558 c -1.72808,7.7699 -6.32579,7.21298 -15.06684,10.53924 -8.74104,3.32622 -19.48843,13.35228 -31.09875,10.65803 -11.61026,-2.69422 -15.77402,-13.81295 -22.25011,-20.67041 -6.4761,-6.85748 -17.40154,-12.2703 -15.67346,-20.04022 0.86405,-3.88496 2.87317,-7.23686 5.76367,-9.99523 2.89047,-2.75839 6.66232,-4.92322 11.05179,-6.43406 4.38946,-1.51084 9.39658,-2.36767 14.75762,-2.51 5.36103,-0.14236 11.07598,0.4298 16.88112,1.77692 23.2206,5.38846 39.09113,21.13591 35.63496,36.67573 z"
       sodipodi:nodetypes="ssssssssss" />
    <path
       id="path5781-5"
       style="display:inline;fill:#473d21;fill-opacity:1;stroke-width:0.515787"
       d="m 238.79623,482.94968 c -3.97673,-0.92283 -7.90776,-1.47316 -11.71507,-1.68806 0.73824,8.90201 4.60139,57.17433 1.2452,58.14291 1.76871,0.67825 4.724,1.84929 4.724,1.84929 0,0 8.0007,-31.19184 23.39519,-51.49355 -5.11691,-2.93772 -11.08902,-5.28826 -17.64932,-6.81059 z m -10.46987,56.45485 c -1.25166,-0.47995 -2.00669,-0.75356 -0.26826,-0.0114 0.0948,0.0405 0.18306,0.0363 0.26826,0.0114 z" />
    <path
       id="path5781-2"
       style="display:inline;fill:#ffffff;fill-opacity:1;stroke-width:0.515787"
       d="m 206.40829,499.09473 c -5.88216,-1.37328 -11.7862,-1.44651 -15.38128,-1.31397 -0.27118,0.759 -0.50711,1.53352 -0.68434,2.33204 -1.72808,7.76993 9.19679,13.1823 15.67288,20.03973 6.44819,6.82793 10.60663,17.87719 22.1031,20.63191 -0.69292,-4.03306 -1.92972,-11.60463 -3.8766,-25.24577 -1.43251,-10.03742 -9.58102,-14.51732 -17.83346,-16.44385 z" />
    <path
       id="path36721"
       style="display:inline;fill:#ffffff;fill-opacity:1;stroke:none;stroke-width:0.445557px;stroke-linecap:butt;stroke-linejoin:miter;stroke-opacity:1"
       d="m 236.1928,540.56784 c 0,0 9.63146,2.16339 13.84205,1.43595 4.2106,-0.72748 4.54665,-0.56732 4.54665,-0.56732 0,0 -5.29799,-4.52729 -2.91253,-4.09547 2.38553,0.43154 7.12981,2.33159 7.12981,2.33159 0,0 -1.63346,-4.53264 0.90196,-4.18778 2.53543,0.34484 0,0 0,0 0,0 6.88405,-2.96172 4.22897,-3.94311 -2.65506,-0.98137 1.92811,-1.62236 1.92811,-1.62236 0,0 -4.61645,-1.55829 -0.96327,-0.95405 3.65319,0.60421 8.82249,1.43854 6.59151,0.31205 -2.23099,-1.12648 0.33926,-2.1128 0.33926,-2.1128 l -1.713,-0.51926 4.44233,-1.76943 c 0,0 -2.41125,-0.31606 -0.80878,-1.64873 1.60244,-1.33268 0.68536,-3.60151 0.68536,-3.60151 l 2.82106,-2.76822 c 0,0 3.96975,-1.08407 0.80577,-1.27407 l -3.16395,-0.18996 c -11.85481,10.85187 -24.5425,17.4369 -38.70131,25.17449 z m 32.19345,-27.1389 c -0.7252,-0.16906 -1.4592,-0.32405 -2.20076,-0.45939 -8.323,-1.51972 -17.40419,-0.62124 -22.09642,8.14282 -5.48953,10.25325 -8.89991,16.37603 -11.03855,20.14151 9.77192,-0.4006 18.78701,-8.22462 26.31371,-11.08877 8.74106,-3.32627 13.33895,-2.76915 15.06703,-10.53909 0.31184,-1.40229 0.45918,-2.8167 0.46285,-4.23266 -1.99462,-0.72677 -4.19568,-1.42345 -6.50788,-1.96434 z"
       sodipodi:nodetypes="sscscscscsscccsccsccscscsscssc" />
    <path
       id="path23722-5"
       style="fill:#252424;fill-opacity:1;stroke-width:0.645689"
       d="m 222.90354,521.70182 c -0.41626,2.30828 -2.34619,-0.86425 -5.54303,-1.68054 -3.19682,-0.81624 -7.91476,0.42539 -7.49852,-1.88287 0.41623,-2.30827 4.80998,-2.9103 8.00681,-2.09406 3.19685,0.81626 5.45097,3.34919 5.03474,5.65746 z"
       sodipodi:nodetypes="sssss" />
    <path
       id="path23722-5-0"
       style="fill:#252424;fill-opacity:1;stroke-width:0.600038"
       d="m 243.5321,525.77353 c -0.34308,1.99832 2.42773,0.39752 5.62208,1.22218 3.19437,0.82463 7.05221,4.21331 7.39529,2.21499 0.3431,-1.9983 -3.41786,-4.73762 -6.61222,-5.56227 -3.19437,-0.82465 -6.06204,0.12679 -6.40515,2.1251 z"
       sodipodi:nodetypes="sssss" />
    <ellipse
       style="fill:#252424;fill-opacity:1;stroke:none;stroke-width:0.727004;stroke-miterlimit:4;stroke-dasharray:none"
       id="path20332"
       cx="331.43094"
       cy="483.52493"
       rx="5.3929963"
       ry="2.3642747"
       transform="matrix(0.98037034,0.19716489,-0.19543361,0.98071693,0,0)" />
    <path
       id="path2295-7"
       style="fill:#473d21;fill-opacity:1;stroke:none;stroke-width:0.525978;stroke-linecap:butt;stroke-linejoin:miter;stroke-miterlimit:4;stroke-dasharray:none;stroke-opacity:1"
       d="m 262.09935,521.29717 c 0,0 -1.33122,22.03125 -26.39811,19.1931 -15.58374,-1.76444 -20.93329,-3.65264 -27.20088,-8.72124 l 8.54098,10.35486 -18.46457,1.4084 11.39623,5.63906 -12.47072,4.31729 28.54384,10.79809 -24.80011,2.20098 20.69227,9.29336 c 1.86476,-0.0105 3.62808,-0.0981 5.2305,-0.29666 6.97363,-0.86405 15.53751,-3.68814 19.29928,-5.26566 3.76178,-1.57748 9.21455,-5.78292 13.6892,-11.82253 12.24054,-16.52157 1.94209,-37.09905 1.94209,-37.09905 z"
       sodipodi:nodetypes="csccccccccsssc" />
    <path
       style="fill:#473d21;fill-opacity:1;stroke:none;stroke-width:0.679248px;stroke-linecap:butt;stroke-linejoin:miter;stroke-opacity:1"
       d="m 189.56347,501.53085 2.2279,-5.58599 -2.25802,0.65725 -0.0661,-1.91843 -2.78439,0.25717 0.0601,-2.95583 -3.95762,1.68017 -2.21889,-2.55662 -3.15408,0.75298 -1.38998,-1.80746 -2.20741,0.97266 -2.71533,-2.115 -3.27879,2.2089 -1.91872,-2.11572 -2.74308,1.59076 -2.48675,-2.24756 -1.87492,2.16346 -3.55119,-1.93773 -4.00383,2.78311 -2.84001,-0.65905 -2.71079,2.34072 -2.7292,-0.2621 -0.34813,4.16654 -5.14498,-0.0585 -0.3811,5.29429 -3.42885,1.98848 -0.36026,2.51495 -3.23954,2.03241 1.97642,4.54207 16.315,-10.00229 16.07309,-2.63561 14.32286,-1.72929 z"
       id="path21707" />
    <path
       style="fill:#473d21;fill-opacity:1;stroke:none;stroke-width:0.679248px;stroke-linecap:butt;stroke-linejoin:miter;stroke-opacity:1"
       d="m 254.66222,489.417 -1.48867,-3.82565 2.8666,-0.35564 0.32098,-2.33847 3.16447,-2.14262 -0.98127,-3.19748 2.24319,-0.68593 0.17089,-2.5589 3.09867,-0.95143 1.95117,-4.74434 2.08268,0.48329 0.9675,-2.55963 3.54543,0.1731 1.5713,-2.14112 2.09886,0.85827 2.28937,-1.78886 1.64166,1.12339 2.91626,-1.9218 0.46295,1.4995 2.97396,0.50451 -3.67708,2.20929 -20.29495,10.23212 z"
       id="path25825"
       sodipodi:nodetypes="ccccccccccccccccccccccc" />
    <path
       style="fill:#473d21;fill-opacity:1;stroke:none;stroke-width:0.77176px;stroke-linecap:butt;stroke-linejoin:miter;stroke-opacity:1"
       d="m 227.08116,481.26162 4.27096,-3.27819 1.65065,2.27172 4.33669,-0.65548 1.85953,3.46874 2.68365,-2.57572 2.06776,2.54344 3.87923,-0.79032 1.87494,2.63536 2.82962,-2.28982 3.11692,7.11717 -3.20119,1.0398 -25.36876,-9.4867"
       id="path34656" />
    <path
       style="fill:#473d21;fill-opacity:1;stroke:none;stroke-width:0.758294px;stroke-linecap:butt;stroke-linejoin:miter;stroke-opacity:1"
       d="m 212.15871,445.54856 -0.47869,-2.44691 1.74525,1.40706 1.6275,-0.63593 0.98794,2.07634 2.98564,-0.0868 0.024,2.08972 2.6367,0.55414 0.004,2.15814 1.36525,0.2537 -0.10905,1.45546 2.76265,1.48381 -0.0758,1.61404 1.44484,0.79782 -0.81185,1.39704 1.69892,1.02148 -0.71922,2.16814 2.27466,0.96808 -1.25456,2.0847 1.50427,1.41039 -0.83911,1.76089 2.24033,1.62739 -1.14879,3.08282 2.31502,0.83122 -2.39191,1.60066 2.11928,2.03796 -2.79646,3.78719 -3.45126,-2.1331 -7.00715,-26.16478 z"
       id="path34837" />
    <path
       style="display:inline;fill:#6a5c37;fill-opacity:1;stroke:none;stroke-width:0.758294px;stroke-linecap:butt;stroke-linejoin:miter;stroke-opacity:1"
       d="m 191.02701,497.78076 0.13743,-6.31987 2.58384,0.44614 0.77183,-3.76967 2.35714,0.0637 1.08259,-2.52098 2.61236,0.34934 1.78425,-3.36601 3.17986,0.72701 2.61699,-3.12053 3.331,0.98195 2.48282,-1.89783 2.19444,1.38324 2.48283,-1.89782 2.99867,1.72549 4.17504,-2.65093 1.26306,3.3476 -8.57867,4.5837 -16.81844,4.08834 z"
       id="path35244" />
    <path
       style="fill:#ffffff;fill-opacity:1;stroke:none;stroke-width:0.758294px;stroke-linecap:butt;stroke-linejoin:miter;stroke-opacity:1"
       d="m 224.43336,539.03125 c 0,0 -6.2271,-1.52013 -8.48709,-3.44861 -2.25996,-1.9285 0.9569,-0.55944 0.9569,-0.55944 0,0 -2.73186,-3.01431 -4.96486,-3.88295 -2.23299,-0.86865 -3.10276,-1.75619 -3.10276,-1.75619 l 3.79596,0.17231 -7.82243,-4.93571 3.56925,-0.21009 -6.65735,-5.43377 2.56533,0.1251 c 0,0 -6.18699,-3.19133 -7.58724,-3.8145 -1.40025,-0.62316 -2.35405,-2.37698 -0.99082,-2.39586 1.36325,-0.0189 -3.51757,-3.03556 -5.19155,-4.26535 -1.67398,-1.2298 0.34236,-1.16134 0.78726,-1.13538 0.44491,0.026 -5.02634,-2.55659 -3.38341,-4.25828 1.64292,-1.70168 1.64292,-1.70168 1.64292,-1.70168 0,0 1.89241,-1.4637 -0.35909,-2.65337 -2.2515,-1.18966 1.82263,-1.09672 1.82263,-1.09672 l 6.46011,8.69267 7.65662,8.56847 6.77532,9.25536 8.62893,10.64331 z"
       id="path40101" />
    <path
       style="fill:#6a5c37;fill-opacity:1;stroke:none;stroke-width:0.758294px;stroke-linecap:butt;stroke-linejoin:miter;stroke-opacity:1"
       d="m 212.15871,445.54856 -3.05543,2.22324 2.05876,2.24326 -3.20048,0.54413 0.98794,2.07637 -2.37171,1.53223 0.84071,2.03295 -2.3859,2.12311 0.69352,1.98956 -2.82754,1.9929 0.82655,2.62383 -1.90392,2.11642 0.84072,2.03297 -2.74903,3.35489 1.1755,1.98289 -2.18636,3.07449 3.18412,1.68244 -2.37174,1.53223 5.82189,2.68398 -1.37391,-15.05868 7.08577,-12.63843 2.13619,-5.61819 z"
       id="path40491" />
    <path
       style="fill:#6a5c37;fill-opacity:1;stroke:none;stroke-width:0.758294px;stroke-linecap:butt;stroke-linejoin:miter;stroke-opacity:1"
       d="m 284.3493,466.34623 1.80932,1.05404 -1.68854,1.91697 1.32313,1.65232 -1.74414,1.69481 0.83968,2.14095 -0.62765,2.12913 1.37017,1.87657 -1.79274,2.62719 1.61692,1.42335 -1.11959,1.87893 1.04787,2.20232 -2.17055,1.98987 1.20903,2.03944 -1.20518,2.16927 1.02782,3.03791 -2.24457,0.70579 0.56595,1.53429 -1.79965,0.73175 -0.5521,2.2566 -1.8652,0.18649 -0.34389,2.31796 -2.79048,-1.66411 -0.2213,2.66968 -6.92228,-0.9507 3.76247,-0.61192 7.58265,-6.91618 1.50205,-4.71147 0.85048,-5.95545 -0.88436,-11.2004 -0.36317,-4.52501 z"
       id="path41033" />
    <path
       style="fill:#6a5c37;fill-opacity:1;stroke:none;stroke-width:0.758294px;stroke-linecap:butt;stroke-linejoin:miter;stroke-opacity:1"
       d="m 270.14474,508.83235 7.33271,-2.07804 -2.26254,-4.50624 z"
       id="path41101" />
    <path
       style="display:inline;fill:#6a5c37;fill-opacity:1;stroke:none;stroke-width:0.758294px;stroke-linecap:butt;stroke-linejoin:miter;stroke-opacity:1"
       d="m 256.44555,489.76027 4.16007,-0.12885 1.52978,2.87031 4.02263,0.55471 0.4503,3.07804 3.81444,0.49333 -0.67623,3.06153 2.11887,1.25576 -0.0316,2.41003 3.15981,1.56262 -0.57214,3.09221 3.67873,2.87267 -2.4728,1.48002 2.54374,2.11733 -3.27704,0.91339 -12.68009,-10.87687 -4.56929,-9.44657 z"
       id="path39694" />
    <ellipse
       style="fill:#000000;fill-opacity:1;stroke:none;stroke-width:2.33148;stroke-opacity:1"
       id="path11241"
       cx="370.32901"
       cy="420.36285"
       rx="5.0002699"
       ry="4.5136981"
       transform="matrix(0.94524258,0.32636861,-0.24407679,0.96975591,0,0)" />
    <ellipse
       style="display:inline;fill:#000000;fill-opacity:1;stroke:none;stroke-width:2.35693;stroke-opacity:1"
       id="path11241-1"
       cx="338.34689"
       cy="421.71088"
       rx="5.0114985"
       ry="4.602416"
       transform="matrix(0.94312471,0.33243914,-0.23937188,0.97092796,0,0)" />
  </g>
  <g
     inkscape:groupmode="layer"
     id="layer6"
     inkscape:label="grass"
     style="display:inline">
    <path
       id="path3692-60"
       style="display:inline;fill:#6f7f24;fill-opacity:1;stroke:none;stroke-width:40;stroke-miterlimit:4;stroke-dasharray:none;stroke-opacity:1"
       d="m 754.0918,290.61133 c -11.60551,0.1932 -23.12866,0.46456 -34.26563,0.91406 -85.28592,3.4422 -62.8418,146.86914 -62.84179,146.86914 0,0 49.37725,160.63396 -138.02735,203.08789 C 331.55242,683.93634 323.69418,628.86374 169.95508,540.51367 124.70302,514.50843 85.785356,513.60985 53.261719,525.0625 A 370,370 0 0 0 388.78125,773.05469 h 26.4375 A 370,370 0 0 0 772,404 370,370 0 0 0 754.0918,290.61133 Z" />
    <path
       style="display:inline;fill:#6f7f24;fill-opacity:1;stroke:none;stroke-width:1px;stroke-linecap:butt;stroke-linejoin:miter;stroke-opacity:1"
       d="m 449.00742,733.52453 c 0,0 -38.51977,-80.93558 -67.93952,-210.68656 0,0 61.27673,155.49368 88.15997,209.725 26.88325,54.23132 -20.22045,0.96156 -20.22045,0.96156 z"
       id="path23395-2" />
  </g>
  <g
     inkscape:groupmode="layer"
     id="layer5"
     inkscape:label="trees"
     style="display:inline">
    <path
       id="path3692-10"
       style="display:inline;fill:#473d21;fill-opacity:1;stroke:none;stroke-width:40;stroke-miterlimit:4;stroke-dasharray:none;stroke-opacity:1"
       d="m 662.73047,322.73633 c -7.9148,0.30847 -10.66941,3.37872 9.97851,14.42578 19.78491,10.58536 59.7551,45.95838 96.06641,79.94922 A 370,370 0 0 0 770,400 a 370,370 0 0 0 -0.0859,-3.53516 c -6.42434,-5.64361 -12.522,-10.9658 -17.82422,-15.52343 -38.0846,-32.73643 -68.36914,-56.06055 -68.36914,-56.06055 0,0 -13.07543,-2.453 -20.99023,-2.14453 z" />
    <path
       id="path3692-79"
       style="display:inline;fill:#473d21;fill-opacity:1;stroke:none;stroke-width:50.9482;stroke-miterlimit:4;stroke-dasharray:none;stroke-opacity:1"
       d="M 30.814406,366.25195 A 370,600.26024 0 0 0 29.498,396.1002 c 15.230464,19.34119 25.886719,33.23548 25.886719,33.23548 l 25.21875,-5.1173 c 0,0 -23.417487,-27.44983 -49.789063,-57.96643 z" />
    <path
       style="fill:#6a5c37;fill-opacity:1;stroke:none;stroke-width:1px;stroke-linecap:butt;stroke-linejoin:miter;stroke-opacity:1"
       d="m 135.05671,336.21975 c 0,0 94.4129,-116.77843 112.08474,-157.84411 17.67183,-41.06567 6.93687,14.49987 6.93687,14.49987 0,0 -17.52464,28.72399 -41.74567,64.1817 -24.22104,35.4577 -74.12055,104.38078 -74.12055,104.38078 z"
       id="path96321"
       sodipodi:nodetypes="cscscc" />
    <path
       id="path3692-1"
       style="display:inline;fill:#6a5c37;fill-opacity:1;stroke:none;stroke-width:40;stroke-miterlimit:4;stroke-dasharray:none;stroke-opacity:1"
       d="m 149.88281,128.19141 a 370,370 0 0 0 -32.35156,33.30664 v 26.64648 99.66211 99.66211 99.66406 l -3.08594,99.66211 v 47.58594 a 370,370 0 0 0 36.19531,38.18555 l -1.70507,-85.77149 2.52343,-100.64258 -2,-105.98046 -1.6289,-95.67774 0.87695,-96.34961 z" />
    <path
       id="path3692-1-9"
       style="display:inline;fill:#473d21;fill-opacity:1;stroke:none;stroke-width:40;stroke-miterlimit:4;stroke-dasharray:none;stroke-opacity:1"
       d="m 149.88281,128.19141 c -11.47053,10.41395 -22.27565,21.53806 -32.35156,33.30664 v 26.64648 99.66211 99.66211 99.66406 l -3.08594,99.66211 v 47.39453 c 12.94005,-20.64575 33.70449,-67.41286 25.67362,-173.62759 -12.09947,-160.0254 -9.06356,-174.99239 -7.82568,-189.59538 0.91171,-10.75524 10.35008,-53.71818 16.363,-77.25164 l 0.0508,-5.57031 z"
       sodipodi:nodetypes="ccccccccssccc" />
    <path
       id="path3692-52"
       style="display:inline;fill:#473d21;fill-opacity:1;stroke:none;stroke-width:40;stroke-miterlimit:4;stroke-dasharray:none;stroke-opacity:1"
       d="M 90.365234,197.78711 A 370,370 0 0 0 48.21875,287.09766 v 66.45507 100 59.34961 a 370,370 0 0 0 49.867188,99.625 l -1.730469,-34.6875 -1.173828,-115.45507 0.232421,-55.72852 -1.40625,-89.07422 -3.521484,-105.51953 z" />
    <path
       id="path3692-52-6"
       style="display:inline;fill:#6a5c37;fill-opacity:1;stroke:none;stroke-width:40;stroke-miterlimit:4;stroke-dasharray:none;stroke-opacity:1"
       d="m 90.365234,197.78711 a 370,370 0 0 0 -31.416015,60.0625 c 21.706089,46.2283 23.806584,80.25396 24.576172,98.10937 0.914544,21.21857 -2.921565,46.02427 -25.759766,110.84766 -6.939029,19.69557 -6.106084,43.78013 -1.617187,67.76953 a 370,370 0 0 0 41.042968,76.58008 l 0.345703,-9.63281 -1.18164,-23.6836 -1.173828,-115.45507 0.232421,-55.72852 -1.40625,-89.07422 -3.521484,-105.51953 z" />
    <path
       id="path3692-8"
       style="display:inline;fill:#76952b;fill-opacity:1;stroke:none;stroke-width:40;stroke-miterlimit:4;stroke-dasharray:none;stroke-opacity:1"
       d="M 389.61032,30.086 C 258.90731,33.746514 139.84141,106.12042 76.415,220.461 c 7.987931,2.02005 17.7029,3.10789 29.7461,2.79687 92.54983,-2.39009 86.60252,-40.53331 122.19922,-74.47461 21.57677,-20.57336 28.27058,-32.22689 73.47851,-29.10156 45.20793,3.12531 63.81853,-21.68382 77.23828,-60.896481 3.78676,-11.064958 5.03156,-21.179781 10.53321,-28.699219 z"
       sodipodi:nodetypes="ccssssc" />
    <path
       id="path3692-97"
       style="display:inline;fill:#5f771e;fill-opacity:1;stroke:none;stroke-width:40;stroke-miterlimit:4;stroke-dasharray:none;stroke-opacity:1"
       d="M 377.13867,31.634766 A 370,370 0 0 0 91.962891,195.6543 c 3.844386,0.24348 7.878376,0.37663 12.328129,0.26172 92.54983,-2.39009 86.60251,-40.53331 122.19921,-74.47461 21.57677,-20.57336 28.27059,-32.226896 73.47852,-29.101566 45.13267,3.120107 63.7552,-21.605611 77.16992,-60.705078 z" />
    <path
       id="path3692-0"
       style="display:inline;fill:#473d21;fill-opacity:1;stroke:none;stroke-width:40;stroke-miterlimit:4;stroke-dasharray:none;stroke-opacity:1"
       d="m 741.308,256.358 c 0,0 6.55674,42.92419 7.17568,70.23312 1.20757,54.2185 -42.50213,128.96159 -23.18298,185.81511 l 16.0073,40.35021 c 20.47629,-46.60674 31.11479,-96.93748 31.25,-147.84375 -0.0372,-51.14587 -10.67778,-101.72857 -31.25,-148.55469 z"
       sodipodi:nodetypes="cccccc" />
    <path
       id="path3692-28"
       style="display:inline;fill:#76952b;fill-opacity:1;stroke:none;stroke-width:39.86;stroke-miterlimit:4;stroke-dasharray:none;stroke-opacity:1"
       d="m 575.54846,73.802 c 0.51026,5.066994 -0.15492,10.655368 0.0137,16.904297 0.80803,29.968173 8.25832,51.108593 39.92447,58.695313 31.6662,7.5867 33.7619,17.0772 44.15252,35.9336 17.14214,31.10869 4.8993,56.16403 67.84534,77.76367 7.21821,2.47688 13.38193,3.76308 18.79951,4.26953 A 367.41724,370 0 0 0 575.54846,73.802 Z" />
    <path
       id="path3692-32"
       style="display:inline;fill:#5f771e;fill-opacity:1;stroke:none;stroke-width:40;stroke-miterlimit:4;stroke-dasharray:none;stroke-opacity:1"
       d="m 578.50977,76.007812 c 1.44564,27.600828 9.66653,47.043788 39.73632,54.248048 31.6662,7.5867 33.76173,17.07719 44.15235,35.93359 17.14214,31.10869 4.89966,56.16404 67.8457,77.76367 2.09424,0.71863 4.07576,1.30969 6,1.8379 A 370,370 0 0 0 578.50977,76.007812 Z" />
    <path
       id="path3692-90"
       style="display:inline;fill:#6a5c37;fill-opacity:1;stroke:none;stroke-width:40;stroke-miterlimit:4;stroke-dasharray:none;stroke-opacity:1"
       d="m 770.917,370.68679 c -53.27758,57.99936 -37.41624,126.32722 -21.57148,164.53354 A 370,370 0 0 0 772.80396,399.5599 370,370 0 0 0 770.917,370.68679 Z" />
  </g>
  <g
     inkscape:groupmode="layer"
     id="layer4"
     inkscape:label="sky"
     style="display:inline">
    <circle
       style="opacity:1;fill:#e6d249;fill-opacity:1;stroke:none;stroke-width:0.953994;stroke-miterlimit:4;stroke-dasharray:none;stroke-opacity:1"
       id="path56323"
       cx="-268.77411"
       cy="433.87466"
       r="42.732143"
       transform="rotate(-90.765992)" />
  </g>
  <g
     inkscape:groupmode="layer"
     id="layer8"
     inkscape:label="flower1"
     style="display:inline">
    <path
       style="fill:#dc7530;fill-opacity:1;stroke:none;stroke-width:1.04721px;stroke-linecap:butt;stroke-linejoin:miter;stroke-opacity:1"
       d="m 220.23306,155.68061 c 0,0 -0.42621,36.03678 31.49031,49.75839 31.91654,13.72162 45.86398,-7.6735 45.86398,-7.6735 0,0 20.01881,-9.53705 8.75377,-60.50155 -5.63252,-25.48226 -7.76379,-19.24815 -13.28149,-10.309 -5.5177,8.93915 -14.42185,20.58332 -14.42185,20.58332 L 266.45947,116.97175 251.6984,151.39232 225.75969,124.6848 Z"
       id="path38056"
       sodipodi:nodetypes="cscssccccc" />
    <path
       id="path38056-8"
       style="display:inline;fill:#e88c4f;fill-opacity:1;stroke:none;stroke-width:1.04721px;stroke-linecap:butt;stroke-linejoin:miter;stroke-opacity:1"
       d="m 309.55106,158.7011 -83.37609,21.88812 c 4.41638,9.33585 12.10603,19.07152 25.5474,24.85027 31.91654,13.72162 45.86415,-7.67354 45.86415,-7.67354 0,0 14.10771,-6.7373 11.96454,-39.06485 z" />
  </g>
  <g
     inkscape:groupmode="layer"
     id="layer16"
     inkscape:label="mushroom3"
     style="display:inline">
    <path
       id="path3692-644"
       style="display:inline;fill:#dc7530;fill-opacity:1;stroke:none;stroke-width:40;stroke-miterlimit:4;stroke-dasharray:none;stroke-opacity:1"
       d="m 304.98439,687.81435 c 0,0 -46.62584,35.38065 -50.10413,51.74542 -0.168,0.79039 -0.30572,1.51844 -0.42731,2.20918 a 370,370 0 0 0 44.22208,16.2902 c 6.24501,-9.25842 13.02936,-27.49702 18.60111,-62.44413 0,0 -2.52801,-3.51742 -6.06558,-5.06946 z" />
    <path
       id="path3692-9"
       style="display:inline;fill:#dc7530;fill-opacity:1;stroke:none;stroke-width:40;stroke-miterlimit:4;stroke-dasharray:none;stroke-opacity:1"
       d="m 138.10547,621.44531 c -8.56928,7.48171 -14.66585,13.81617 -18.96289,19.21094 a 370,370 0 0 0 34.69336,35.10547 c 6.8998,-9.90612 -2.10352,-49.52539 -2.10352,-49.52539 l -6.11328,-2.87695 c -3.47213,-1.63471 -7.51367,-1.91407 -7.51367,-1.91407 z" />
    <path
       id="path3692-4"
       style="display:inline;fill:#dc7530;fill-opacity:1;stroke:none;stroke-width:40;stroke-miterlimit:4;stroke-dasharray:none;stroke-opacity:1"
       d="m 236.22852,601.95117 c -0.74706,0.006 -1.18555,0.0391 -1.18555,0.0391 -41.17361,47.41954 -56.06148,75.86859 -59.52539,92.97266 a 370,370 0 0 0 62.52539,39.0957 c 2.00556,-1.86086 4.45368,-4.51481 7.42969,-8.32031 16.77063,-21.44508 12.15039,-116.57422 12.15039,-116.57422 l -9.91602,-4.9082 c -4.22515,-2.09162 -9.23735,-2.32125 -11.47851,-2.30469 z" />
    <path
       style="display:inline;fill:#dc7530;fill-opacity:1;stroke:none;stroke-width:0.683265px;stroke-linecap:butt;stroke-linejoin:miter;stroke-opacity:1"
       d="m 154.86058,585.85621 c 0,0 2.91976,3.30577 8.78846,8.41802 5.8687,5.11228 14.68634,12.03106 26.48213,19.25715 11.79577,7.22608 23.52245,2.16358 41.30365,8.50503 17.7812,6.34144 44.36247,15.61646 68.18746,18.07482 95.29995,9.83338 37.76474,-13.70785 12.49893,-50.89994 -25.26583,-37.19207 -52.92769,-43.59258 -52.92769,-43.59258 0,0 -18.67587,-7.90017 -42.85925,4.39849 -24.18337,12.29871 -74.55211,23.6806 -61.47369,35.83901 z"
       id="path59824"
       sodipodi:nodetypes="cssssscsc" />
    <path
       id="path59824-9"
       style="display:inline;fill:#e88c4f;fill-opacity:1;stroke:none;stroke-width:0.683265px;stroke-linecap:butt;stroke-linejoin:miter;stroke-opacity:1"
       d="m 266.38012,548.23744 c -4.48539,-1.99447 -7.18702,-2.6194 -7.18702,-2.6194 0,0 -18.67584,-7.89956 -42.85922,4.39914 -17.28186,8.78886 -47.92245,17.10969 -59.23845,25.58013 10.5716,12.81004 28.74858,26.40435 59.6789,31.55899 48.09535,8.01525 85.44861,-3.3127 108.73724,-1.76227 -4.77581,-5.03403 -9.47523,-10.41915 -13.39016,-16.18203 -17.37026,-25.56958 -35.87337,-36.58676 -45.74129,-40.97456 z" />
    <path
       id="path59824-2"
       style="display:inline;fill:#eda371;fill-opacity:1;stroke:none;stroke-width:0.683265px;stroke-linecap:butt;stroke-linejoin:miter;stroke-opacity:1"
       d="m 266.38012,548.23744 c -4.48539,-1.99447 -7.18702,-2.6194 -7.18702,-2.6194 0,0 -18.67584,-7.89956 -42.85922,4.39914 -9.82997,4.99912 -23.87969,9.84365 -36.34283,14.65354 8.54213,12.6179 26.0981,28.31853 60.59558,27.16056 25.00668,-0.83938 46.07877,-7.40635 63.52662,-13.28099 -14.81531,-18.04941 -29.37343,-26.59569 -37.73313,-30.31285 z" />
    <path
       id="path59824-2-75"
       style="display:inline;fill:#ffffff;fill-opacity:1;stroke:none;stroke-width:0.683265px;stroke-linecap:butt;stroke-linejoin:miter;stroke-opacity:1"
       d="m 273.02343,551.56506 a 4.8210565,4.8210565 0 0 0 2.80812,5.54138 4.8210565,4.8210565 0 0 0 4.90403,-0.70239 c -2.77887,-1.94451 -5.34243,-3.50844 -7.71215,-4.83899 z" />
    <path
       id="path59824-2-7"
       style="display:inline;fill:#ffffff;fill-opacity:1;stroke:none;stroke-width:0.683265px;stroke-linecap:butt;stroke-linejoin:miter;stroke-opacity:1"
       d="m 237.32075,543.4752 c -5.18707,0.61543 -11.06923,2.02926 -17.41838,4.83449 10.78168,5.92461 15.98607,4.57787 18.49086,1.72619 2.52846,-2.87867 0.11301,-5.21695 0.11301,-5.21695 0,0 -0.19682,-0.605 -1.18549,-1.34373 z" />
    <path
       id="path59824-2-1"
       style="display:inline;fill:#ffffff;fill-opacity:1;stroke:none;stroke-width:0.683265px;stroke-linecap:butt;stroke-linejoin:miter;stroke-opacity:1"
       d="m 266.38012,548.23744 c -4.48539,-1.99447 -7.18702,-2.6194 -7.18702,-2.6194 0,0 -5.13748,-2.14033 -13.46746,-2.44292 -3.01497,3.7472 -3.37387,7.44957 5.13726,11.77989 0,0 8.02177,2.98247 12.42208,1.31137 4.29238,-1.63012 6.15905,-3.73088 5.53704,-6.82558 -1.11307,-0.56052 -1.48297,-0.77696 -2.4419,-1.20336 z"
       sodipodi:nodetypes="scccscs" />
    <circle
       style="display:inline;fill:#ffffff;fill-opacity:1;fill-rule:evenodd;stroke:none;stroke-width:1.39747;stroke-miterlimit:4;stroke-dasharray:none;stroke-opacity:1"
       id="path97337"
       cx="440.22626"
       cy="421.82419"
       r="5.3995829"
       transform="rotate(22.929083)" />
    <ellipse
       style="display:inline;fill:#ffffff;fill-opacity:1;fill-rule:evenodd;stroke:none;stroke-width:1.45453;stroke-miterlimit:4;stroke-dasharray:none;stroke-opacity:1"
       id="path97339"
       cx="466.98376"
       cy="414.15811"
       rx="5.0138984"
       ry="4.8210564"
       transform="rotate(22.929083)" />
    <ellipse
       style="display:inline;fill:#ffffff;fill-opacity:1;fill-rule:evenodd;stroke:none;stroke-width:0.698177;stroke-miterlimit:4;stroke-dasharray:none;stroke-opacity:1"
       id="path97339-0"
       cx="455.74622"
       cy="421.24564"
       rx="2.4066713"
       ry="2.3141072"
       transform="rotate(22.929083)" />
    <path
       style="display:inline;fill:#dc7530;fill-opacity:1;stroke:none;stroke-width:0.419896px;stroke-linecap:butt;stroke-linejoin:miter;stroke-opacity:1"
       d="m 355.88067,723.80688 c 0,0 -2.70959,-0.0698 -7.4342,-0.8154 -4.72462,-0.74548 -11.46427,-2.16651 -19.52445,-4.86877 -8.06017,-2.70227 -10.3058,-10.22363 -20.31244,-16.09398 -10.00665,-5.87035 -24.86922,-14.72685 -35.43328,-24.97657 -42.25622,-40.99891 -8.45418,-23.19717 19.03648,-25.98206 27.49066,-2.78489 41.42611,7.71539 41.42611,7.71539 0,0 11.09394,5.6763 14.84972,21.92102 3.75576,16.24471 18.2815,44.45937 7.39206,43.10037 z"
       id="path59824-8"
       sodipodi:nodetypes="cssssscsc" />
    <path
       id="path59824-9-9"
       style="display:inline;fill:#e88c4f;fill-opacity:1;stroke:none;stroke-width:0.419896px;stroke-linecap:butt;stroke-linejoin:miter;stroke-opacity:1"
       d="m 329.56826,656.43488 c 2.71014,1.32499 4.0711,2.35055 4.0711,2.35055 0,0 11.09366,5.67652 14.84941,21.92124 2.68396,11.60875 10.86244,29.32398 11.34097,37.99741 -10.20661,0.0789 -23.78524,-3.11439 -38.42434,-15.64583 -22.76321,-19.48587 -32.17574,-41.54963 -42.10045,-51.90522 4.25631,0.26163 8.64779,0.34877 12.90742,-0.0827 18.89984,-1.91461 31.39354,2.44969 37.35589,5.3646 z" />
    <path
       id="path59824-2-2"
       style="display:inline;fill:#eda371;fill-opacity:1;stroke:none;stroke-width:0.419896px;stroke-linecap:butt;stroke-linejoin:miter;stroke-opacity:1"
       d="m 329.56826,656.43488 c 2.71014,1.32499 4.0711,2.35055 4.0711,2.35055 0,0 11.09366,5.67652 14.84941,21.92124 1.52664,6.60308 4.79207,15.13241 7.44742,22.90089 -9.31486,0.95876 -23.64026,-1.11043 -36.71483,-17.81408 -9.47753,-12.10822 -14.70426,-24.62474 -18.82621,-35.16112 14.34954,-0.14883 24.12205,3.33313 29.17311,5.80252 z" />
    <path
       id="path59824-2-75-8"
       style="display:inline;fill:#ffffff;fill-opacity:1;stroke:none;stroke-width:0.419896px;stroke-linecap:butt;stroke-linejoin:miter;stroke-opacity:1"
       d="m 325.37829,654.62001 a 2.9627525,2.9627525 0 0 1 -3.71836,0.86533 2.9627525,2.9627525 0 0 1 -1.60537,-2.58685 c 2.0129,0.54098 3.76153,1.13086 5.32373,1.72152 z" />
    <path
       id="path59824-2-7-9"
       style="display:inline;fill:#ffffff;fill-opacity:1;stroke:none;stroke-width:0.419896px;stroke-linecap:butt;stroke-linejoin:miter;stroke-opacity:1"
       d="m 343.2839,668.24013 c 1.75806,2.68582 3.41457,6.01419 4.60014,10.11185 -7.04687,-2.73853 -8.46735,-5.72122 -8.11327,-8.0267 0.35743,-2.32731 2.41228,-2.11293 2.41228,-2.11293 0,0 0.36262,-0.1462 1.10086,0.0277 z" />
    <path
       id="path59824-2-1-2"
       style="display:inline;fill:#ffffff;fill-opacity:1;stroke:none;stroke-width:0.419896px;stroke-linecap:butt;stroke-linejoin:miter;stroke-opacity:1"
       d="m 329.56826,656.43488 c 2.71014,1.32499 4.0711,2.35055 4.0711,2.35055 0,0 3.0363,1.57445 6.46755,5.37798 -0.57441,2.89932 -2.17632,4.53006 -7.57594,2.23142 0,0 -4.57164,-2.60032 -5.52194,-5.3324 -0.92694,-2.66506 -0.6746,-4.37356 1.02845,-5.30245 0.70339,0.30295 0.95138,0.39166 1.53076,0.67495 z"
       sodipodi:nodetypes="scccscs" />
    <circle
       style="display:inline;fill:#ffffff;fill-opacity:1;fill-rule:evenodd;stroke:none;stroke-width:0.858805;stroke-miterlimit:4;stroke-dasharray:none;stroke-opacity:1"
       id="path97337-8"
       cx="-603.88654"
       cy="446.97726"
       transform="matrix(-0.89023796,-0.45549574,-0.45549574,0.89023796,0,0)"
       r="3.3182828" />
    <ellipse
       style="display:inline;fill:#ffffff;fill-opacity:1;fill-rule:evenodd;stroke:none;stroke-width:0.893872;stroke-miterlimit:4;stroke-dasharray:none;stroke-opacity:1"
       id="path97339-4"
       cx="-587.44269"
       cy="442.26614"
       rx="3.0812626"
       ry="2.9627526"
       transform="matrix(-0.89023796,-0.45549574,-0.45549574,0.89023796,0,0)" />
    <ellipse
       style="display:inline;fill:#ffffff;fill-opacity:1;fill-rule:evenodd;stroke:none;stroke-width:0.429061;stroke-miterlimit:4;stroke-dasharray:none;stroke-opacity:1"
       id="path97339-0-1"
       cx="-594.34869"
       cy="446.6218"
       rx="1.4790061"
       ry="1.4221213"
       transform="matrix(-0.89023796,-0.45549574,-0.45549574,0.89023796,0,0)" />
    <path
       style="display:inline;fill:#dc7530;fill-opacity:1;stroke:none;stroke-width:0.38864px;stroke-linecap:butt;stroke-linejoin:miter;stroke-opacity:1"
       d="m 90.154651,616.93112 c 0,0 1.66075,1.88032 4.99886,4.78815 3.3381,2.90784 8.353559,6.84324 15.062969,10.95344 6.70941,4.11016 13.37952,1.23063 23.49343,4.83762 10.11392,3.607 25.23329,8.88262 38.78491,10.28092 54.2064,5.59323 21.4805,-7.79699 7.10934,-28.95176 -14.37114,-21.1548 -30.10517,-24.79539 -30.10517,-24.79539 0,0 -10.6228,-4.4936 -24.37824,2.50185 -13.75546,6.99547 -42.405099,13.46948 -34.966099,20.38517 z"
       id="path59824-5"
       sodipodi:nodetypes="cssssscsc" />
    <path
       id="path59824-9-4"
       style="display:inline;fill:#e88c4f;fill-opacity:1;stroke:none;stroke-width:0.38864px;stroke-linecap:butt;stroke-linejoin:miter;stroke-opacity:1"
       d="m 153.58674,595.53365 c -2.5513,-1.1344 -4.08796,-1.48991 -4.08796,-1.48991 0,0 -10.62278,-4.49327 -24.37826,2.50219 -9.82988,4.9991 -27.258179,9.73197 -33.694679,14.54994 6.01309,7.28633 16.352109,15.01875 33.945209,17.95069 27.35654,4.55906 48.60301,-1.88427 61.84953,-1.00237 -2.71647,-2.86334 -5.3895,-5.92641 -7.6163,-9.20432 -9.88016,-14.54391 -20.4047,-20.81046 -26.01754,-23.30622 z" />
    <path
       id="path59824-2-0"
       style="display:inline;fill:#eda371;fill-opacity:1;stroke:none;stroke-width:0.38864px;stroke-linecap:butt;stroke-linejoin:miter;stroke-opacity:1"
       d="m 153.50394,595.57996 c -2.5513,-1.1344 -4.08796,-1.48991 -4.08796,-1.48991 0,0 -10.62278,-4.49326 -24.37826,2.5022 -5.59126,2.8435 -13.5827,5.59906 -20.6717,8.33491 4.85874,7.17704 14.84454,16.10753 34.46664,15.4489 14.22374,-0.47746 26.20951,-4.21274 36.13381,-7.55423 -8.42692,-10.26646 -16.70758,-15.12757 -21.46253,-17.24187 z" />
    <path
       id="path59824-2-75-5"
       style="display:inline;fill:#ffffff;fill-opacity:1;stroke:none;stroke-width:0.38864px;stroke-linecap:butt;stroke-linejoin:miter;stroke-opacity:1"
       d="m 157.28265,597.4727 a 2.7422073,2.7422073 0 0 0 1.59723,3.15193 2.7422073,2.7422073 0 0 0 2.78939,-0.39955 c -1.58061,-1.106 -3.03876,-1.99556 -4.38664,-2.75236 z" />
    <path
       id="path59824-2-7-6"
       style="display:inline;fill:#ffffff;fill-opacity:1;stroke:none;stroke-width:0.38864px;stroke-linecap:butt;stroke-linejoin:miter;stroke-opacity:1"
       d="m 136.97502,592.8712 c -2.95038,0.35004 -6.29615,1.15423 -9.90754,2.74985 6.13259,3.36992 9.09284,2.60388 10.51757,0.98186 1.43818,-1.63739 0.0643,-2.9674 0.0643,-2.9674 0,0 -0.11197,-0.34412 -0.67432,-0.76431 z" />
    <path
       id="path59824-2-1-9"
       style="display:inline;fill:#ffffff;fill-opacity:1;stroke:none;stroke-width:0.38864px;stroke-linecap:butt;stroke-linejoin:miter;stroke-opacity:1"
       d="m 153.50394,595.57996 c -2.5513,-1.1344 -4.08796,-1.48991 -4.08796,-1.48991 0,0 -2.92216,-1.21746 -7.66028,-1.38953 -1.7149,2.13139 -1.91911,4.23725 2.92206,6.70038 0,0 4.56278,1.69642 7.06565,0.74588 2.44152,-0.92719 3.50327,-2.12211 3.14947,-3.88235 -0.63308,-0.3189 -0.84349,-0.44197 -1.38892,-0.68453 z"
       sodipodi:nodetypes="scccscs" />
    <circle
       style="display:inline;fill:#ffffff;fill-opacity:1;fill-rule:evenodd;stroke:none;stroke-width:0.794877;stroke-miterlimit:4;stroke-dasharray:none;stroke-opacity:1"
       id="path97337-0"
       cx="362.77441"
       cy="500.48294"
       r="3.0712719"
       transform="rotate(22.929083)" />
    <ellipse
       style="display:inline;fill:#ffffff;fill-opacity:1;fill-rule:evenodd;stroke:none;stroke-width:0.827333;stroke-miterlimit:4;stroke-dasharray:none;stroke-opacity:1"
       id="path97339-00"
       cx="377.99396"
       cy="496.12234"
       rx="2.8518953"
       ry="2.7422073"
       transform="rotate(22.929083)" />
    <ellipse
       style="display:inline;fill:#ffffff;fill-opacity:1;fill-rule:evenodd;stroke:none;stroke-width:0.397121;stroke-miterlimit:4;stroke-dasharray:none;stroke-opacity:1"
       id="path97339-0-8"
       cx="371.60205"
       cy="500.15378"
       rx="1.36891"
       ry="1.3162596"
       transform="rotate(22.929083)" />
    <path
       id="path3692-644-0"
       style="display:inline;fill:#dc7530;fill-opacity:1;stroke:none;stroke-width:25.4134;stroke-miterlimit:4;stroke-dasharray:none;stroke-opacity:1"
       d="m 638.04495,628.80751 c 0,0 36.59009,6.63168 43.26762,14.90174 0.32251,0.39944 0.60993,0.77227 0.87749,1.12859 a 235.07405,235.07405 0 0 1 -20.36596,21.94818 c -6.2008,-3.44856 -15.2902,-11.8292 -28.49859,-30.02394 0,0 0.42037,-2.71975 1.97798,-4.61651 z" />
    <path
       id="path3692-9-1"
       style="display:inline;fill:#dc7530;fill-opacity:1;stroke:none;stroke-width:25.4134;stroke-miterlimit:4;stroke-dasharray:none;stroke-opacity:1"
       d="m 723.36223,548.69929 c 6.68845,2.73874 11.65465,5.29542 15.3459,7.65667 a 235.07405,235.07405 0 0 1 -13.65067,28.23048 c -6.18249,-4.53919 -8.9045,-30.20856 -8.9045,-30.20856 l 3.08483,-2.98498 c 1.75189,-1.6958 4.12444,-2.69361 4.12444,-2.69361 z" />
    <path
       id="path3692-4-7"
       style="display:inline;fill:#dc7530;fill-opacity:1;stroke:none;stroke-width:25.4134;stroke-miterlimit:4;stroke-dasharray:none;stroke-opacity:1"
       d="m 655.42585,561.90757 c 0.44162,-0.17404 0.70767,-0.25905 0.70767,-0.25905 35.53755,18.13931 51.07654,31.3568 57.18647,40.60882 a 235.07405,235.07405 0 0 1 -27.53267,37.90731 c -1.62416,-0.61911 -3.69778,-1.60011 -6.35635,-3.13394 -14.98186,-8.64343 -34.89272,-65.78392 -34.89272,-65.78392 l 4.67384,-5.25061 c 1.99142,-2.23741 4.8895,-3.56516 6.21374,-4.08863 z" />
    <path
       style="display:inline;fill:#dc7530;fill-opacity:1;stroke:none;stroke-width:0.434102px;stroke-linecap:butt;stroke-linejoin:miter;stroke-opacity:1"
       d="m 704.97843,531.34982 c 0,0 -1.00356,2.61628 -3.36118,6.96296 -2.35761,4.34668 -6.06927,10.42373 -11.48535,17.34527 -5.416,6.92151 -13.52074,6.5131 -22.69604,14.23768 -9.1753,7.72457 -22.93707,19.15015 -36.57244,25.90594 -54.54145,27.0231 -25.52393,0.22967 -18.7467,-27.52092 6.77723,-27.75056 21.82076,-37.70518 21.82076,-37.70518 0,0 9.3616,-8.85113 26.48836,-6.90262 17.12686,1.94853 49.6365,-2.46552 44.55259,7.67687 z"
       id="path59824-21"
       sodipodi:nodetypes="cssssscsc" />
    <path
       id="path59824-9-43"
       style="display:inline;fill:#e88c4f;fill-opacity:1;stroke:none;stroke-width:0.434102px;stroke-linecap:butt;stroke-linejoin:miter;stroke-opacity:1"
       d="m 630.24149,533.73076 c 2.22681,-2.18358 3.69608,-3.15569 3.69608,-3.15569 0,0 9.36174,-8.85076 26.48851,-6.90222 12.23915,1.39243 32.32589,-0.46122 40.94321,2.06693 -3.44697,9.97338 -11.24672,22.10302 -28.51245,32.0421 -26.84757,15.45487 -51.59787,17.00972 -65.11565,23.10593 1.72445,-4.05733 3.32545,-8.30666 4.37557,-12.60659 4.65939,-19.07854 13.22571,-29.74664 18.12473,-34.55046 z" />
    <path
       id="path59824-2-03"
       style="display:inline;fill:#eda371;fill-opacity:1;stroke:none;stroke-width:0.434102px;stroke-linecap:butt;stroke-linejoin:miter;stroke-opacity:1"
       d="m 630.24149,533.73076 c 2.22681,-2.18358 3.69608,-3.15569 3.69608,-3.15569 0,0 9.36174,-8.85076 26.48851,-6.90222 6.96166,0.79202 16.4007,0.55466 24.8877,0.64908 -2.28167,9.40819 -9.24381,22.65362 -30.03517,29.62763 -15.07131,5.05537 -29.07295,5.82743 -40.76349,6.20649 4.8091,-14.0347 11.57611,-22.35569 15.72637,-26.42529 z" />
    <path
       id="path59824-2-75-0"
       style="display:inline;fill:#f7fff5;fill-opacity:1;stroke:none;stroke-width:0.434102px;stroke-linecap:butt;stroke-linejoin:miter;stroke-opacity:1"
       d="m 627.02635,537.18721 a 3.0629872,3.0629872 0 0 1 -0.4405,3.92222 3.0629872,3.0629872 0 0 1 -3.07513,0.6713 c 1.22214,-1.77474 2.40069,-3.27512 3.51563,-4.59352 z" />
    <path
       id="path59824-2-7-7"
       style="display:inline;fill:#f3ffef;fill-opacity:1;stroke:none;stroke-width:0.434102px;stroke-linecap:butt;stroke-linejoin:miter;stroke-opacity:1"
       d="m 646.48077,524.44085 c 3.2242,-0.78593 7.03956,-1.25102 11.44192,-0.99164 -5.1015,5.92156 -8.4985,6.27603 -10.62292,5.13504 -2.14452,-1.15181 -1.22615,-3.08021 -1.22615,-3.08021 0,0 -0.0173,-0.40384 0.40715,-1.06318 z" />
    <path
       id="path59824-2-1-8"
       style="display:inline;fill:#f3ffef;fill-opacity:1;stroke:none;stroke-width:0.434102px;stroke-linecap:butt;stroke-linejoin:miter;stroke-opacity:1"
       d="m 630.24149,533.73076 c 2.22681,-2.18358 3.69608,-3.15569 3.69608,-3.15569 0,0 2.58256,-2.41524 7.47366,-4.44578 2.62703,1.56071 3.66305,3.68478 -0.44115,8.153 0,0 -4.11228,3.55722 -7.10276,3.54002 -2.91705,-0.0168 -4.49483,-0.85259 -4.81205,-2.83283 0.53804,-0.5809 0.71014,-0.7919 1.18619,-1.25872 z"
       sodipodi:nodetypes="scccscs" />
    <circle
       style="display:inline;fill:#f3ffef;fill-opacity:1;fill-rule:evenodd;stroke:none;stroke-width:0.887862;stroke-miterlimit:4;stroke-dasharray:none;stroke-opacity:1"
       id="path97337-2"
       cx="-103.15393"
       cy="833.95856"
       r="3.4305453"
       transform="matrix(-0.72664034,0.68701807,0.68701807,0.72664034,0,0)" />
    <ellipse
       style="display:inline;fill:#f7fff5;fill-opacity:1;fill-rule:evenodd;stroke:none;stroke-width:0.924114;stroke-miterlimit:4;stroke-dasharray:none;stroke-opacity:1"
       id="path97339-6"
       cx="-86.153992"
       cy="829.08807"
       rx="3.1855063"
       ry="3.0629871"
       transform="matrix(-0.72664034,0.68701807,0.68701807,0.72664034,0,0)" />
    <ellipse
       style="display:inline;fill:#f7fff5;fill-opacity:1;fill-rule:evenodd;stroke:none;stroke-width:0.443576;stroke-miterlimit:4;stroke-dasharray:none;stroke-opacity:1"
       id="path97339-0-4"
       cx="-93.293579"
       cy="833.591"
       rx="1.5290431"
       ry="1.4702339"
       transform="matrix(-0.72664034,0.68701807,0.68701807,0.72664034,0,0)" />
    <path
       style="display:inline;fill:#dc7530;fill-opacity:1;stroke:none;stroke-width:0.266775px;stroke-linecap:butt;stroke-linejoin:miter;stroke-opacity:1"
       d="m 615.96862,658.1175 c 0,0 1.59732,-0.6435 4.24397,-2.1368 2.64669,-1.49327 6.34267,-3.83627 10.5401,-7.23523 4.19743,-3.39898 3.8633,-8.3748 8.51552,-14.0919 4.65232,-5.71712 11.53167,-14.29041 15.54286,-22.73808 16.04485,-33.79078 -0.12079,-15.68579 -17.10285,-11.23666 -16.98201,4.44911 -22.94436,13.79486 -22.94436,13.79486 0,0 -5.34255,5.84315 -3.96953,16.34687 1.37302,10.50374 -1.00557,30.52483 5.17429,27.29694 z"
       id="path59824-8-3"
       sodipodi:nodetypes="cssssscsc" />
    <path
       id="path59824-9-9-1"
       style="display:inline;fill:#e88c4f;fill-opacity:1;stroke:none;stroke-width:0.266775px;stroke-linecap:butt;stroke-linejoin:miter;stroke-opacity:1"
       d="m 616.66472,612.17027 c -1.31888,1.39072 -1.90112,2.30348 -1.90112,2.30348 0,0 -5.34237,5.84323 -3.96929,16.34694 0.98115,7.50616 0.0483,19.86765 1.69019,25.13667 6.09283,-2.22035 13.46594,-7.13745 19.39592,-17.84852 9.22085,-16.65529 9.92232,-31.87933 13.52945,-40.24801 -2.47538,1.10123 -5.06999,2.12862 -7.70135,2.81808 -11.67513,3.05876 -18.14233,8.43189 -21.04378,11.49142 z" />
    <path
       id="path59824-2-2-1"
       style="display:inline;fill:#eda371;fill-opacity:1;stroke:none;stroke-width:0.266775px;stroke-linecap:butt;stroke-linejoin:miter;stroke-opacity:1"
       d="m 616.66472,612.17027 c -1.31888,1.39072 -1.90112,2.30348 -1.90112,2.30348 0,0 -5.34237,5.84323 -3.96929,16.34694 0.55806,4.26952 0.50908,10.07186 0.65419,15.28579 5.75754,-1.49851 13.82485,-5.91241 17.89678,-18.75941 2.95162,-9.31258 3.28231,-17.9239 3.3953,-25.11118 -8.57445,3.09899 -13.61789,7.34247 -16.07586,9.93438 z" />
    <path
       id="path59824-2-75-8-7"
       style="display:inline;fill:#ffffff;fill-opacity:1;stroke:none;stroke-width:0.266775px;stroke-linecap:butt;stroke-linejoin:miter;stroke-opacity:1"
       d="m 618.75554,610.15925 a 1.8823411,1.8823411 0 0 0 2.40554,-0.31091 1.8823411,1.8823411 0 0 0 0.38094,-1.89641 c -1.07796,0.76916 -1.98781,1.50873 -2.78648,2.20734 z" />
    <path
       id="path59824-2-7-9-9"
       style="display:inline;fill:#ffffff;fill-opacity:1;stroke:none;stroke-width:0.266775px;stroke-linecap:butt;stroke-linejoin:miter;stroke-opacity:1"
       d="m 611.12307,622.24397 c -0.4498,1.98922 -0.6965,4.33838 -0.49191,7.04079 3.58616,-3.19545 3.76911,-5.28641 3.0462,-6.58003 -0.72972,-1.30591 -1.90519,-0.72185 -1.90519,-0.72185 0,0 -0.2484,-0.006 -0.64914,0.26104 z" />
    <path
       id="path59824-2-1-2-8"
       style="display:inline;fill:#ffffff;fill-opacity:1;stroke:none;stroke-width:0.266775px;stroke-linecap:butt;stroke-linejoin:miter;stroke-opacity:1"
       d="m 616.66472,612.17027 c -1.31888,1.39072 -1.90112,2.30348 -1.90112,2.30348 0,0 -1.45756,1.61166 -2.65507,4.63788 0.98595,1.59818 2.30171,2.213 5.00512,-0.35475 0,0 2.1436,-2.56335 2.10235,-4.40069 -0.0403,-1.79223 -0.57,-2.75314 -1.79009,-2.92772 -0.35139,0.33658 -0.47924,0.44445 -0.76118,0.74178 z"
       sodipodi:nodetypes="scccscs" />
    <circle
       style="display:inline;fill:#ffffff;fill-opacity:1;fill-rule:evenodd;stroke:none;stroke-width:0.545629;stroke-miterlimit:4;stroke-dasharray:none;stroke-opacity:1"
       id="path97337-8-6"
       cx="-42.969746"
       cy="876.26666"
       transform="rotate(-47.562276)"
       r="2.108222" />
    <ellipse
       style="display:inline;fill:#ffffff;fill-opacity:1;fill-rule:evenodd;stroke:none;stroke-width:0.567908;stroke-miterlimit:4;stroke-dasharray:none;stroke-opacity:1"
       id="path97339-4-1"
       cx="-32.522388"
       cy="873.2735"
       rx="1.9576348"
       ry="1.8823411"
       transform="rotate(-47.562276)" />
    <ellipse
       style="display:inline;fill:#ffffff;fill-opacity:1;fill-rule:evenodd;stroke:none;stroke-width:0.272598;stroke-miterlimit:4;stroke-dasharray:none;stroke-opacity:1"
       id="path97339-0-1-7"
       cx="-36.910023"
       cy="876.04077"
       rx="0.93966472"
       ry="0.9035238"
       transform="rotate(-47.562276)" />
    <path
       style="display:inline;fill:#dc7530;fill-opacity:1;stroke:none;stroke-width:0.246917px;stroke-linecap:butt;stroke-linejoin:miter;stroke-opacity:1"
       d="m 750.39669,535.47288 c 0,0 -0.57088,1.48816 -1.91188,3.96054 -1.34101,2.47236 -3.45214,5.92898 -6.53283,9.86595 -3.08064,3.93695 -7.69057,3.70464 -12.90946,8.09835 -5.21889,4.39373 -13.04657,10.89259 -20.80233,14.73526 -31.02306,15.37069 -14.51797,0.13062 -10.66304,-15.65384 3.85484,-15.78447 12.41155,-21.44663 12.41155,-21.44663 0,0 5.32486,-5.03451 15.06658,-3.92622 9.74166,1.10832 28.23311,-1.40237 25.34141,4.36659 z"
       id="path59824-5-3"
       sodipodi:nodetypes="cssssscsc" />
    <path
       id="path59824-9-4-7"
       style="display:inline;fill:#e88c4f;fill-opacity:1;stroke:none;stroke-width:0.246917px;stroke-linecap:butt;stroke-linejoin:miter;stroke-opacity:1"
       d="m 707.88645,536.82718 c 1.26662,-1.24198 2.10228,-1.79493 2.10228,-1.79493 0,0 5.32493,-5.03432 15.06667,-3.92601 6.96159,0.79202 18.38689,-0.26234 23.28838,1.17569 -1.96062,5.67282 -6.39708,12.57214 -16.2178,18.22546 -15.27086,8.79071 -29.34878,9.67509 -37.03772,13.14263 0.9809,-2.3078 1.89153,-4.72483 2.48885,-7.17062 2.65025,-10.85183 7.52274,-16.91982 10.30934,-19.65222 z" />
    <path
       id="path59824-2-0-1"
       style="display:inline;fill:#eda371;fill-opacity:1;stroke:none;stroke-width:0.246917px;stroke-linecap:butt;stroke-linejoin:miter;stroke-opacity:1"
       d="m 707.94601,536.83635 c 1.26663,-1.24198 2.1023,-1.79493 2.1023,-1.79493 0,0 5.32492,-5.0343 15.06666,-3.92601 3.95979,0.45051 9.32868,0.3155 14.15603,0.36922 -1.29776,5.35133 -5.25783,12.88532 -17.0839,16.85214 -8.57256,2.87547 -16.53662,3.31461 -23.18626,3.53024 2.73546,-7.98292 6.58451,-12.71588 8.94517,-15.03066 z" />
    <path
       id="path59824-2-75-5-4"
       style="display:inline;fill:#ffffff;fill-opacity:1;stroke:none;stroke-width:0.246917px;stroke-linecap:butt;stroke-linejoin:miter;stroke-opacity:1"
       d="m 706.11726,538.80237 a 1.742221,1.742221 0 0 1 -0.2506,2.23097 1.742221,1.742221 0 0 1 -1.7491,0.38181 c 0.69519,-1.00948 1.3655,-1.86287 1.99971,-2.61277 z" />
    <path
       id="path59824-2-7-6-7"
       style="display:inline;fill:#ffffff;fill-opacity:1;stroke:none;stroke-width:0.246917px;stroke-linecap:butt;stroke-linejoin:miter;stroke-opacity:1"
       d="m 717.18287,531.55227 c 1.83394,-0.44705 4.00407,-0.71158 6.50815,-0.564 -2.90174,3.36819 -4.83393,3.5698 -6.04227,2.9208 -1.2198,-0.65514 -0.69731,-1.75208 -0.69731,-1.75208 0,0 -0.01,-0.22969 0.23159,-0.60473 z" />
    <path
       id="path59824-2-1-9-1"
       style="display:inline;fill:#ffffff;fill-opacity:1;stroke:none;stroke-width:0.246917px;stroke-linecap:butt;stroke-linejoin:miter;stroke-opacity:1"
       d="m 707.94601,536.83635 c 1.26663,-1.24198 2.1023,-1.79493 2.1023,-1.79493 0,0 1.46896,-1.37382 4.25101,-2.52876 1.49425,0.88772 2.08358,2.09585 -0.25082,4.63739 0,0 -2.3391,2.02335 -4.04008,2.01355 -1.65923,-0.01 -2.55669,-0.48493 -2.73712,-1.61128 0.30601,-0.33045 0.40391,-0.45045 0.67472,-0.71601 z"
       sodipodi:nodetypes="scccscs" />
    <circle
       style="display:inline;fill:#ffffff;fill-opacity:1;fill-rule:evenodd;stroke:none;stroke-width:0.505013;stroke-miterlimit:4;stroke-dasharray:none;stroke-opacity:1"
       id="path97337-0-5"
       cx="-152.36188"
       cy="883.93323"
       r="1.9512873"
       transform="matrix(-0.72664034,0.68701807,0.68701807,0.72664034,0,0)" />
    <ellipse
       style="display:inline;fill:#ffffff;fill-opacity:1;fill-rule:evenodd;stroke:none;stroke-width:0.525634;stroke-miterlimit:4;stroke-dasharray:none;stroke-opacity:1"
       id="path97339-00-1"
       cx="-142.69232"
       cy="881.16284"
       rx="1.8119097"
       ry="1.742221"
       transform="matrix(-0.72664034,0.68701807,0.68701807,0.72664034,0,0)" />
    <ellipse
       style="display:inline;fill:#ffffff;fill-opacity:1;fill-rule:evenodd;stroke:none;stroke-width:0.252305;stroke-miterlimit:4;stroke-dasharray:none;stroke-opacity:1"
       id="path97339-0-8-8"
       cx="-146.75336"
       cy="883.72412"
       rx="0.86971676"
       ry="0.83626616"
       transform="matrix(-0.72664034,0.68701807,0.68701807,0.72664034,0,0)" />
  </g>
  <g
     inkscape:groupmode="layer"
     id="layer19"
     inkscape:label="dust"
     style="display:inline">
    <circle
       style="display:inline;fill:#5f771e;fill-opacity:1;stroke:none;stroke-width:9.51611"
       id="path24536-1-54"
       cx="491.0506"
       cy="444.68463"
       r="6" />
    <circle
       style="fill:#e88c4f;fill-opacity:1;stroke:none;stroke-width:9.51611"
       id="path24536-1-3"
       cx="247.97333"
       cy="128.81097"
       r="6" />
    <circle
       style="fill:#e88c4f;fill-opacity:1;stroke:none;stroke-width:9.51611"
       id="path24536-1-4"
       cx="282.81955"
       cy="123.91493"
       r="6" />
    <circle
       style="fill:#e88c4f;fill-opacity:1;stroke:none;stroke-width:9.51611"
       id="path24536-1-9"
       cx="614.90106"
       cy="178.63226"
       r="6" />
    <circle
       style="fill:#e88c4f;fill-opacity:1;stroke:none;stroke-width:9.51611"
       id="path24536-1-5"
       cx="583.78253"
       cy="171.17696"
       r="6" />
    <circle
       style="display:inline;fill:#5f771e;fill-opacity:1;stroke:none;stroke-width:9.51611"
       id="path24536-1-54-3"
       cx="453.72415"
       cy="483.53085"
       r="6" />
    <circle
       style="display:inline;fill:#5f771e;fill-opacity:1;stroke:none;stroke-width:9.51611"
       id="path24536-1-54-39"
       cx="492.36246"
       cy="611.58923"
       r="6" />
    <circle
       style="display:inline;fill:#5f771e;fill-opacity:1;stroke:none;stroke-width:9.51611"
       id="path24536-1-54-2"
       cx="375.34357"
       cy="480.21899"
       r="6" />
    <circle
       style="display:inline;fill:#9dad4f;fill-opacity:1;stroke:none;stroke-width:9.51611"
       id="path24536-1-54-2-6-6"
       cx="544.24817"
       cy="539.83234"
       r="6" />
    <circle
       style="display:inline;fill:#5f771e;fill-opacity:1;stroke:none;stroke-width:9.51611"
       id="path24536-1-54-0"
       cx="388.591"
       cy="629.25244"
       r="6" />
    <circle
       style="display:inline;fill:#9dad4f;fill-opacity:1;stroke:none;stroke-width:9.51611"
       id="path24536-1-54-2-6-84"
       cx="337.8092"
       cy="548.664"
       r="6" />
  </g>
</svg>
