<?xml version="1.0" encoding="UTF-8" standalone="no"?>
<!-- Created with Inkscape (http://www.inkscape.org/) -->

<svg
   width="800px"
   height="800px"
   viewBox="0 0 800 800"
   version="1.1"
   id="SVGRoot"
   sodipodi:docname="giraffe-rachana.svg"
   inkscape:version="1.1.2 (b8e25be833, 2022-02-05)"
   xmlns:inkscape="http://www.inkscape.org/namespaces/inkscape"
   xmlns:sodipodi="http://sodipodi.sourceforge.net/DTD/sodipodi-0.dtd"
   xmlns="http://www.w3.org/2000/svg"
   xmlns:svg="http://www.w3.org/2000/svg">
  <sodipodi:namedview
     id="namedview5765"
     pagecolor="#ffffff"
     bordercolor="#666666"
     borderopacity="1.0"
     inkscape:pageshadow="2"
     inkscape:pageopacity="0.0"
     inkscape:pagecheckerboard="0"
     inkscape:document-units="px"
     showgrid="false"
     inkscape:zoom="0.6405233"
     inkscape:cx="533.15781"
     inkscape:cy="252.13759"
     inkscape:window-width="1920"
     inkscape:window-height="1111"
     inkscape:window-x="-9"
     inkscape:window-y="-9"
     inkscape:window-maximized="1"
     inkscape:current-layer="layer8"
     showguides="true"
     inkscape:guide-bbox="true" />
  <defs
     id="defs5760" />
  <g
     inkscape:label="backgrond"
     inkscape:groupmode="layer"
     id="layer1"
     style="display:inline"
     sodipodi:insensitive="true">
    <rect
       style="fill:#fff0d4;fill-opacity:1"
       id="rect936"
       width="800"
       height="800"
       x="-5.3339306e-08"
       y="0"
       ry="1.43725" />
    <rect
       style="display:inline;fill:#fff0d4;fill-opacity:1"
       id="rect936-3"
       width="800"
       height="800"
       x="6.1035156e-05"
       y="0"
       ry="1.43725" />
    <path
       id="rect936-7"
       style="display:inline;fill:#f7e7c5;fill-opacity:1"
       d="M 800,239.83594 C 762.38434,261.58504 719.98334,293.79137 682.43359,336.4043 592.59312,438.35882 497.98291,477.10595 228.95312,439.64844 104.86553,422.3715 37.109189,468.011 0,522.16992 V 798.5625 C 0,799.35874 0.64126349,800 1.4375,800 h 797.125 c 0.79624,0 1.4375,-0.64126 1.4375,-1.4375 z" />
    <path
       id="path1501-95"
       style="display:inline;fill:#ffffff;fill-opacity:1;stroke-width:14.6594"
       d="M 463.59808,-332.75373 A 476.4298,476.4298 0 0 0 832.893,180.93651 476.4298,476.4298 0 0 0 1107.2075,160.40844 1392.641,1392.641 0 0 0 463.59808,-332.75373 Z" />
    <path
       style="fill:none;stroke:none;stroke-width:1px;stroke-linecap:butt;stroke-linejoin:miter;stroke-opacity:1"
       d="m 495.95032,189.39672 c 0,0 -6.9687,-3.58784 -9.1766,-8.41763 -2.2079,-4.82979 -2.2079,-5.17478 -2.2079,-5.17478 0,0 2.89787,11.93648 4.27781,13.04043 1.37994,1.10396 -6.41672,-1.24194 -8.48663,-4.4158 -2.06991,-3.17386 -2.00091,-3.17386 -2.00091,-3.17386 0,0 1.24194,9.0386 4.5538,10.76353 3.31185,1.72492 4.00182,3.72583 12.14347,3.03586 z"
       id="path9110" />
  </g>
  <g
     inkscape:groupmode="layer"
     id="layer9"
     inkscape:label="grass"
     style="display:inline"
     sodipodi:insensitive="true">
    <path
       id="rect936-2"
       style="display:inline;fill:#f0dcb2;fill-opacity:1;stroke-width:0.936116"
       d="m 400.40039,576.01636 c -13.09377,0.10299 -26.17634,0.48891 -39.22461,1.15702 C 267.78221,582.26457 115.14996,598.63142 0,676.19165 V 798.7403 C 0,799.43806 0.64126349,800 1.4375,800 h 797.125 C 799.35874,800 800,799.43806 800,798.7403 V 673.9033 C 691.91678,600.93739 531.32074,580.0184 439.66211,576.55379 c -13.07269,-0.46191 -26.16788,-0.64117 -39.26172,-0.53743 z" />
  </g>
  <g
     inkscape:groupmode="layer"
     id="layer8"
     inkscape:label="leaves"
     style="display:inline">
    <path
       style="display:inline;fill:#e5cf70;fill-opacity:1;stroke:none;stroke-width:0.859402px;stroke-linecap:butt;stroke-linejoin:miter;stroke-opacity:1"
       d="m 419.61435,96.0608 c 0,0 -49.31446,-31.739271 -31.81653,-37.671131 17.49794,-5.93187 39.651,33.240521 31.81653,37.671131 z"
       id="path32769-7-0-5-9-9" />
    <path
       style="display:inline;fill:#e5cf70;fill-opacity:1;stroke:none;stroke-width:1px;stroke-linecap:butt;stroke-linejoin:miter;stroke-opacity:1"
       d="m 223.31414,379.7554 c 0,0 33.94969,59.19548 12.69677,55.95382 -21.25293,-3.24165 -23.16281,-55.57186 -12.69677,-55.95382 z"
       id="path32769" />
    <path
       style="display:inline;fill:#e5cf70;fill-opacity:1;stroke:none;stroke-width:0.859402px;stroke-linecap:butt;stroke-linejoin:miter;stroke-opacity:1"
       d="m 267.5854,205.20248 c 0,0 -19.30034,-55.37864 -1.8619,-49.27411 17.43844,6.10451 10.76284,50.60924 1.8619,49.27411 z"
       id="path32769-7" />
    <path
       style="display:inline;fill:#e5cf70;fill-opacity:1;stroke:none;stroke-width:0.84011px;stroke-linecap:butt;stroke-linejoin:miter;stroke-opacity:1"
       d="m 267.1401,199.86409 c 0,0 -56.59189,-8.18412 -47.37599,7.46633 9.21589,15.65046 50.38091,0.85663 47.37599,-7.46633 z"
       id="path32769-7-0-5" />
    <path
       style="display:inline;fill:#e5cf70;fill-opacity:1;stroke:none;stroke-width:0.859402px;stroke-linecap:butt;stroke-linejoin:miter;stroke-opacity:1"
       d="m 266.21559,202.04958 c 0,0 -45.8809,36.52725 -27.87609,40.67344 18.00482,4.14621 36.11559,-37.05129 27.87609,-40.67344 z"
       id="path32769-7-0-5-7-7" />
    <path
       style="display:inline;fill:#e5cf70;fill-opacity:1;stroke:none;stroke-width:0.859402px;stroke-linecap:butt;stroke-linejoin:miter;stroke-opacity:1"
       d="m 267.5854,205.20248 c 0,0 -49.31446,-31.73927 -31.81653,-37.67113 17.49794,-5.93187 39.651,33.24052 31.81653,37.67113 z"
       id="path32769-7-0-5-9" />
    <path
       style="display:inline;fill:#c1a52e;fill-opacity:1;stroke:none;stroke-width:0.859402px;stroke-linecap:butt;stroke-linejoin:miter;stroke-opacity:1"
       d="m 664.03204,98.44784 c 0,0 40.39774,42.51258 21.99288,44.13296 -18.40485,1.62039 -30.6536,-41.68322 -21.99288,-44.13296 z"
       id="path32769-7-2" />
    <path
       style="display:inline;fill:#e5cf70;fill-opacity:1;stroke:none;stroke-width:0.84011px;stroke-linecap:butt;stroke-linejoin:miter;stroke-opacity:1"
       d="m 666.63672,103.12891 c 0,0 54.93912,-15.85292 40.09484,-26.31795 -14.84427,-10.46504 -46.26127,19.97158 -40.09484,26.31795 z"
       id="path32769-7-0-5-47" />
    <path
       style="display:inline;fill:#e5cf70;fill-opacity:1;stroke:none;stroke-width:0.859402px;stroke-linecap:butt;stroke-linejoin:miter;stroke-opacity:1"
       d="m 666.57894,100.75662 c 0,0 26.76213,-52.18319 8.64783,-48.54503 -18.11431,3.63814 -17.64786,48.63832 -8.64783,48.54503 z"
       id="path32769-7-0-5-7-7-15" />
    <path
       style="display:inline;fill:#e5cf70;fill-opacity:1;stroke:none;stroke-width:0.859402px;stroke-linecap:butt;stroke-linejoin:miter;stroke-opacity:1"
       d="m 664.03204,98.44784 c 0,0 58.01022,8.60878 44.50901,21.22154 -13.50122,12.61278 -49.823,-13.95719 -44.50901,-21.22154 z"
       id="path32769-7-0-5-9-3" />
    <path
       style="display:inline;fill:#e5cf70;fill-opacity:1;stroke:none;stroke-width:0.859402px;stroke-linecap:butt;stroke-linejoin:miter;stroke-opacity:1"
       d="m 85.32356,419.89895 c 0,0 -35.415582,46.74434 -39.992697,28.84422 -4.577132,-17.90012 36.173849,-36.99441 39.992697,-28.84422 z"
       id="path32769-7-1" />
    <path
       style="display:inline;fill:#e5cf70;fill-opacity:1;stroke:none;stroke-width:0.84011px;stroke-linecap:butt;stroke-linejoin:miter;stroke-opacity:1"
       d="m 81.125649,423.22675 c 0,0 24.533711,51.64997 32.458871,35.30796 7.92518,-16.342 -27.19393,-42.42004 -32.458871,-35.30796 z"
       id="path32769-7-0-5-4" />
    <path
       style="display:inline;fill:#e5cf70;fill-opacity:1;stroke:none;stroke-width:0.859402px;stroke-linecap:butt;stroke-linejoin:miter;stroke-opacity:1"
       d="m 83.457325,422.78588 c 0,0 55.825895,17.96568 49.304605,0.67879 -6.52128,-17.28692 -50.852966,-9.54513 -49.304605,-0.67879 z"
       id="path32769-7-0-5-7-7-5" />
    <path
       style="display:inline;fill:#e5cf70;fill-opacity:1;stroke:none;stroke-width:0.859402px;stroke-linecap:butt;stroke-linejoin:miter;stroke-opacity:1"
       d="m 85.32356,419.89895 c 0,0 0.89131,58.63875 -13.739872,47.35633 -14.631195,-11.28243 5.711396,-51.42484 13.739872,-47.35633 z"
       id="path32769-7-0-5-9-96" />
    <path
       style="display:inline;fill:#e5cf70;fill-opacity:1;stroke:none;stroke-width:0.859402px;stroke-linecap:butt;stroke-linejoin:miter;stroke-opacity:1"
       d="m 419.61435,96.0608 c 0,0 -19.30034,-55.378641 -1.8619,-49.274111 17.43844,6.10451 10.76284,50.609241 1.8619,49.274111 z"
       id="path32769-7-8" />
    <path
       style="display:inline;fill:#c1a52e;fill-opacity:1;stroke:none;stroke-width:0.84011px;stroke-linecap:butt;stroke-linejoin:miter;stroke-opacity:1"
       d="m 419.16905,90.72241 c 0,0 -56.59189,-8.184121 -47.37599,7.46633 9.21589,15.65046 50.38091,0.85663 47.37599,-7.46633 z"
       id="path32769-7-0-5-3" />
    <path
       style="display:inline;fill:#e5cf70;fill-opacity:1;stroke:none;stroke-width:0.859402px;stroke-linecap:butt;stroke-linejoin:miter;stroke-opacity:1"
       d="m 418.24454,92.9079 c 0,0 -45.8809,36.52725 -27.87609,40.67344 18.00482,4.14621 36.11559,-37.05129 27.87609,-40.67344 z"
       id="path32769-7-0-5-7-7-1" />
    <path
       style="display:inline;fill:#e5cf70;fill-opacity:1;stroke:none;stroke-width:0.859402px;stroke-linecap:butt;stroke-linejoin:miter;stroke-opacity:1"
       d="m 644.81556,215.42847 c 0,0 -57.42349,-11.90969 -43.22358,-23.73031 14.19991,-11.82064 48.944,16.7815 43.22358,23.73031 z"
       id="path32769-7-0-5-9-9-5" />
    <path
       style="display:inline;fill:#e5cf70;fill-opacity:1;stroke:none;stroke-width:0.859402px;stroke-linecap:butt;stroke-linejoin:miter;stroke-opacity:1"
       d="m 644.81556,215.42847 c 0,0 -37.90236,-44.75163 -19.43498,-45.31761 18.46737,-0.56601 28.22154,43.36679 19.43498,45.31761 z"
       id="path32769-7-8-1" />
    <path
       style="display:inline;fill:#e5cf70;fill-opacity:1;stroke:none;stroke-width:0.84011px;stroke-linecap:butt;stroke-linejoin:miter;stroke-opacity:1"
       d="m 642.48263,210.60621 c 0,0 -55.75525,12.68753 -41.53325,23.98373 14.22199,11.29621 47.32695,-17.29536 41.53325,-23.98373 z"
       id="path32769-7-0-5-3-6" />
    <path
       style="display:inline;fill:#e5cf70;fill-opacity:1;stroke:none;stroke-width:0.859402px;stroke-linecap:butt;stroke-linejoin:miter;stroke-opacity:1"
       d="m 642.40475,212.97793 c 0,0 -29.70039,50.5686 -11.40779,47.97152 18.29262,-2.59706 20.39845,-47.55036 11.40779,-47.97152 z"
       id="path32769-7-0-5-7-7-1-8" />
    <path
       style="display:inline;fill:#e5cf70;fill-opacity:1;stroke:none;stroke-width:0.743809px;stroke-linecap:butt;stroke-linejoin:miter;stroke-opacity:1"
       d="m 289.80976,304.4697 c 0,0 37.55715,34.14354 21.77272,36.70523 -15.78443,2.5617 -29.09373,-34.04338 -21.77272,-36.70523 z"
       id="path32769-7-0-5-9-4" />
    <path
       style="display:inline;fill:#c1a52e;fill-opacity:1;stroke:none;stroke-width:0.743809px;stroke-linecap:butt;stroke-linejoin:miter;stroke-opacity:1"
       d="m 60.772104,457.05933 c 0,0 3.499862,50.63667 -9.670216,41.56697 -13.170084,-9.0697 2.54228,-44.70944 9.670216,-41.56697 z"
       id="path32769-7-0-5-9-4-8" />
    <path
       style="display:inline;fill:#c1a52e;fill-opacity:1;stroke:none;stroke-width:0.743809px;stroke-linecap:butt;stroke-linejoin:miter;stroke-opacity:1"
       d="m 81.730754,270.60265 c 0,0 31.599836,39.72118 15.608883,39.72013 -15.990956,-0.001 -23.261843,-38.26596 -15.608883,-39.72013 z"
       id="path32769-7-0-5-9-4-8-6" />
    <path
       style="display:inline;fill:#e5cf70;fill-opacity:1;stroke:none;stroke-width:1px;stroke-linecap:butt;stroke-linejoin:miter;stroke-opacity:1"
       d="m 255.33271,359.11604 c 0,0 68.05063,5.07936 53.45008,20.85971 -14.60055,15.78035 -59.00204,-11.97942 -53.45008,-20.85971 z"
       id="path32769-7-0-5-9-4-3" />
    <path
       style="display:inline;fill:#c1a52e;fill-opacity:1;stroke:none;stroke-width:1px;stroke-linecap:butt;stroke-linejoin:miter;stroke-opacity:1"
       d="m 634.83071,284.93942 c 0,0 -35.57849,58.23109 -42.95551,38.03765 -7.37703,-20.19343 37.58807,-47.03067 42.95551,-38.03765 z"
       id="path32769-7-0-5-9-4-3-9" />
    <path
       style="display:inline;fill:#e5cf70;fill-opacity:1;stroke:none;stroke-width:0.919926px;stroke-linecap:butt;stroke-linejoin:miter;stroke-opacity:1"
       d="m 67.549486,236.9329 c 0,0 10.54008,61.88448 -6.78392,52.34413 -17.324,-9.54033 -2.37481,-55.33398 6.78392,-52.34413 z"
       id="path32769-9" />
    <path
       style="display:inline;fill:#e5cf70;fill-opacity:1;stroke:none;stroke-width:0.827473px;stroke-linecap:butt;stroke-linejoin:miter;stroke-opacity:1"
       d="m 67.549486,236.9329 c 0,0 53.221234,18.86759 38.130264,28.28742 -15.090959,9.41983 -44.495534,-22.40651 -38.130264,-28.28742 z"
       id="path32769-9-1" />
    <path
       style="display:inline;fill:#e5cf70;fill-opacity:1;stroke:none;stroke-width:0.758462px;stroke-linecap:butt;stroke-linejoin:miter;stroke-opacity:1"
       d="m 67.549486,234.9329 c 0,0 47.578464,-20.37439 43.268754,-4.64825 -4.3097,15.72612 -43.900694,12.56645 -43.268754,4.64825 z"
       id="path32769-9-1-7" />
    <path
       style="display:inline;fill:#e5cf70;fill-opacity:1;stroke:none;stroke-width:0.919926px;stroke-linecap:butt;stroke-linejoin:miter;stroke-opacity:1"
       d="m 264.76559,278.51267 c 0,0 26.76765,56.7827 7.51832,52.2437 -19.24932,-4.53897 -17.14351,-52.66487 -7.51832,-52.2437 z"
       id="path32769-9-69" />
    <path
       style="display:inline;fill:#e5cf70;fill-opacity:1;stroke:none;stroke-width:0.732267px;stroke-linecap:butt;stroke-linejoin:miter;stroke-opacity:1"
       d="m 78.768026,87.086283 c 0,0 22.814554,44.457607 7.37917,41.361637 C 70.71182,125.35198 71.099372,87.008767 78.768026,87.086283 Z"
       id="path32769-9-69-6" />
    <path
       style="display:inline;fill:#e5cf70;fill-opacity:1;stroke:none;stroke-width:0.827473px;stroke-linecap:butt;stroke-linejoin:miter;stroke-opacity:1"
       d="m 264.76559,278.51267 c 0,0 56.33279,3.88623 44.32487,17.01179 -12.00791,13.12557 -48.87756,-9.63786 -44.32487,-17.01179 z"
       id="path32769-9-1-5" />
    <path
       style="display:inline;fill:#e5cf70;fill-opacity:1;stroke:none;stroke-width:0.758462px;stroke-linecap:butt;stroke-linejoin:miter;stroke-opacity:1"
       d="m 264.22863,276.5861 c 0,0 40.36162,-32.40008 40.43224,-16.09425 0.0706,16.30581 -38.91512,23.8914 -40.43224,16.09425 z"
       id="path32769-9-1-7-1" />
    <path
       style="display:inline;fill:#e5cf70;fill-opacity:1;stroke:none;stroke-width:0.919926px;stroke-linecap:butt;stroke-linejoin:miter;stroke-opacity:1"
       d="m 712.66688,486.08457 c 0,0 61.53816,-12.40312 52.52504,5.20094 -9.01309,17.60405 -55.23709,4.04386 -52.52504,-5.20094 z"
       id="path32769-9-69-7" />
    <path
       style="display:inline;fill:#c1a52e;fill-opacity:1;stroke:none;stroke-width:0.827473px;stroke-linecap:butt;stroke-linejoin:miter;stroke-opacity:1"
       d="m 712.66688,486.08457 c 0,0 17.25263,-53.76647 27.12365,-38.96669 9.87103,14.79977 -21.0533,45.15156 -27.12365,38.96669 z"
       id="path32769-9-1-5-2" />
    <path
       style="display:inline;fill:#e5cf70;fill-opacity:1;stroke:none;stroke-width:0.758462px;stroke-linecap:butt;stroke-linejoin:miter;stroke-opacity:1"
       d="m 710.66779,486.14494 c 0,0 -21.80116,-46.94182 -5.95211,-43.10874 15.84903,3.8331 13.88577,43.50139 5.95211,43.10874 z"
       id="path32769-9-1-7-1-3" />
    <path
       style="display:inline;fill:#c1a52e;fill-opacity:1;stroke:none;stroke-width:0.919926px;stroke-linecap:butt;stroke-linejoin:miter;stroke-opacity:1"
       d="m 151.02995,146.01689 c 0,0 3.39945,-62.68353 18.18616,-49.5499 14.78672,13.13361 -9.91484,54.49023 -18.18616,49.5499 z"
       id="path32769-9-6" />
    <path
       style="display:inline;fill:#e5cf70;fill-opacity:1;stroke:none;stroke-width:0.758462px;stroke-linecap:butt;stroke-linejoin:miter;stroke-opacity:1"
       d="m 152.98048,146.45897 c 0,0 -50.90514,9.35378 -43.22596,-5.03076 7.67917,-14.38453 45.59249,-2.5519 43.22596,5.03076 z"
       id="path32769-9-1-7-6" />
    <path
       style="display:inline;fill:#e5cf70;fill-opacity:1;stroke:none;stroke-width:0.827473px;stroke-linecap:butt;stroke-linejoin:miter;stroke-opacity:1"
       d="m 155.02995,148.01689 c 0,0 -47.73437,-30.16482 -30.93453,-36.01597 16.79983,-5.85116 38.44226,31.68749 30.93453,36.01597 z"
       id="path32769-9-1-2" />
    <path
       style="display:inline;fill:#e5cf70;fill-opacity:1;stroke:none;stroke-width:0.919926px;stroke-linecap:butt;stroke-linejoin:miter;stroke-opacity:1"
       d="m 763.36351,219.20339 c 0,0 -6.068,-62.48169 10.52602,-51.72169 16.59402,10.75999 -1.60569,55.36164 -10.52602,51.72169 z"
       id="path32769-9-6-2" />
    <path
       style="display:inline;fill:#e5cf70;fill-opacity:1;stroke:none;stroke-width:0.758462px;stroke-linecap:butt;stroke-linejoin:miter;stroke-opacity:1"
       d="m 765.35834,219.34704 c 0,0 -48.91898,16.90444 -43.49086,1.52847 5.4281,-15.37596 44.6899,-9.38083 43.49086,-1.52847 z"
       id="path32769-9-1-7-6-20" />
    <path
       style="display:inline;fill:#e5cf70;fill-opacity:1;stroke:none;stroke-width:0.827473px;stroke-linecap:butt;stroke-linejoin:miter;stroke-opacity:1"
       d="m 767.61884,220.57895 c 0,0 -51.72862,-22.64147 -36.00004,-30.95307 15.72856,-8.31158 42.77126,25.54454 36.00004,30.95307 z"
       id="path32769-9-1-2-5" />
    <path
       style="display:inline;fill:#e5cf70;fill-opacity:1;stroke:none;stroke-width:0.919926px;stroke-linecap:butt;stroke-linejoin:miter;stroke-opacity:1"
       d="m 70.498285,38.373694 c 0,0 51.319585,36.153575 32.340075,41.713889 C 83.858858,85.647916 61.920942,42.761265 70.498285,38.373694 Z"
       id="path32769-9-6-6" />
    <path
       style="display:inline;fill:#e5cf70;fill-opacity:1;stroke:none;stroke-width:0.758462px;stroke-linecap:butt;stroke-linejoin:miter;stroke-opacity:1"
       d="m 69.088279,39.792103 c 0,0 19.093274,-48.1069002 27.207981,-33.9634824 C 104.41097,19.972025 74.258391,45.82262 69.088279,39.792103 Z"
       id="path32769-9-1-7-6-5" />
    <path
       style="display:inline;fill:#e5cf70;fill-opacity:1;stroke:none;stroke-width:0.827473px;stroke-linecap:butt;stroke-linejoin:miter;stroke-opacity:1"
       d="m 66.680085,40.702073 c 0,0 50.902065,-24.443127 46.943505,-7.09953 -3.95856,17.343592 -47.260256,15.759866 -46.943505,7.09953 z"
       id="path32769-9-1-2-7" />
    <path
       style="display:inline;fill:#e5cf70;fill-opacity:1;stroke:none;stroke-width:0.919926px;stroke-linecap:butt;stroke-linejoin:miter;stroke-opacity:1"
       d="m 684.2373,351.93589 c 0,0 26.32172,56.99077 7.10857,52.30103 -19.21316,-4.68972 -16.73017,-52.79765 -7.10857,-52.30103 z"
       id="path32769-9-6-6-9" />
    <path
       style="display:inline;fill:#e5cf70;fill-opacity:1;stroke:none;stroke-width:0.758462px;stroke-linecap:butt;stroke-linejoin:miter;stroke-opacity:1"
       d="m 682.30657,352.45772 c 0,0 40.61437,-32.0827 40.55717,-15.77682 -0.0572,16.30585 -39.10122,23.58563 -40.55717,15.77682 z"
       id="path32769-9-1-7-6-5-4" />
    <path
       style="display:inline;fill:#e5cf70;fill-opacity:1;stroke:none;stroke-width:0.827473px;stroke-linecap:butt;stroke-linejoin:miter;stroke-opacity:1"
       d="m 679.76636,352.03965 c 0,0 56.3006,4.32768 44.19017,17.35872 -12.11043,13.03103 -48.80052,-10.0207 -44.19017,-17.35872 z"
       id="path32769-9-1-2-7-3" />
    <path
       style="display:inline;fill:#e5cf70;fill-opacity:1;stroke:none;stroke-width:0.919926px;stroke-linecap:butt;stroke-linejoin:miter;stroke-opacity:1"
       d="m 186.82733,348.89216 c 0,0 3.39945,-62.68353 18.18616,-49.5499 14.78672,13.13361 -9.91484,54.49023 -18.18616,49.5499 z"
       id="path32769-9-6-7" />
    <path
       style="display:inline;fill:#e5cf70;fill-opacity:1;stroke:none;stroke-width:0.758462px;stroke-linecap:butt;stroke-linejoin:miter;stroke-opacity:1"
       d="m 188.77786,349.33424 c 0,0 -50.90514,9.35378 -43.22596,-5.03076 7.67917,-14.38453 45.59249,-2.5519 43.22596,5.03076 z"
       id="path32769-9-1-7-6-2" />
    <path
       style="display:inline;fill:#e5cf70;fill-opacity:1;stroke:none;stroke-width:0.827473px;stroke-linecap:butt;stroke-linejoin:miter;stroke-opacity:1"
       d="m 190.82733,350.89216 c 0,0 -47.73437,-30.16482 -30.93453,-36.01597 16.79983,-5.85116 38.44226,31.68749 30.93453,36.01597 z"
       id="path32769-9-1-2-1" />
  </g>
  <g
     inkscape:groupmode="layer"
     id="layer4"
     inkscape:label="trees"
     style="display:inline"
     sodipodi:insensitive="true">
    <path
       id="rect936-79-4"
       style="display:inline;fill:#cfbfa1;fill-opacity:1"
       d="M 800,188.14453 C 722.7706,226.957 657.20898,362.85742 657.20898,362.85742 l 8.72657,38.47266 C 719.85798,273.74086 769.78552,225.79829 800,207.75977 Z" />
    <path
       id="rect936-79"
       style="display:inline;fill:#cfbfa1;fill-opacity:1"
       d="m 661.54102,-0.09179687 -13.375,0.45703125 c 0,-1e-8 -13.31581,304.88036562 9.86718,449.49804562 11.5915,72.30884 9.77297,90.11299 42.52539,105.0625 32.75241,14.94951 100.07618,27.04492 100.07618,27.04492 l -0.32422,-49.56836 c 0,0 -68.55704,9.70285 -102.32227,-74.67773 C 691.35371,441.14457 685.89378,407.7485 681.3457,366.74219 729.26459,264.82168 772.68738,224.06583 800,207.75977 v -19.61524 c -51.41858,25.84096 -97.54016,94.56778 -122.70898,137.7207 -12.07679,-138.07093 -15.75,-325.95702687 -15.75,-325.95702687 z" />
    <path
       id="rect936-79-98"
       style="display:inline;fill:#b2a07e;fill-opacity:1"
       d="m 785.69141,196.60547 c -4.04876,2.68031 -8.05887,5.55264 -12.01172,8.66992 -0.31945,8.27376 -0.30809,16.40541 -0.19336,22.83789 3.73217,-3.46373 7.33251,-6.58467 10.76562,-9.32031 -0.16211,-7.16337 0.4714,-14.84394 1.43946,-22.1875 z" />
    <path
       id="rect936-79-2"
       style="display:inline;fill:#b2a07e;fill-opacity:1"
       d="m 748.81641,227.99609 c -5.60108,5.7984 -11.03621,11.85635 -16.28711,18.09766 2.31126,5.63565 5.23924,12.19647 8.5957,18.36523 5.19639,-6.86837 10.24014,-13.04555 15.11523,-18.58789 -3.17756,-5.32059 -5.9924,-11.42154 -7.42382,-17.875 z" />
    <path
       id="rect936-79-9"
       style="display:inline;fill:#c2ae88;fill-opacity:1"
       d="m 716.54688,266.25 c -4.54657,6.07428 -8.78651,12.12195 -12.91797,18.13867 4.05502,5.23503 8.73127,10.77901 13.51757,15.4043 4.38391,-7.13055 8.68391,-13.69904 12.91407,-19.875 -4.4114,-3.57017 -9.33972,-8.18263 -13.51367,-13.66797 z" />
    <path
       id="rect936-79-6"
       style="display:inline;fill:#c2ae88;fill-opacity:1"
       d="m 692.03516,301.87695 c -5.40205,8.46232 -10.47259,16.66455 -14.74414,23.98828 -0.35884,-4.10247 -0.64026,-8.56775 -0.98438,-12.75195 l -28.07422,35.93555 c 0,0 2.77279,41.27231 4.70313,60.0957 7.88191,-6.66964 18.01933,-13.86283 30.98437,-21.45508 -0.87637,-6.81505 -1.75809,-13.58892 -2.57422,-20.94726 5.42033,-11.52871 10.77208,-22.17085 16.06055,-32.1875 -3.4183,-11.50011 -4.80436,-24.42109 -5.37109,-32.67774 z"
       sodipodi:nodetypes="ccccccccc" />
    <path
       style="display:inline;fill:#cfbfa1;fill-opacity:1;stroke:none;stroke-width:1px;stroke-linecap:butt;stroke-linejoin:miter;stroke-opacity:1"
       d="m 0.53581631,210.06442 c 0,0 175.15148369,-3.46688 243.99828369,-209.97282619 l 17.01655,-0.11669745 c 0,0 -35.79522,98.12163364 -52.3545,125.72042364 C 192.63688,153.29411 167.24599,194.14034 92.177274,226.15494 1.6130399,264.77792 0.26992358,272.3315 0.26992358,272.3315 Z"
       id="path13355"
       sodipodi:nodetypes="cccsscc" />
    <path
       id="path13355-69"
       style="display:inline;fill:#c2ae88;fill-opacity:1;stroke:none;stroke-width:1px;stroke-linecap:butt;stroke-linejoin:miter;stroke-opacity:1"
       d="m 235.54297,24.425781 c -1.50673,3.717954 -3.04014,7.378681 -4.61719,10.949219 3.7277,3.013993 8.41546,6.740899 13.26172,10.402344 2.29815,-5.895797 4.45669,-11.464095 6.4375,-16.658203 z" />
    <path
       id="path13355-92"
       style="display:inline;fill:#e5d9c2;fill-opacity:1;stroke:none;stroke-width:1px;stroke-linecap:butt;stroke-linejoin:miter;stroke-opacity:1"
       d="m 227.14258,43.662109 c -2.36232,5.011609 -4.79866,9.859872 -7.29102,14.574219 3.11082,6.968039 6.92559,15.174829 10.51172,21.910156 3.34769,-8.049789 6.65933,-16.184575 9.87305,-24.302734 z" />
    <path
       id="path13355-0"
       style="display:inline;fill:#c2ae88;fill-opacity:1;stroke:none;stroke-width:1px;stroke-linecap:butt;stroke-linejoin:miter;stroke-opacity:1"
       d="m 66.308594,195.70117 c -15.457666,5.61964 -29.055196,8.98332 -39.964844,11.06055 -9.240674,24.76273 -20.3447003,49.92097 -26.0625,62.60937 l -0.0117188,2.96094 c 0,0 1.5599136,-4.96777 46.3789068,-25.91601 14.73498,-27.58293 18.687335,-43.15762 19.660156,-50.71485 z" />
    <path
       id="path13355-97"
       style="display:inline;fill:#e5d9c2;fill-opacity:1;stroke:none;stroke-width:1.02497px;stroke-linecap:butt;stroke-linejoin:miter;stroke-opacity:1"
       d="m 212.74559,71.664329 c -2.50573,3.995914 -5.0381,7.875421 -7.60009,11.637771 1.61554,10.386863 3.97603,23.74588 7.06352,36.63276 2.79793,-5.28009 5.81249,-11.68304 8.88343,-18.58361 -3.37083,-9.575066 -6.78177,-20.572655 -8.34686,-29.686921 z" />
    <path
       id="path13355-9"
       style="display:inline;fill:#c2ae88;fill-opacity:1;stroke:none;stroke-width:1px;stroke-linecap:butt;stroke-linejoin:miter;stroke-opacity:1"
       d="m 182.16863,114.69853 c -6.70173,7.76449 -13.46125,14.93046 -20.20899,21.40039 4.51604,7.92548 11.15756,20.27679 16.19922,32.42187 7.50953,-8.08322 13.56343,-15.96583 18.69531,-23.41406 -3.16581,-8.83745 -8.52278,-22.13816 -14.68554,-30.4082 z" />
    <path
       id="path13355-8"
       style="display:inline;fill:#c2ae88;fill-opacity:1;stroke:none;stroke-width:1px;stroke-linecap:butt;stroke-linejoin:miter;stroke-opacity:1"
       d="m 151.02995,146.01689 c -5.33123,4.62637 -10.61379,8.8861 -15.82031,12.79687 3.38895,9.47285 8.414,25.09389 9.96485,38.26172 6.46997,-4.5598 12.3246,-9.15343 17.61132,-13.75 -3.0754,-12.63405 -7.25117,-27.59647 -11.75586,-37.30859 z" />
    <path
       id="path13355-6"
       style="display:inline;fill:#b2a07e;fill-opacity:1;stroke:none;stroke-width:1px;stroke-linecap:butt;stroke-linejoin:miter;stroke-opacity:1"
       d="m 124.01042,166.82939 c -9.215,6.23764 -18.02639,11.38838 -26.22656,15.66015 -7.246717,17.09811 -20.198529,38.68255 -30.234374,54.44336 7.306786,-3.28093 15.314024,-6.80565 24.626953,-10.77734 9.595971,-4.0924 18.358221,-8.33306 26.416011,-12.66797 3.77506,-16.4383 5.01604,-34.81135 5.41797,-46.6582 z" />
    <path
       style="display:inline;fill:#cfbfa1;fill-opacity:1;stroke:none;stroke-width:1px;stroke-linecap:butt;stroke-linejoin:miter;stroke-opacity:1"
       d="m 0.80565102,387.72219 c 0,0 154.29686898,26.10453 224.94977898,-82.08274 C 296.40834,197.45218 290.88858,0.1208102 290.88858,0.1208102 l 9.93557,-0.2759872 c 0,0 1.10395,156.761147 -12.14347,194.295507 0,0 35.52367,18.73838 87.21219,-30.91065 51.68852,-49.64903 70.2626,-163.31789137 70.2626,-163.31789137 l 7.01402,-0.06696563 c 0,0 -15.45532,98.251707 -32.0146,129.162347 -16.55928,30.91065 -43.05412,81.69244 -133.57816,93.83591 0,0 -23.18299,70.6529 -47.46993,107.08331 0,0 -30.91064,48.57388 -110.39517,78.38058 C 56.256128,435.85278 0.549277,425.97019 0.549277,425.97019 Z"
       id="path14103"
       sodipodi:nodetypes="cscccsccsccscc" />
    <path
       id="path14103-98"
       style="display:inline;fill:#c2ae88;fill-opacity:1;stroke:none;stroke-width:1px;stroke-linecap:butt;stroke-linejoin:miter;stroke-opacity:1"
       d="m 443.52214,13.872356 c -0.64516,3.004773 -1.44444,6.299355 -2.32617,10.033203 l 7.48047,1.71875 c 0.71008,-3.863511 1.37493,-7.42853 1.92578,-10.572265 z" />
    <path
       id="path14103-48"
       style="display:inline;fill:#e5d9c2;fill-opacity:1;stroke:none;stroke-width:1px;stroke-linecap:butt;stroke-linejoin:miter;stroke-opacity:1"
       d="m 439.67058,30.136028 c -0.8065,3.240998 -1.47885,6.109992 -2.44531,9.689453 l 7.56445,5.882813 c 0.73119,-3.630586 1.47506,-7.285312 2.125,-10.671875 z" />
    <path
       id="path14103-26"
       style="display:inline;fill:#e5d9c2;fill-opacity:1;stroke:none;stroke-width:1px;stroke-linecap:butt;stroke-linejoin:miter;stroke-opacity:1"
       d="m 434.25261,50.432903 c -1.43314,4.891418 -3.04277,9.995397 -4.75391,15.199219 l 10.78321,1.154297 c 0.49431,-2.197909 0.97791,-4.371814 1.45117,-6.554688 -2.90203,-4.187775 -5.3874,-7.426701 -7.48047,-9.798828 z" />
    <path
       id="path14103-4"
       style="display:inline;fill:#c2ae88;fill-opacity:1;stroke:none;stroke-width:1px;stroke-linecap:butt;stroke-linejoin:miter;stroke-opacity:1"
       d="m 428.08464,69.817669 c -2.39036,7.039786 -4.99984,14.203798 -7.91601,21.431641 l 12.39062,6.52148 c 1.74098,-6.12273 3.39059,-12.649568 4.99219,-19.257809 -3.95735,-2.492812 -7.21469,-5.923647 -9.4668,-8.695312 z" />
    <path
       id="path14103-61"
       style="display:inline;fill:#c2ae88;fill-opacity:1;stroke:none;stroke-width:1px;stroke-linecap:butt;stroke-linejoin:miter;stroke-opacity:1"
       d="m 414.36589,104.79228 c -4.02216,8.84757 -8.45644,17.52881 -13.34961,25.74414 l 9.67969,17.12695 c 4.03834,-6.64389 7.42241,-12.98797 10.45898,-18.65625 2.12692,-3.97024 4.23289,-9.07865 6.29297,-14.91992 l 0.13282,-0.50586 z" />
    <path
       id="path14103-65"
       style="display:inline;fill:#e5d9c2;fill-opacity:1;stroke:none;stroke-width:1px;stroke-linecap:butt;stroke-linejoin:miter;stroke-opacity:1"
       d="m 388.00847,149.67118 c -3.64636,4.65289 -7.476,9.00991 -11.51953,12.95313 4.21129,4.42662 9.79081,8.21602 14.80664,11.11523 3.27918,-3.57528 6.30654,-7.18064 9.03711,-10.78711 -4.42209,-4.17212 -9.01407,-9.36647 -12.32422,-13.28125 z" />
    <path
       id="path14103-63"
       style="display:inline;fill:#c2ae88;fill-opacity:1;stroke:none;stroke-width:1px;stroke-linecap:butt;stroke-linejoin:miter;stroke-opacity:1"
       d="m 369.08855,169.33915 c -4.08137,3.55274 -8.08582,6.8232 -11.93164,9.57032 l 9.30468,16.19726 c 5.8616,-3.93834 11.1568,-8.0876 15.88868,-12.38476 -4.02654,-3.70541 -9.17899,-8.67476 -13.26172,-13.38282 z" />
    <path
       id="path14103-37"
       style="display:inline;fill:#c2ae88;fill-opacity:1;stroke:none;stroke-width:1px;stroke-linecap:butt;stroke-linejoin:miter;stroke-opacity:1"
       d="m 347.84831,184.95829 c -7.4868,4.42689 -14.3892,7.38397 -20.66796,9.33008 1.59638,6.15424 3.71602,12.28532 5.79882,17.68164 8.19356,-2.99411 15.6454,-6.36782 22.37305,-10.05664 -2.11756,-5.20266 -4.69831,-11.20298 -7.50391,-16.95508 z" />
    <path
       id="path14103-33"
       style="display:inline;fill:#c2ae88;fill-opacity:1;stroke:none;stroke-width:1px;stroke-linecap:butt;stroke-linejoin:miter;stroke-opacity:1"
       d="m 300.6862,33.675091 -10.07812,0.671875 c -0.1052,3.480292 -0.26638,7.363228 -0.43359,11.27539 l 10.38086,-0.943359 c 0.0551,-3.897597 0.0962,-7.479237 0.13085,-11.003906 z" />
    <path
       id="path14103-21"
       style="display:inline;fill:#c2ae88;fill-opacity:1;stroke:none;stroke-width:1px;stroke-linecap:butt;stroke-linejoin:miter;stroke-opacity:1"
       d="m 300.37956,55.411419 -10.74804,0.976562 c -0.21031,3.854257 -0.40321,7.635535 -0.6836,11.777344 l 11.16602,-1.71875 c 0.0858,-3.68503 0.20002,-7.514563 0.26562,-11.035156 z" />
    <path
       id="path14103-34"
       style="display:inline;fill:#e5d9c2;fill-opacity:1;stroke:none;stroke-width:1.02104px;stroke-linecap:butt;stroke-linejoin:miter;stroke-opacity:1"
       d="M 299.96745,82.130169 287.79314,83.2747 c -0.40596,4.98845 -0.83155,9.99711 -1.35813,15.28711 l 12.82181,2.68359 c 0.26195,-6.50832 0.52465,-12.77384 0.71063,-19.115231 z" />
    <path
       id="path14103-3"
       style="display:inline;fill:#c2ae88;fill-opacity:1;stroke:none;stroke-width:1px;stroke-linecap:butt;stroke-linejoin:miter;stroke-opacity:1"
       d="m 284.48113,115.23173 c -0.79157,6.48986 -1.66909,13.09998 -2.66211,19.82813 l 14.76757,6.75781 c 0.6146,-7.71986 1.18791,-15.62637 1.63672,-23.88672 z" />
    <path
       id="path14103-97"
       style="display:inline;fill:#c2ae88;fill-opacity:1;stroke:none;stroke-width:1px;stroke-linecap:butt;stroke-linejoin:miter;stroke-opacity:1"
       d="m 277.87175,158.95439 c -3.54819,19.50918 -8.03871,39.40657 -13.74219,58.90429 6.31106,5.2119 13.99057,8.47703 21.54297,10.50977 0.61921,-1.8238 1.9043,-5.52539 1.9043,-5.52539 10.13996,-1.36024 19.36344,-3.26802 27.97266,-5.51563 l -3.125,-19.99609 c -15.03276,1.37126 -23.74414,-3.19141 -23.74414,-3.19141 2.1029,-5.95823 3.81049,-15.14093 5.25195,-26.0039 -4.94711,-3.52787 -10.54426,-6.95732 -16.06055,-9.18164 z" />
    <path
       id="path14103-1"
       style="display:inline;fill:#c2ae88;fill-opacity:1;stroke:none;stroke-width:1px;stroke-linecap:butt;stroke-linejoin:miter;stroke-opacity:1"
       d="m 261.95183,225.21806 c -1.30628,4.21003 -2.67212,8.39238 -4.09766,12.54101 6.3372,5.26711 13.96407,8.58298 20.61328,10.64454 1.3465,-3.58854 2.44247,-6.6051 3.52149,-9.59571 -7.24535,-2.96805 -14.1669,-8.3482 -20.03711,-13.58984 z" />
    <path
       id="path14103-5"
       style="display:inline;fill:#c2ae88;fill-opacity:1;stroke:none;stroke-width:1px;stroke-linecap:butt;stroke-linejoin:miter;stroke-opacity:1"
       d="m 251.9362,253.72587 c -2.04241,5.19698 -4.19073,10.31125 -6.45117,15.33399 3.91566,5.17889 9.92905,11.25548 18.45703,15.09179 2.65778,-6.05385 5.15556,-11.96987 7.48438,-17.74023 -6.94608,-1.33401 -15.49592,-4.61663 -19.49024,-12.68555 z" />
    <path
       id="path14103-6"
       style="display:inline;fill:#c2ae88;fill-opacity:1;stroke:none;stroke-width:1px;stroke-linecap:butt;stroke-linejoin:miter;stroke-opacity:1"
       d="m 238.14519,284.35673 c -1.6096,3.09476 -3.2953,6.1126 -5.00391,9.10547 3.72159,7.16485 9.04745,16.54404 14.70703,23.63672 2.94653,-5.27044 5.81317,-10.91553 8.61133,-16.69141 -6.99534,-3.06672 -13.65578,-8.0478 -18.31445,-16.05078 z" />
    <path
       id="path14103-2"
       style="display:inline;fill:#b2a07e;fill-opacity:1;stroke:none;stroke-width:1px;stroke-linecap:butt;stroke-linejoin:miter;stroke-opacity:1"
       d="m 227.47527,302.84892 c -0.58234,0.92034 -1.12768,1.88295 -1.72071,2.79101 -6.0962,9.33481 -12.83385,17.6022 -19.99609,25.03516 -1.42133,16.25989 -1.28894,27.45183 -0.2793,35.06445 10.74988,-8.6757 18.44624,-16.4225 24.03711,-22.67578 -0.41793,-11.80055 -1.04205,-26.19068 -2.04101,-40.21484 z" />
    <path
       id="path14103-8"
       style="display:inline;fill:#b2a07e;fill-opacity:1;stroke:none;stroke-width:1px;stroke-linecap:butt;stroke-linejoin:miter;stroke-opacity:1"
       d="m 189.16667,345.76298 c -15.91673,12.63445 -33.27291,21.79812 -50.80859,28.40235 -10.95988,14.89472 -18.93554,29.2402 -24.03125,39.42773 5.03907,-1.59956 10.15182,-3.3228 15.38476,-5.28516 17.02658,-6.38496 31.69513,-13.64447 44.4375,-21.08984 -1.03222,-13.33204 7.16229,-29.36966 15.01758,-41.45508 z" />
    <path
       id="path14103-9"
       style="display:inline;fill:#b2a07e;fill-opacity:1;stroke:none;stroke-width:1px;stroke-linecap:butt;stroke-linejoin:miter;stroke-opacity:1"
       d="m 106.04949,383.71611 c -23.923903,5.24209 -46.547008,6.58104 -64.535161,6.44531 l -7.832031,37.35156 c 13.250882,-0.34035 29.687434,-1.77272 48.810547,-5.6582 1.03561,-17.21623 12.290968,-29.77416 23.556645,-38.13867 z" />
    <path
       id="path35928-15"
       style="display:inline;fill:#b2a07e;fill-opacity:1;stroke:none;stroke-width:1px;stroke-linecap:butt;stroke-linejoin:miter;stroke-opacity:1"
       d="m 688.74609,420.75781 c -13.55145,1.98659 -24.44238,9.8748 -32.34961,18.00977 0.52968,3.76741 1.06311,7.51747 1.63672,11.0957 0.86177,5.37581 1.32731,8.53361 2.06055,13.32813 10.86703,-9.62433 22.36017,-15.63859 33.59375,-19.25977 -1.73186,-6.64651 -3.3794,-14.40252 -4.94141,-23.17383 z" />
    <path
       id="path35928-8"
       style="display:inline;fill:#887758;fill-opacity:1;stroke:none;stroke-width:1px;stroke-linecap:butt;stroke-linejoin:miter;stroke-opacity:1"
       d="m 702.80078,468.55469 c -20.68839,1.62719 -32.2954,10.32745 -38.79883,19.90625 2.54049,16.18663 4.94208,29.00567 8.38086,38.16015 13.00189,-17.49948 32.83086,-27.16973 46.49805,-32.07617 -5.73774,-7.22392 -11.17207,-15.81809 -16.08008,-25.99023 z" />
    <path
       id="path35928-1"
       style="display:inline;fill:#b2a07e;fill-opacity:1;stroke:none;stroke-width:1px;stroke-linecap:butt;stroke-linejoin:miter;stroke-opacity:1"
       d="m 726.65039,503.36523 c -10.42903,22.33362 -9.9016,43.92804 -7.44141,58.61133 10.00351,3.32854 20.80868,6.38604 31.45704,9.07227 -5.70856,-27.10135 -3.2546,-41.49902 0.78906,-49.12305 -8.1941,-4.3081 -16.65815,-10.23622 -24.80469,-18.56055 z" />
    <path
       id="path35928-70"
       style="display:inline;fill:#c2ae88;fill-opacity:1;stroke:none;stroke-width:1px;stroke-linecap:butt;stroke-linejoin:miter;stroke-opacity:1"
       d="m 674.50586,291.18359 c -7.84507,4.05678 -19.11636,8.63919 -28.30469,12.17579 0.21717,6.27117 0.41899,12.54058 0.6836,18.73242 l 28.8789,-14.64844 c -0.42976,-5.37813 -0.85138,-10.78104 -1.25781,-16.25977 z" />
    <path
       id="path35928-0"
       style="display:inline;fill:#e5d9c2;fill-opacity:1;stroke:none;stroke-width:1px;stroke-linecap:butt;stroke-linejoin:miter;stroke-opacity:1"
       d="m 672.02148,255.07031 c -9.57561,1.49928 -19.99254,2.6525 -27.01171,3.35352 0.11266,6.09048 0.21583,12.17681 0.36523,18.25976 l 27.66602,-6.02343 c -0.35163,-5.17719 -0.68709,-10.37507 -1.01954,-15.58985 z" />
    <path
       id="path35928-5"
       style="display:inline;fill:#b2a07e;fill-opacity:1;stroke:none;stroke-width:1px;stroke-linecap:butt;stroke-linejoin:miter;stroke-opacity:1"
       d="m 644.50586,219.70508 c 0.0427,5.87982 0.0842,11.75315 0.15625,17.67969 l 26.36523,2.23437 c -0.31044,-5.17448 -0.57665,-10.31742 -0.86914,-15.48828 -8.88322,-1.22934 -18.43841,-2.99849 -25.65234,-4.42578 z" />
    <path
       id="path35928-7"
       style="display:inline;fill:#e5d9c2;fill-opacity:1;stroke:none;stroke-width:1px;stroke-linecap:butt;stroke-linejoin:miter;stroke-opacity:1"
       d="m 644.46875,165.46289 c -0.0709,12.13281 -0.11018,24.33219 -0.0742,36.98633 8.06507,0.91759 16.90661,1.18863 24.61328,1.19922 -0.66363,-12.6511 -1.12336,-24.27915 -1.68554,-36.53516 -7.84112,0.32612 -16.04665,-0.55493 -22.85352,-1.65039 z" />
    <path
       id="path35928-2"
       style="display:inline;fill:#e5d9c2;fill-opacity:1;stroke:none;stroke-width:1px;stroke-linecap:butt;stroke-linejoin:miter;stroke-opacity:1"
       d="m 665.12109,116.8418 c -6.08987,3.14104 -13.56521,4.20876 -20.14062,4.41797 -0.13222,8.72456 -0.22301,17.84224 -0.3125,27.10742 8.40598,-0.19774 15.65157,-1.50052 21.65234,-3.20117 -0.41364,-9.74406 -0.84774,-19.15288 -1.19922,-28.32422 z" />
    <path
       id="path35928-9"
       style="display:inline;fill:#b2a07e;fill-opacity:1;stroke:none;stroke-width:1px;stroke-linecap:butt;stroke-linejoin:miter;stroke-opacity:1"
       d="m 663.71289,76.904297 c -6.3278,2.349685 -12.40625,3.812229 -18,4.671875 -0.21136,9.189002 -0.4153,17.518942 -0.59375,27.789058 7.05023,-1.77193 13.81762,-4.06465 19.51758,-6.23632 -0.33022,-9.094543 -0.65454,-18.020188 -0.92383,-26.224613 z" />
    <path
       id="rect936-3-7"
       style="display:inline;fill:#cfbfa1;fill-opacity:1"
       d="M 59.216797,0 C 54.026192,63.155837 22.526044,95.085538 0,110.05469 v 26.99023 C 61.09838,112.99089 74.30178,42.728971 76.482422,0 Z" />
    <path
       id="rect936-3-7-4"
       style="display:inline;fill:#c2ae88;fill-opacity:1"
       d="m 75.908203,8.5996094 c -4.479204,2.2379336 -11.436364,5.0254986 -18.300781,5.0390626 -0.557383,3.654961 -1.204302,7.193707 -1.9375,10.617187 2.953503,1.82469 9.21026,3.716308 18.908203,-3.037109 0.56362,-4.350537 0.999388,-8.571397 1.330078,-12.6191406 z" />
    <path
       id="rect936-3-7-85"
       style="display:inline;fill:#e5d9c2;fill-opacity:1"
       d="m 54.011719,31.292969 c -0.68197,2.631693 -1.417017,5.185263 -2.195313,7.673828 3.576787,3.509697 9.988683,8.779085 17.429688,10.214844 1.200876,-4.661002 2.227801,-9.298584 3.091797,-13.863282 -4.569735,0.827261 -10.819257,0.385478 -18.326172,-4.02539 z" />
    <path
       id="rect936-3-7-9"
       style="display:inline;fill:#e5d9c2;fill-opacity:1"
       d="m 49.992188,44.441406 c -1.184489,3.343093 -2.445654,6.559266 -3.785157,9.634766 1.795947,3.255625 7.137875,12.423177 14.615235,20.271484 1.36812,-3.234479 2.624501,-6.500412 3.77539,-9.785156 C 60.882632,60.200463 56.108498,53.777027 49.992188,44.441406 Z" />
    <path
       id="rect936-3-7-0"
       style="display:inline;fill:#c2ae88;fill-opacity:1"
       d="m 41.384766,64.044922 c -2.918155,5.468565 -6.052258,10.462895 -9.31836,15 2.938925,6.682064 7.657503,18.009561 10.046875,26.992188 4.180834,-5.15065 7.89252,-10.61326 11.144531,-16.306641 C 49.788568,81.215552 45.437058,71.243431 41.384766,64.044922 Z" />
    <path
       id="rect936-3-7-8"
       style="display:inline;fill:#b2a07e;fill-opacity:1"
       d="m 25.953125,86.869141 c -5.129061,6.065782 -10.407208,11.124423 -15.529297,15.378909 1.62005,8.4847 3.39374,19.52355 3.570313,28.0332 6.850695,-3.97862 12.946343,-8.62901 18.404297,-13.76953 -1.62893,-9.34746 -3.850528,-20.512902 -6.445313,-29.642579 z" />
  </g>
  <g
     inkscape:groupmode="layer"
     id="layer2"
     inkscape:label="giraffe"
     style="display:inline"
     sodipodi:insensitive="true">
    <path
       style="fill:#c18f32;fill-opacity:1;stroke:none;stroke-width:1.25156px;stroke-linecap:butt;stroke-linejoin:miter;stroke-opacity:1"
       d="m 479.30521,231.94187 c 0,0 -30.31573,-0.48524 -32.89858,-27.91856 -2.58286,-27.43333 -5.00142,-28.73145 -5.00142,-28.73145 0,0 33.34729,0.53378 37.9,56.65001 z"
       id="path2130-9" />
    <path
       style="fill:#9c762e;fill-opacity:1;stroke:none;stroke-width:1.0072px;stroke-linecap:butt;stroke-linejoin:miter;stroke-opacity:1"
       d="m 355.90999,658.79392 33.98594,-18.55256 15.86011,-16.3699 6.79719,1.09132 1.13286,-13.09592 9.06292,-4.36531 -1.69929,-17.46124 16.42654,-3.81964 -7.93006,-14.18725 9.62935,-5.45664 -5.09789,-12.0046 11.89508,-15.82424 -11.32864,-10.91328 11.89507,-6.54796 -6.23075,-20.18954 8.49648,-6.00231 -5.66432,-9.82194 9.06292,-6.0023 -5.09789,-8.18496 7.36361,-5.45662 -2.83216,-24.55487 6.23076,-6.54796 -6.23076,-13.6416 7.93006,-8.73061 -6.23076,-20.73521 8.49649,-4.91098 -6.23076,-15.82424 9.06292,-2.18265 -4.53146,-7.09363 4.53146,-6.54797 -6.23076,-11.45893 6.23076,-4.91097 -5.09789,-7.63929 5.66432,-10.91327 -3.96503,-11.45893 4.53146,-10.36762 -7.36362,-9.82194 3.3986,-10.91327 -6.23076,-4.36531 2.83216,-17.46123 -6.79719,-5.45663 11.32865,-20.73523 11.89508,24.0092 -1.13287,152.24014 -13.02794,162.06207 -15.29367,78.0299 z"
       id="path10482" />
    <path
       id="rect936-3-3"
       style="display:inline;fill:#dcac53;fill-opacity:1"
       d="m 464.27344,499.61719 c 0,0 -0.1477,2.50131 -0.58985,6.86328 -0.44214,4.36197 -1.1782,10.58494 -2.36132,18.03125 -1.18311,7.4463 -2.81225,16.11615 -5.03516,25.36914 -2.22292,9.253 -4.65103,14.79701 -7.82227,28.0918 -2.41541,10.12614 -8.6467,20.28881 -13.8457,29.32226 -5.19899,9.03344 -11.29245,17.37365 -18.42773,24.38086 -7.13529,7.00721 -15.31321,12.68143 -24.6836,16.38477 -9.37039,3.70333 -19.9316,5.43483 -31.83593,4.55664 -95.23465,-7.02551 -149.09777,-7.0245 -182.66407,17.95508 C 163.25458,680.80722 125.8162,714.83232 131.67773,800 h 326.83204 c 23.50128,-63.39974 18.41796,-172.32422 18.41796,-172.32422 z" />
    <path
       id="rect936-3-3-8"
       style="display:inline;fill:#c69843;fill-opacity:1"
       d="m 475.63281,705.22852 c -23.07311,0.7062 -25.27202,11.52451 -27.40625,27.53125 -2.2079,16.55928 -25.39252,44.15819 -55.19922,54.09375 -8.02755,2.67585 -12.522,7.51164 -14.81836,13.14648 h 80.30079 c 4.34742,-11.72811 7.70633,-25.02255 10.31054,-38.88867 0.0734,-0.39235 0.14652,-0.78448 0.21875,-1.17774 0.80481,-4.36752 1.53966,-8.78613 2.20117,-13.23242 0.0669,-0.45157 0.1259,-0.90538 0.19141,-1.35742 0.58329,-4.00848 1.10758,-8.03214 1.58594,-12.05273 0.0783,-0.66152 0.16653,-1.32323 0.24219,-1.98438 0.45225,-3.93372 0.84269,-7.84981 1.20507,-11.74609 0.12717,-1.37404 0.25234,-2.74539 0.36914,-4.11133 0.29551,-3.43949 0.56493,-6.8533 0.79883,-10.2207 z" />
    <path
       id="rect936-3-3-7"
       style="display:inline;fill:#c69843;fill-opacity:1"
       d="m 342.28516,721.23047 c -0.5102,-10e-4 -1.01787,0.0426 -1.52539,0.12695 -15.22561,2.5285 -29.34445,42.07515 -58.95899,26.18555 C 262.94164,737.42415 256.58627,771.15425 254.51562,800 h 103.67579 c -1.64826,-36.74677 -5.4722,-77.00571 -14.36914,-78.62891 -0.51491,-0.0939 -1.02692,-0.13931 -1.53711,-0.14062 z" />
    <path
       style="fill:#dcac53;fill-opacity:1;stroke:none;stroke-width:1px;stroke-linecap:butt;stroke-linejoin:miter;stroke-opacity:1"
       d="m 476.92886,625.67536 c 9.93557,-73.96477 20.97509,-302.48277 29.8067,-336.70528 2.2079,-8.55562 3.18941,-19.36803 11.17345,-16.14665 4.72462,1.90631 20.96553,1.04813 29.56048,1.4753 17.57292,0.87337 12.76241,1.46517 17.57292,0.87337 4.81051,-0.5918 7.22338,-2.5161 10.08675,-3.5338 5.72675,-2.03541 -1.62414,-8.35134 -2.17611,-11.93918 -0.27599,-1.79392 -12.66527,-5.49943 -16.58406,-8.10471 -28.24352,-18.7768 -18.17331,-10.80613 -23.44634,-16.50624 -4.61201,-4.98555 -3.78906,-4.05556 -5.91992,-7.80392 -3.80024,-6.68496 -12.60229,-15.22045 -19.86299,-16.97885 -7.26071,-1.75841 -20.4379,0.6575 -26.87396,1.05303 -6.43605,0.39553 -11.09874,10.36217 -15.68181,13.76966 -4.58307,3.40749 -1.91083,10.74336 -3.61258,18.02083 -1.70175,7.27747 2.71006,12.84061 4.91796,24.84608 17.66323,96.0438 -25.39089,353.26455 -25.39089,353.26455 z"
       id="path1916"
       sodipodi:nodetypes="csssssssssssssscc" />
    <path
       id="path1916-5"
       style="display:inline;fill:#c69843;fill-opacity:1;stroke:none;stroke-width:1px;stroke-linecap:butt;stroke-linejoin:miter;stroke-opacity:1"
       d="m 498.79713,276.75349 c -3.11378,-0.0458 -5.40888,2.36603 -5.64062,9.31836 -0.45298,13.58953 5.13757,21.91332 9.91211,26.51367 1.25571,-10.73556 2.48172,-19.02611 3.66601,-23.61524 0.62784,-2.43288 1.16839,-5.02399 1.78711,-7.44726 -3.28679,-2.58941 -6.85206,-4.72725 -9.72461,-4.76953 z" />
    <path
       id="path1916-6"
       style="display:inline;fill:#c69843;fill-opacity:1;stroke:none;stroke-width:1px;stroke-linecap:butt;stroke-linejoin:miter;stroke-opacity:1"
       d="m 468.8069,291.71833 c 1.23271,15.58194 1.47287,33.54655 1.08008,52.74024 5.66842,-0.45882 12.27454,-2.59246 16.97656,-9.12305 8.06622,-11.20308 -6.74272,-24.43533 -18.05664,-43.61719 z" />
    <path
       id="path1916-08"
       style="display:inline;fill:#c69843;fill-opacity:1;stroke:none;stroke-width:1px;stroke-linecap:butt;stroke-linejoin:miter;stroke-opacity:1"
       d="m 500.23463,340.47028 -9.50586,9.2168 c -13.34593,12.94151 -0.91934,21.13619 6.68164,24.5957 0.94921,-11.8861 1.89837,-23.68681 2.82422,-33.8125 z" />
    <path
       id="path1916-4"
       style="display:inline;fill:#c69843;fill-opacity:1;stroke:none;stroke-width:1px;stroke-linecap:butt;stroke-linejoin:miter;stroke-opacity:1"
       d="m 492.44948,439.66364 -15.52149,19.31446 c -20.46969,25.47339 2.13223,41.54736 10.73047,46.42383 1.60283,-21.70151 3.20351,-43.79831 4.79102,-65.73829 z" />
    <path
       id="path1916-9"
       style="display:inline;fill:#c69843;fill-opacity:1;stroke:none;stroke-width:1px;stroke-linecap:butt;stroke-linejoin:miter;stroke-opacity:1"
       d="m 469.07838,369.18708 c -1.03386,22.34448 -2.78858,45.69711 -4.94531,68.94336 5.69885,-1.14187 11.35606,-5.68678 15.00391,-17.23828 8.43963,-26.7255 -1.36124,-47.41543 -10.0586,-51.70508 z" />
    <path
       id="path1916-7"
       style="fill:#9c762e;fill-opacity:1;stroke:none;stroke-width:1px;stroke-linecap:butt;stroke-linejoin:miter;stroke-opacity:1"
       d="m 563.23854,254.80427 c -3.15801,4.76252 -7.89677,12.58909 -10.2207,19.83789 9.99591,0.65879 7.91666,1.03452 12.02343,0.5293 4.81051,-0.5918 7.22452,-2.51551 10.0879,-3.53321 5.72675,-2.03541 -1.62382,-8.35161 -2.17579,-11.93945 -0.17328,-1.12633 -5.08588,-3.00652 -9.71484,-4.89453 z" />
    <path
       style="fill:#dcac53;fill-opacity:1;stroke:none;stroke-width:1.22731px;stroke-linecap:butt;stroke-linejoin:miter;stroke-opacity:1"
       d="m 480.70689,225.46585 c 0,0 -28.53976,10.16568 -39.95246,-13.749 -11.41273,-23.91467 -14.10252,-24.24302 -14.10252,-24.24302 0,0 31.39372,-11.18222 54.05498,37.99202 z"
       id="path2130" />
    <path
       style="fill:#dcac53;fill-opacity:1;stroke:none;stroke-width:1.28736px;stroke-linecap:butt;stroke-linejoin:miter;stroke-opacity:1"
       d="m 476.44326,214.73556 -6.75061,-38.01664 3.55296,-1.42117 8.52708,40.85898 z"
       id="path2347" />
    <circle
       style="fill:#b38b42;fill-opacity:1;stroke-width:5.14944"
       id="path2371"
       cx="470.75854"
       cy="173.87656"
       r="6.4367952" />
    <path
       style="fill:#dcac53;fill-opacity:1;stroke:none;stroke-width:1.32222px;stroke-linecap:butt;stroke-linejoin:miter;stroke-opacity:1"
       d="m 482.63444,216.20737 6.10876,-40.2179 3.82262,-0.18516 -5.36426,43.66539 z"
       id="path2347-0" />
    <circle
       style="fill:#b38b42;fill-opacity:1;stroke-width:5.14944"
       id="path2371-2"
       cx="520.03259"
       cy="1.6883458"
       r="6.4367952"
       transform="rotate(19.17215)" />
    <path
       style="fill:none;stroke:#000000;stroke-width:4;stroke-linecap:butt;stroke-linejoin:miter;stroke-miterlimit:4;stroke-dasharray:none;stroke-opacity:1"
       d="m 503.97569,236.53238 c 0,0 -1.10395,15.45533 15.45533,8.83162"
       id="path8995" />
    <path
       id="path1501-9-83"
       style="display:inline;fill:#c69843;fill-opacity:1;stroke-width:3.27398"
       d="m 479.38335,602.03028 c -6.56696,8.7568 -14.02548,22.17877 -21.27393,42.81157 -14.95718,42.57584 7.10292,44.43663 19.10873,42.69398 2.40189,-33.14949 2.75602,-58.60832 2.75602,-58.60832 z" />
    <path
       id="path1501-9-2"
       style="display:inline;fill:#c69843;fill-opacity:1;stroke-width:4"
       d="m 433.17213,609.65583 c -4.88252,8.1128 -10.47997,15.63571 -16.98046,22.01953 -7.13529,7.00721 -15.31321,12.68143 -24.6836,16.38477 -7.61183,3.00832 -16.02399,4.68593 -25.28906,4.75 2.50032,19.26224 5.25166,47.27995 2.52344,62.28515 -4.4158,24.28694 68.4438,18.76766 57.40429,-20.9746 -11.03952,-39.74226 17.37377,-37.82245 14.35157,-72.86133 -0.52758,-6.1166 -3.23117,-9.75411 -7.32618,-11.60352 z" />
    <path
       id="path1501-9-3"
       style="display:inline;fill:#c69843;fill-opacity:1;stroke-width:3.53715"
       d="m 268.87526,648.61788 c -7.90436,0.0708 -15.3066,0.30484 -22.31836,0.69644 50.20586,50.47197 19.3544,73.97458 74.71484,57.32464 39.29093,-11.81694 32.55259,-39.39916 24.38867,-55.63395 -29.4133,-1.57944 -55.07566,-2.58145 -76.78515,-2.38713 z" />
    <path
       id="path1501-9-7"
       style="display:inline;fill:#c69843;fill-opacity:1;stroke-width:4"
       d="m 184.1832,666.83945 c -0.79247,0.37778 -1.62098,0.69609 -2.39923,1.09824 -16.46979,8.51033 -29.26982,27.86524 -38.43752,46.79001 18.14712,24.05053 31.37453,64.26667 64.72967,57.93603 23.82552,-4.52196 37.50305,-52.59594 40.34809,-69.91339 2.53632,-15.43836 -39.48244,-29.18758 -64.24101,-35.91089 z"
       sodipodi:nodetypes="cccssc" />
    <path
       id="path1916-02"
       style="display:inline;fill:#c69843;fill-opacity:1;stroke:none;stroke-width:1px;stroke-linecap:butt;stroke-linejoin:miter;stroke-opacity:1"
       d="m 456.88307,505.60505 c -2.84803,23.38785 -5.66109,43.80541 -8.23828,61.80664 18.88819,-7.06162 28.27092,-20.48195 22.76367,-41.0918 -2.93799,-10.99486 -8.72861,-17.20544 -14.52539,-20.71484 z" />
  </g>
  <g
     inkscape:groupmode="layer"
     id="layer3"
     inkscape:label="giraffe-baby"
     sodipodi:insensitive="true">
    <path
       style="display:inline;fill:#c18f32;fill-opacity:1;stroke:none;stroke-width:0.906695px;stroke-linecap:butt;stroke-linejoin:miter;stroke-opacity:1"
       d="m 560.18428,413.27953 c 0,0 21.77107,2.91293 26.57208,-16.46315 4.80095,-19.37609 6.6733,-20.04595 6.6733,-20.04595 0,0 -23.9482,-3.20423 -33.24538,36.5091 z"
       id="path2130-9-1" />
    <path
       style="display:inline;fill:#9c762e;fill-opacity:1;stroke:none;stroke-width:0.729668px;stroke-linecap:butt;stroke-linejoin:miter;stroke-opacity:1"
       d="m 602.67789,732.35799 -22.3529,-16.94681 -9.60191,-13.43359 -4.98705,0.0508 0.59689,-9.50408 -6.02337,-4.10216 3.09544,-12.32688 -11.35758,-4.50323 7.20721,-9.31116 -6.31184,-4.94494 4.94338,-8.05208 -6.81988,-12.61621 9.28983,-6.6001 -7.81767,-5.97047 6.63536,-13.79412 -5.44153,-5.21402 5.11443,-6.42747 -5.8473,-5.27492 4.53257,-5.3156 -4.68856,-4.70124 4.66996,-17.28707 -3.75958,-5.36126 5.93103,-9.10303 -4.74222,-7.10771 6.69397,-14.18505 -5.5589,-4.43217 6.16585,-10.66672 -6.25812,-2.53845 4.00935,-4.59467 -2.54214,-5.17849 5.69627,-7.53931 -3.93563,-4.18848 4.4739,-4.92467 -2.88428,-8.42773 4.07308,-7.78299 -2.1314,-7.915 6.33185,-6.24468 -1.26107,-8.18405 4.93339,-2.45727 -0.15103,-12.81424 5.45655,-3.17819 -5.88592,-16.07365 -11.1042,15.9214 -15.56238,109.19024 -8.09692,117.50628 2.56434,57.54735 z"
       id="path10482-5" />
    <path
       id="rect936-3-6"
       style="display:inline;fill:#cb9c46;fill-opacity:1"
       d="m 542.16406,606.66406 -22.83984,90.38477 c 0,0 -11.16627,56.5621 -8.18164,102.95117 h 238.81054 c -4.60713,-22.22061 -15.10157,-34.65562 -20.37304,-39.96289 -21.36099,-21.50613 -59.94965,-27.30014 -128.9336,-32.50977 -8.62305,-0.6512 -16.00347,-3.02652 -22.31836,-6.6875 -6.31485,-3.66099 -11.56168,-8.60697 -15.91992,-14.39453 -4.35825,-5.78757 -7.82697,-12.41632 -10.58008,-19.44726 -2.75311,-7.03095 -6.12428,-14.98365 -6.76562,-22.49805 -0.84202,-9.86578 -1.98662,-14.09864 -2.58398,-20.9668 -0.59734,-6.86814 -0.83211,-13.25484 -0.87891,-18.71679 -0.0467,-5.46196 0.0957,-9.9993 0.24805,-13.17188 0.15243,-3.17256 0.3164,-4.98047 0.3164,-4.98047 z" />
    <path
       id="rect936-3-6-9"
       style="display:inline;fill:#ba892f;fill-opacity:1"
       d="M 511.94922,752.75586 C 510.73886,767.99908 510.1484,784.5478 511.14258,800 h 27.79883 c -6.63074,-8.85378 -10.46329,-18.14983 -10.35743,-24.58008 0.19237,-11.6878 -0.21936,-19.67092 -16.63476,-22.66406 z" />
    <path
       id="rect936-3-6-8"
       style="display:inline;fill:#ba892f;fill-opacity:1"
       d="M 604.60938,778.47656 C 600.61391,778.5051 596.6325,787.7 593.0918,800 h 36.97656 c -10.37287,-5.54793 -15.78397,-18.96008 -23.26367,-21.20312 -0.7116,-0.21342 -1.4401,-0.32532 -2.19531,-0.32032 z" />
    <path
       id="rect936-3-6-7"
       style="display:inline;fill:#ba892f;fill-opacity:1"
       d="m 724.8418,756.5918 c -18.46071,2.15387 -50.0434,7.48516 -49.88672,18.81836 0.0751,5.43187 2.05968,14.71411 5.19726,24.58984 h 63.75782 a 275.29169,275.29169 0 0 0 4.95507,-4.62891 c -0.20159,-0.77805 -0.41368,-1.53569 -0.6289,-2.28711 -2.42991,-7.39771 -5.52975,-14.86545 -9.4668,-21.36132 -2.43619,-3.84792 -4.84511,-6.94679 -6.87891,-9.22266 -1.70286,-1.8209 -3.51313,-3.46363 -5.44921,-4.86328 -0.51422,-0.3718 -1.07243,-0.68902 -1.59961,-1.04492 z" />
    <path
       style="display:inline;fill:#cb9c46;fill-opacity:1;stroke:none;stroke-width:0.724452px;stroke-linecap:butt;stroke-linejoin:miter;stroke-opacity:1"
       d="m 519.53914,695.61503 c 0.83717,-54.0587 17.50616,-218.96172 14.85975,-244.4294 -0.66161,-6.36692 -0.20186,-14.21874 -6.26825,-12.76958 -3.58983,0.85758 -15.13291,-1.50402 -21.33651,-2.12241 -12.68357,-1.26433 -9.30086,-0.32297 -12.68357,-1.26433 -3.38271,-0.94138 -4.9044,-2.5795 -6.84634,-3.61658 -3.88383,-2.07414 2.06182,-5.80841 2.84317,-8.31944 0.39062,-1.25553 9.66514,-2.57774 12.75287,-4.02274 22.25383,-10.41442 14.18202,-5.78715 18.57278,-9.30371 3.84043,-3.07571 3.1508,-2.49796 5.08058,-4.9542 3.44154,-4.38053 10.6656,-9.54884 16.05646,-10.02769 5.39086,-0.47885 14.57147,2.66922 19.13984,3.6448 4.56843,0.97559 6.83695,8.61742 9.75382,11.55155 2.91696,2.93413 0.21352,7.90232 0.64995,13.29909 0.43649,5.39679 -3.32257,8.90785 -6.19567,17.27137 -22.98421,66.90829 -19.80436,255.8179 -19.80436,255.8179 z"
       id="path1916-99"
       sodipodi:nodetypes="csssssssssssssscc" />
    <path
       id="path1916-5-1"
       style="display:inline;fill:#ba892f;fill-opacity:1;stroke:none;stroke-width:0.724452px;stroke-linecap:butt;stroke-linejoin:miter;stroke-opacity:1"
       d="m 541.40016,443.2872 c 2.23566,0.30204 3.62051,2.27681 3.03884,7.28255 -1.13707,9.78459 -6.03756,15.14665 -9.95291,17.92892 0.25503,-7.82625 0.26837,-13.89765 -0.0864,-17.31279 -0.18818,-1.8105 -0.29672,-3.72498 -0.47933,-5.5276 2.63324,-1.5016 5.41736,-2.64976 7.4799,-2.37108 z" />
    <path
       id="path1916-6-4"
       style="display:inline;fill:#ba892f;fill-opacity:1;stroke:none;stroke-width:0.724452px;stroke-linecap:butt;stroke-linejoin:miter;stroke-opacity:1"
       d="m 561.27632,457.23392 c -2.55904,11.03068 -4.66329,23.87512 -6.44623,37.66818 -4.01163,-0.93838 -8.51491,-3.17747 -11.18115,-8.36186 -4.57395,-8.89371 7.45875,-16.78084 17.62738,-29.30632 z" />
    <path
       id="path1916-08-6"
       style="display:inline;fill:#ba892f;fill-opacity:1;stroke:none;stroke-width:0.724452px;stroke-linecap:butt;stroke-linejoin:miter;stroke-opacity:1"
       d="m 533.51731,488.78079 5.81887,7.62552 c 8.16948,10.70701 -1.61459,15.24135 -7.43221,16.9023 0.59837,-8.61756 1.18755,-17.17396 1.61334,-24.52782 z" />
    <path
       id="path1916-4-6"
       style="display:inline;fill:#ba892f;fill-opacity:1;stroke:none;stroke-width:0.724452px;stroke-linecap:butt;stroke-linejoin:miter;stroke-opacity:1"
       d="m 528.4261,560.68256 9.04263,15.50672 c 11.92521,20.45134 -5.99614,29.53619 -12.68065,32.10503 1.1858,-15.71987 2.41561,-31.72269 3.63802,-47.61175 z" />
    <path
       id="path1916-9-4"
       style="display:inline;fill:#ba892f;fill-opacity:1;stroke:none;stroke-width:0.724452px;stroke-linecap:butt;stroke-linejoin:miter;stroke-opacity:1"
       d="m 552.74973,512.70515 c -1.66252,16.11931 -2.91708,33.03841 -3.87219,49.92452 -3.95994,-1.43098 -7.52408,-5.29553 -8.8951,-13.96363 -3.17189,-20.05449 6.07498,-33.82311 12.76729,-35.96089 z" />
    <path
       id="path1916-7-6"
       style="display:inline;fill:#9c762e;fill-opacity:1;stroke:none;stroke-width:0.724452px;stroke-linecap:butt;stroke-linejoin:miter;stroke-opacity:1"
       d="m 497.59355,420.63133 c 1.75024,3.75163 4.30337,9.86844 5.18871,15.31161 -7.23215,-0.60313 -5.78298,-0.11031 -8.67084,-0.91397 -3.3827,-0.94137 -4.90526,-2.57919 -6.8472,-3.61627 -3.88383,-2.07414 2.06157,-5.80865 2.84293,-8.3197 0.24529,-0.78829 3.96701,-1.60692 7.4864,-2.46167 z" />
    <path
       style="display:inline;fill:#cb9c46;fill-opacity:1;stroke:none;stroke-width:0.889129px;stroke-linecap:butt;stroke-linejoin:miter;stroke-opacity:1"
       d="m 559.87659,408.48919 c 0,0 19.35323,10.35251 30.10167,-5.55305 10.74844,-15.90556 12.71079,-15.85149 12.71079,-15.85149 0,0 -21.28848,-11.38772 -42.81246,21.40454 z"
       id="path2130-3" />
    <path
       style="display:inline;fill:#cb9c46;fill-opacity:1;stroke:none;stroke-width:0.932627px;stroke-linecap:butt;stroke-linejoin:miter;stroke-opacity:1"
       d="m 564.08522,401.26033 8.92513,-26.50996 -2.39253,-1.40028 -10.50356,28.3552 z"
       id="path2347-2" />
    <circle
       style="display:inline;fill:#b38b42;fill-opacity:1;stroke-width:3.73051"
       id="path2371-4"
       cx="-621.52435"
       cy="283.46786"
       r="4.6631479"
       transform="matrix(-0.98891804,-0.14846249,-0.14846249,0.98891804,0,0)" />
    <path
       style="display:inline;fill:#cb9c46;fill-opacity:1;stroke:none;stroke-width:0.957883px;stroke-linecap:butt;stroke-linejoin:miter;stroke-opacity:1"
       d="m 559.49147,401.64891 -0.0509,-29.47009 -2.71868,-0.54378 -0.85336,31.85984 z"
       id="path2347-0-4" />
    <circle
       style="display:inline;fill:#b38b42;fill-opacity:1;stroke-width:3.73051"
       id="path2371-2-5"
       cx="-480.71548"
       cy="466.10406"
       r="4.6631479"
       transform="matrix(-0.98282501,0.18453998,0.18453998,0.98282501,0,0)" />
    <path
       style="display:inline;fill:none;stroke:#000000;stroke-width:2.89781;stroke-linecap:butt;stroke-linejoin:miter;stroke-miterlimit:4;stroke-dasharray:none;stroke-opacity:1"
       d="m 542.01603,413.91486 c 0,0 -0.87135,11.19131 -12.02241,4.66491"
       id="path8995-1" />
    <path
       id="path1501-9-83-1"
       style="display:inline;fill:#ba892f;fill-opacity:1;stroke-width:2.37184"
       d="m 520.32387,678.41115 c 3.76285,6.97988 7.6627,17.39788 10.63657,32.95931 6.13649,32.11104 -9.86802,31.0715 -18.28189,28.53173 1.84464,-24.00739 4.32908,-42.28479 4.32908,-42.28479 z" />
    <path
       id="path1501-9-2-4"
       style="display:inline;fill:#ba892f;fill-opacity:1;stroke-width:2.89781"
       d="m 552.6105,688.84446 c 2.62538,6.33734 5.82637,12.32896 9.79687,17.60163 4.35824,5.78756 9.6068,10.73226 15.92166,14.39325 5.12979,2.97392 10.97598,5.08055 17.60682,6.12296 -3.863,13.53099 -8.84757,33.30761 -8.5069,44.35111 0.55142,17.87467 -51.05328,6.0842 -38.86981,-21.20073 12.18338,-27.28495 -8.37905,-28.96551 -2.44531,-53.74314 1.03584,-4.32533 3.364,-6.64054 6.49667,-7.52508 z" />
    <path
       id="path1501-9-3-5"
       style="display:inline;fill:#ba892f;fill-opacity:1;stroke-width:2.5625"
       d="m 666.12603,734.42856 c 5.65527,0.9009 10.93323,1.86468 15.91457,2.89938 -41.39716,30.75946 -21.82219,50.91549 -59.69294,33.03285 -26.87804,-12.69184 -19.08391,-31.72765 -11.48899,-42.48058 21.24226,2.03198 39.73513,4.0742 55.26736,6.54835 z" />
    <path
       id="path1916-02-6"
       style="display:inline;fill:#ba892f;fill-opacity:1;stroke:none;stroke-width:0.724452px;stroke-linecap:butt;stroke-linejoin:miter;stroke-opacity:1"
       d="m 546.81445,611.74983 c -0.47501,17.06194 -0.6557,31.99211 -0.74544,45.1658 -12.77243,-7.09061 -18.05102,-17.7144 -11.88886,-31.88745 3.2874,-7.56099 8.10389,-11.38759 12.6343,-13.27835 z" />
  </g>
</svg>
