<?xml version="1.0" encoding="UTF-8" standalone="no"?>
<!-- Created with Inkscape (http://www.inkscape.org/) -->

<svg
   width="800px"
   height="800px"
   viewBox="0 0 800 800"
   version="1.1"
   id="SVGRoot"
   sodipodi:docname="penguins-rachana.svg"
   inkscape:version="1.1.2 (b8e25be833, 2022-02-05)"
   xmlns:inkscape="http://www.inkscape.org/namespaces/inkscape"
   xmlns:sodipodi="http://sodipodi.sourceforge.net/DTD/sodipodi-0.dtd"
   xmlns="http://www.w3.org/2000/svg"
   xmlns:svg="http://www.w3.org/2000/svg">
  <sodipodi:namedview
     id="namedview1401"
     pagecolor="#ffffff"
     bordercolor="#eeeeee"
     borderopacity="1"
     inkscape:pageshadow="0"
     inkscape:pageopacity="0"
     inkscape:pagecheckerboard="0"
     inkscape:document-units="px"
     showgrid="false"
     inkscape:zoom="0.64052331"
     inkscape:cx="163.14785"
     inkscape:cy="341.12732"
     inkscape:window-width="1920"
     inkscape:window-height="1111"
     inkscape:window-x="-9"
     inkscape:window-y="-9"
     inkscape:window-maximized="1"
     inkscape:current-layer="layer1"
     showguides="true"
     inkscape:guide-bbox="true" />
  <defs
     id="defs1396" />
  <g
     inkscape:groupmode="layer"
     id="layer10"
     inkscape:label="bg"
     style="display:inline"
     sodipodi:insensitive="true">
    <rect
       style="fill:#5a6d77;fill-opacity:1"
       id="rect956"
       width="800"
       height="800"
       x="-2.9999999e-05"
       y="1.1444092e-05" />
  </g>
  <g
     inkscape:groupmode="layer"
     id="layer4"
     inkscape:label="sky"
     style="display:inline"
     sodipodi:insensitive="true">
    <path
       style="fill:#677a85;fill-opacity:1;stroke:none;stroke-width:1px;stroke-linecap:butt;stroke-linejoin:miter;stroke-opacity:1"
       d="m 686.57962,513.58673 c 26.1094,-93.64369 32.0146,-282.61163 -62.0327,-330.05288 -94.0473,-47.44125 -99.1442,114.7823 -346.42934,92.70327 -247.285182,-22.07903 -107.28382,240.61482 2.2079,334.49736 89.58904,76.81717 162.56664,91.30773 231.21614,80.62426 68.6496,-10.68346 148.9286,-84.12832 175.038,-177.77201 z"
       id="path2779"
       sodipodi:nodetypes="zssssz" />
  </g>
  <g
     inkscape:groupmode="layer"
     id="layer5"
     inkscape:label="tree1"
     style="display:inline"
     sodipodi:insensitive="true">
    <path
       style="fill:none;stroke:none;stroke-width:1px;stroke-linecap:butt;stroke-linejoin:miter;stroke-opacity:1"
       d="m 716.60157,372.35179 c -6.6352,-33.5663 -30.44386,-49.95915 -30.44386,-49.95915 13.6607,5.07398 16.78315,9.75765 16.78315,9.75765 -1.95153,-13.2704 -23.80866,-38.64028 -23.80866,-38.64028 36.68875,28.10202 39.03059,62.44894 39.03059,62.44894 z"
       id="path12101" />
    <path
       id="rect956-8"
       style="fill:#d8d8d8;fill-opacity:1"
       d="m 718.15625,0 c -5.38834,255.73798 -10.57551,569.8607 -9.77148,800 h 43.30664 a 380,1180.7254 0 0 0 3.80468,-27.33203 C 754.3685,585.69693 753.39438,274.17333 755.83008,0 Z" />
    <path
       id="rect956-8-77"
       style="display:inline;fill:#b7b7b7;fill-opacity:1;stroke-width:1.40328"
       d="m 717.55273,30.949219 c -0.0862,8.226762 -0.16601,17.097138 -0.25195,25.376506 h 6.0957 c 3.56979,0 6.44336,-5.658647 6.44336,-12.688254 0,-7.029607 -2.87357,-12.688252 -6.44336,-12.688252 z" />
    <path
       id="rect956-8-1"
       style="display:inline;fill:#b7b7b7;fill-opacity:1;stroke-width:1.35916"
       d="m 742.80273,289.21187 c -3.56978,0 -6.44335,5.30838 -6.44335,11.90286 -10e-6,6.59447 2.87357,11.90285 6.44335,11.90285 h 11.65821 c 0.005,-7.9617 0.009,-15.82485 0.0156,-23.80571 z" />
    <path
       id="rect956-8-5"
       style="fill:#b7b7b7;fill-opacity:1;stroke-width:1.37052"
       d="m 738.26758,526.9082 c -3.56978,0 -6.44336,5.39755 -6.44336,12.10279 0,6.70525 2.87358,12.1028 6.44336,12.1028 h 14.43359 c 0.65442,0 1.28468,-0.18333 1.87891,-0.52094 -0.0102,-7.62608 -0.0178,-15.4871 -0.0273,-23.17838 -0.58629,-0.32781 -1.20709,-0.50627 -1.85156,-0.50627 z" />
    <path
       id="rect956-8-7"
       style="fill:#b7b7b7;fill-opacity:1;stroke-width:1.40328"
       d="m 740.02148,219.93368 c -3.56978,0 -6.44336,5.65863 -6.44336,12.68821 0,7.02958 2.87358,12.68821 6.44336,12.68821 h 14.43555 c 0.0354,0 0.0702,-0.002 0.10547,-0.004 0.0123,-8.57355 0.004,-16.78931 0.0176,-25.36872 -0.0411,-0.002 -0.0817,-0.004 -0.12305,-0.004 z" />
    <path
       id="rect956-8-43"
       style="fill:#b7b7b7;fill-opacity:1;stroke-width:1.29652"
       d="m 739.82812,405.53113 c -3.56978,0 -6.44335,4.83041 -6.44335,10.83112 0,6.0007 2.87357,10.83111 6.44335,10.83111 h 14.4336 c 0.0274,0 0.0547,-0.003 0.082,-0.003 -0.003,-7.37536 -0.009,-14.24129 -0.0117,-21.65567 -0.0234,-4.1e-4 -0.0468,-0.003 -0.0703,-0.003 z" />
    <path
       id="rect956-8-8"
       style="fill:#b7b7b7;fill-opacity:1;stroke-width:1.42439"
       d="m 711.73242,353.28059 c -0.063,8.7397 -0.14147,17.41116 -0.20312,26.14563 h 11.72265 c 3.56978,0 6.44532,-5.83016 6.44532,-13.07282 0,-7.24265 -2.87554,-13.07281 -6.44532,-13.07281 z" />
    <path
       id="rect956-8-4"
       style="fill:#b7b7b7;fill-opacity:1;stroke-width:1.52383"
       d="m 719.5332,82.679224 c -1.22633,0 -2.36606,0.80234 -3.33984,2.172399 -0.0712,8.452673 -0.14202,16.797527 -0.21289,25.284087 1.01759,1.55979 2.23704,2.47171 3.55273,2.47171 h 14.4336 c 3.56978,0 6.44336,-6.67261 6.44336,-14.961834 0,-8.289225 -2.87358,-14.966362 -6.44336,-14.966362 z" />
    <rect
       style="fill:#b7b7b7;fill-opacity:1;stroke:none;stroke-width:1.38268"
       id="rect18015-29-8-9"
       width="27.323999"
       height="26.860069"
       x="463.0137"
       y="-754.71179"
       ry="10.664208"
       transform="matrix(-0.01569581,0.99987681,-0.99999347,-0.00361347,0,0)" />
  </g>
  <g
     inkscape:groupmode="layer"
     id="layer7"
     inkscape:label="tree2"
     style="display:inline"
     sodipodi:insensitive="true">
    <path
       id="rect956-6"
       style="fill:#d8d8d8;fill-opacity:1"
       d="m 34.039062,0 c -0.328779,277.96851 -0.127344,566.9398 0.173829,800 H 78.5625 C 77.011065,565.51539 75.557446,345.06582 74.458984,180.96289 74.081893,124.62789 73.509958,61.916603 73.035156,0 Z" />
    <path
       id="rect956-6-05"
       style="display:inline;fill:#b7b7b7;fill-opacity:1"
       d="m 68.335938,698.51953 c -4.030177,0 -7.275391,3.24326 -7.275391,7.27344 v 10.30273 c 0,4.03018 3.245214,7.27539 7.275391,7.27539 h 9.71875 c -0.06115,-9.24798 -0.103345,-15.66844 -0.164063,-24.85156 z" />
    <path
       id="rect956-6-44"
       style="display:inline;fill:#b7b7b7;fill-opacity:1"
       d="m 62.128906,603.58008 c -4.030176,0 -7.27539,3.24326 -7.27539,7.27344 v 10.30273 c 0,4.03018 3.245214,7.27539 7.27539,7.27539 h 15.296875 c -0.05931,-8.97071 -0.107264,-15.96663 -0.166015,-24.85156 z" />
    <path
       id="rect956-6-7"
       style="display:inline;fill:#b7b7b7;fill-opacity:1"
       d="m 33.949219,486.56055 c 0.0048,8.67829 0.01613,16.23558 0.02148,24.85156 H 47.37109 c 4.030176,0 7.27539,-3.24522 7.27539,-7.27539 v -10.30078 c 0,-4.03018 -3.245214,-7.27539 -7.27539,-7.27539 z" />
    <path
       id="rect956-6-5"
       style="display:inline;fill:#b7b7b7;fill-opacity:1"
       d="m 33.917969,337.95117 c 0.0012,10.73016 -0.01395,21.74638 -0.01172,32.42383 h 14.560547 c 5.258224,0 9.490234,-4.23201 9.490234,-9.49023 v -13.44141 c 0,-5.25822 -4.23201,-9.49219 -9.490234,-9.49219 z" />
    <path
       id="rect956-6-0"
       style="display:inline;fill:#b7b7b7;fill-opacity:1"
       d="m 58.609375,209.73828 c -4.030176,0 -7.275391,3.24522 -7.275391,7.27539 v 10.30078 c 0,4.03018 3.245215,7.27539 7.275391,7.27539 h 16.205078 c -0.04649,-6.96717 -0.118661,-18.05693 -0.164062,-24.85156 z" />
    <path
       id="rect956-6-4"
       style="display:inline;fill:#b7b7b7;fill-opacity:1"
       d="m 33.982422,156.47852 c -0.0043,8.33895 -0.0043,16.51715 -0.0078,24.85156 h 7.876953 c 4.030177,0 7.273438,-3.24522 7.273438,-7.27539 v -10.30078 c 0,-4.03018 -3.243261,-7.27539 -7.273438,-7.27539 z" />
    <path
       id="rect956-6-6"
       style="display:inline;fill:#b7b7b7;fill-opacity:1"
       d="m 34.013672,72.671875 c -0.0083,9.682327 -0.0046,19.200618 -0.01172,28.892575 h 12.738281 c 4.685512,0 8.457032,-3.77347 8.457032,-8.458981 V 81.128906 c 0,-4.685511 -3.77152,-8.457031 -8.457032,-8.457031 z" />
    <rect
       style="display:inline;fill:#b7b7b7;fill-opacity:1;stroke:none;stroke-width:1.38268"
       id="rect18015-29-8-9-7"
       width="27.323999"
       height="26.860069"
       x="418.91412"
       y="-76.041367"
       ry="10.664208"
       transform="matrix(-0.01569581,0.99987681,-0.99999347,-0.00361347,0,0)" />
  </g>
  <g
     inkscape:groupmode="layer"
     id="layer11"
     inkscape:label="tree3"
     style="display:inline"
     sodipodi:insensitive="true">
    <path
       style="fill:none;stroke:none;stroke-width:1px;stroke-linecap:butt;stroke-linejoin:miter;stroke-opacity:1"
       d="m 142.07133,300.53552 66.352,-111.62748 6.2449,4.68367 -72.5969,130.36216 z"
       id="path10838" />
    <path
       id="rect956-5"
       style="fill:#d8d8d8;fill-opacity:1"
       d="m 111.66992,0 c 9.70991,209.94457 -2.16012,667.46013 -5.91015,800 h 52.49218 C 154.47607,526.09753 150.31312,156.40579 148.58789,0 Z" />
    <path
       id="rect956-5-2"
       style="display:inline;fill:#b7b7b7;fill-opacity:1"
       d="m 115.33008,209.85547 c 0.0108,9.98128 -0.0639,20.45546 -0.082,30.625 h 8.15625 c 5.02385,0 9.06836,-4.04451 9.06836,-9.06836 v -12.48828 c 0,-5.02385 -4.04451,-9.06836 -9.06836,-9.06836 z" />
    <path
       id="rect956-5-0"
       style="display:inline;fill:#b7b7b7;fill-opacity:1;stroke-width:1.85591"
       d="m 112.2974,524.55664 c -0.12614,8.89055 -0.22181,18.43432 -0.35013,27.24004 h 9.23089 c 5.81778,0 10.50412,-6.07739 10.50412,-13.62208 0,-7.54468 -4.68634,-13.61796 -10.50412,-13.61796 z" />
    <path
       id="rect956-5-1"
       style="display:inline;fill:#b7b7b7;fill-opacity:1;stroke-width:1.50474"
       d="m 138.50391,386.83116 c -3.56978,0 -6.44336,6.50647 -6.44336,14.58931 0,8.08283 2.87358,14.5893 6.44336,14.5893 h 14.43554 c 0.15802,0 0.31365,-0.0147 0.46875,-0.0398 -0.0519,-9.80259 -0.11058,-19.35658 -0.16211,-29.12111 -0.10181,-0.0107 -0.20361,-0.0177 -0.30664,-0.0177 z" />
    <path
       id="rect956-5-9"
       style="display:inline;fill:#b7b7b7;fill-opacity:1;stroke-width:1.4773"
       d="m 120.78657,447.79297 c -2.50312,0.0144 -4.83662,0.32651 -6.85415,0.85937 -0.28217,8.56166 -0.61988,16.72581 -0.9207,25.19922 2.38014,0.80472 5.32616,1.27823 8.52506,1.25977 7.79013,-0.045 13.98544,-2.95394 13.88732,-6.52344 l -0.39642,-14.43359 c -0.0981,-3.5695 -6.45098,-6.40629 -14.24111,-6.36133 z" />
    <path
       id="rect956-5-8"
       style="display:inline;fill:#b7b7b7;fill-opacity:1;stroke-width:1.45384"
       d="m 111.38672,640.47266 c -0.54805,0 -1.08053,0.14312 -1.58789,0.41282 -0.10067,9.36973 -0.18292,17.0917 -0.28321,26.24317 0.59144,0.37602 1.22019,0.5821 1.8711,0.5821 h 14.43359 c 3.56978,0 6.44336,-6.07376 6.44336,-13.61904 0,-7.54531 -2.87358,-13.61905 -6.44336,-13.61905 z" />
    <path
       id="rect956-5-3"
       style="display:inline;fill:#b7b7b7;fill-opacity:1;stroke-width:1.48301"
       d="m 115.06836,305.97461 c -0.0301,9.49069 -0.0695,18.82512 -0.10352,28.34204 h 7.0625 c 3.56978,0 6.44336,-6.31992 6.44336,-14.17102 0,-7.85109 -2.87358,-14.17102 -6.44336,-14.17102 z" />
    <path
       id="rect956-5-56"
       style="display:inline;fill:#b7b7b7;fill-opacity:1;stroke-width:1.39367"
       d="m 138.49153,132.32888 c -3.56976,0.0139 -6.42147,5.60658 -6.39434,12.5402 0.0271,6.93362 2.9225,12.50376 6.49226,12.4898 l 11.77334,-0.0461 c -0.0751,-7.73855 -0.1734,-17.49895 -0.24635,-25.02942 z" />
    <path
       id="rect956-5-5"
       style="display:inline;fill:#b7b7b7;fill-opacity:1;stroke-width:1.42408"
       d="m 113.87109,68.625 c 0.0988,8.770254 0.21665,17.142292 0.30469,26.134139 h 12.47656 c 3.56978,0 6.44336,-5.827588 6.44336,-13.06707 0,-7.239481 -2.87358,-13.067069 -6.44336,-13.067069 z" />
  </g>
  <g
     inkscape:groupmode="layer"
     id="layer17"
     inkscape:label="candycane1"
     style="display:inline"
     sodipodi:insensitive="true">
    <path
       style="fill:#ffffff;fill-opacity:1;stroke:none;stroke-width:0.982465px;stroke-linecap:butt;stroke-linejoin:miter;stroke-opacity:1"
       d="m 186.39679,793.86556 c 0,0 -13.90277,-293.35329 -30.44098,-442.43786 -1.56874,-14.14198 -7.68067,-25.68182 -15.98667,-33.50471 -8.30604,-7.82289 -15.27327,-11.12399 -28.19559,-12.73322 -10.28759,-1.28112 -32.331172,2.51946 -40.018567,14.02353 -7.687404,11.50407 -11.007687,19.5789 -11.33921,44.09083 0,0 2.804969,18.99869 9.19427,25.61065 6.389322,6.61196 23.962747,3.18909 19.241047,-12.03807 -6.090441,-19.64135 -1.07956,-28.38295 -0.59174,-31.00494 3.42539,-18.41052 42.91735,-23.48877 46.15812,20.82569 3.87459,52.98148 26.719,423.12084 28.12436,430.09848 1.40536,6.97765 23.85496,-2.93038 23.85496,-2.93038 z"
       id="path43315-5"
       sodipodi:nodetypes="csssscsssssc" />
    <path
       id="path43315-5-0"
       style="display:inline;fill:#b2291c;fill-opacity:1;stroke:none;stroke-width:1.02765px;stroke-linecap:butt;stroke-linejoin:miter;stroke-opacity:1"
       d="m 60.415773,363.30413 c 0.746378,4.61362 3.494556,19.58057 8.988933,25.63678 0.305374,0.3366 0.657317,0.62557 1.009547,0.91378 3.89e-4,3.3e-4 0.0016,-3.1e-4 0.002,0 1.505221,1.17333 3.537234,1.97604 5.80193,2.3852 6.52e-4,9e-5 0.0013,-9e-5 0.002,0 1.014822,0.13408 2.050273,0.1523 3.08011,0.0549 1.050043,-0.0975 2.08909,-0.31411 3.08209,-0.65532 0.0841,-0.0293 0.167995,-0.0586 0.251397,-0.0895 0.390212,-0.14347 0.773882,-0.30613 1.146133,-0.48844 0.297966,-0.1474 0.589177,-0.30573 0.872958,-0.47825 0.237496,-0.14314 0.468727,-0.29714 0.69481,-0.45791 0.344126,-0.24678 0.678158,-0.50775 0.991736,-0.79575 0.106773,-0.0973 0.21384,-0.19497 0.316721,-0.29713 0.38268,-0.38274 0.738826,-0.79598 1.06101,-1.2455 0.05361,-0.0743 0.104634,-0.15178 0.156384,-0.22794 0.332836,-0.49283 0.632803,-1.01944 0.882856,-1.58945 0.02189,-0.0496 0.04013,-0.10243 0.06132,-0.15264 0.248228,-0.5911 0.452439,-1.21976 0.599793,-1.8927 0.0081,-0.035 0.01632,-0.0686 0.02372,-0.10378 0.144952,-0.69256 0.230329,-1.4312 0.255353,-2.21018 0.002,-0.0603 0.003,-0.12026 0.0041,-0.18113 0.0151,-0.7845 -0.03111,-1.61139 -0.150445,-2.48288 -0.0071,-0.055 -0.01763,-0.11152 -0.02574,-0.16689 -0.131655,-0.89996 -0.330657,-1.84047 -0.619577,-2.83291 -0.124773,-0.4286 -0.221958,-0.82451 -0.292974,-1.19057 -8.21e-4,-0.004 -10e-4,-0.008 -0.002,-0.0122 -0.924075,-3.3471 -1.53301,-6.3385 -1.953767,-9.09915 z" />
    <path
       id="path43315-5-76"
       style="display:inline;fill:#e44637;fill-opacity:1;stroke:none;stroke-width:1px;stroke-linecap:butt;stroke-linejoin:miter;stroke-opacity:1"
       d="m 75.079478,315.81168 c -1.278157,1.1973 -2.408982,2.49705 -3.324219,3.91602 -5.723503,8.87359 -9.01799,15.79934 -10.46875,29.22852 l 24.962891,6.81054 c 0.61448,-4.46479 1.78397,-7.16262 2.00976,-8.41992 0.47345,-2.63627 1.68521,-4.97253 3.34571,-6.98242 z" />
    <path
       id="path43315-5-16"
       style="display:inline;fill:#912318;fill-opacity:1;stroke:none;stroke-width:0.979078px;stroke-linecap:butt;stroke-linejoin:miter;stroke-opacity:1"
       d="m 107.41542,304.9523 c -2.46278,0.006 -5.28104,0.27752 -8.18555,0.69836 l 3.40429,27.06527 c 5.55143,-1.13843 11.83109,-0.25438 17.38282,3.38878 l 15.97461,-21.67693 c -6.75207,-5.34462 -13.39809,-7.90133 -24.21875,-9.23958 -1.28595,-0.15903 -2.7551,-0.23965 -4.35742,-0.2359 z" />
    <path
       id="path43315-5-4"
       style="display:inline;fill:#b2291c;fill-opacity:1;stroke:none;stroke-width:1px;stroke-linecap:butt;stroke-linejoin:miter;stroke-opacity:1"
       d="m 152.16474,335.05287 -21.45117,14.50391 c 2.09291,4.88981 3.6218,10.81577 4.14258,18.19336 0.0302,0.42817 0.14913,2.39545 0.18164,2.86328 l 22.70508,-5.23828 c -0.44994,-4.45741 -0.89351,-9.20393 -1.34766,-13.44531 -0.65731,-6.13897 -2.15072,-11.76955 -4.23047,-16.87696 z" />
    <path
       id="path43315-5-94"
       style="fill:#912318;fill-opacity:1;stroke:none;stroke-width:1px;stroke-linecap:butt;stroke-linejoin:miter;stroke-opacity:1"
       d="m 182.35514,730.70806 -25.3272,1.58134 c 0.59531,9.45589 1.20195,19.14865 1.7215,27.26628 l 25.02983,-1.56182 c -0.40297,-7.94442 -0.93743,-17.98447 -1.42413,-27.2858 z" />
    <path
       id="path43315-5-7"
       style="fill:#b2291c;fill-opacity:1;stroke:none;stroke-width:1px;stroke-linecap:butt;stroke-linejoin:miter;stroke-opacity:1"
       d="m 180.24684,681.60005 -25.71702,1.60529 c 0.57069,9.19595 1.15888,18.70623 1.69388,27.268 l 25.54375,-1.59356 c -0.45295,-8.42754 -1.01731,-18.19037 -1.52061,-27.27973 z" />
    <path
       id="path43315-5-9"
       style="fill:#b2291c;fill-opacity:1;stroke:none;stroke-width:1px;stroke-linecap:butt;stroke-linejoin:miter;stroke-opacity:1"
       d="m 177.46072,630.28983 -25.9791,1.6237 c 0.61158,9.92777 1.10105,17.68326 1.69373,27.26995 l 25.8512,-1.61621 c -0.51824,-9.12738 -1.00636,-17.74516 -1.56583,-27.27744 z" />
    <path
       id="path43315-5-5"
       style="fill:#e44637;fill-opacity:1;stroke:none;stroke-width:1px;stroke-linecap:butt;stroke-linejoin:miter;stroke-opacity:1"
       d="m 174.4695,582.30851 -26.02227,1.6242 c 0.58866,9.58547 1.09148,17.73197 1.67802,27.27067 l 26.00672,-1.62543 c -0.54585,-9.05627 -1.08519,-18.02635 -1.66247,-27.26944 z" />
    <path
       id="path43315-5-10"
       style="fill:#b2291c;fill-opacity:1;stroke:none;stroke-width:1px;stroke-linecap:butt;stroke-linejoin:miter;stroke-opacity:1"
       d="m 171.25801,533.78518 -25.82946,1.61401 c 0.56913,9.2662 1.09509,17.80655 1.67613,27.27052 l 26.00457,-1.62364 c -0.58532,-9.08984 -1.23979,-18.14251 -1.85124,-27.26089 z" />
    <path
       id="path43315-5-3"
       style="fill:#b2291c;fill-opacity:1;stroke:none;stroke-width:1px;stroke-linecap:butt;stroke-linejoin:miter;stroke-opacity:1"
       d="m 167.88103,484.72223 -25.47106,1.59149 c 0.52802,8.56874 1.12414,18.2587 1.67817,27.26872 l 25.6895,-1.60357 c -0.63581,-9.15274 -1.23795,-18.22388 -1.89661,-27.25664 z" />
    <path
       id="path43315-5-1"
       style="fill:#e44637;fill-opacity:1;stroke:none;stroke-width:1px;stroke-linecap:butt;stroke-linejoin:miter;stroke-opacity:1"
       d="m 163.85805,435.32941 -24.70714,1.5443 c 0.66716,10.69315 0.95913,14.90321 1.7234,27.26642 l 25.11061,-1.56717 c -0.70169,-9.20617 -1.4047,-18.33241 -2.12687,-27.24355 z" />
    <path
       id="path43315-5-6"
       style="fill:#912318;fill-opacity:1;stroke:none;stroke-width:1px;stroke-linecap:butt;stroke-linejoin:miter;stroke-opacity:1"
       d="m 159.53945,386.41009 -23.66157,1.47828 c 0.43101,6.55655 1.13336,17.7923 1.73319,27.2672 l 24.36255,-1.52263 c -0.80105,-9.35109 -1.61404,-18.42373 -2.43417,-27.22285 z" />
    <path
       style="fill:none;stroke:none;stroke-width:1px;stroke-linecap:butt;stroke-linejoin:miter;stroke-opacity:1"
       d="m 169.77764,511.97887 c 39.02518,32.29297 80.79872,-0.28789 66.74771,-4.58125 -14.05101,-4.29337 -15.61223,-13.2704 -14.44132,-30.83417 1.17092,-17.56376 -8.19642,-37.85967 -18.73468,-21.85713 -10.53826,16.00255 -35.46832,30.01591 -35.46832,30.01591 z"
       id="path176705" />
  </g>
  <g
     inkscape:groupmode="layer"
     id="layer12"
     inkscape:label="candycane2"
     sodipodi:insensitive="true">
    <path
       id="rect956-0"
       style="fill:#ffffff;fill-opacity:1"
       d="m 750.77539,355.38477 c -1.60232,-0.004 -3.07147,0.0762 -4.35742,0.23632 -12.92232,1.60923 -19.89123,4.90954 -28.19727,12.73243 -8.306,7.82289 -14.41758,19.36388 -15.98632,33.50586 C 689.49859,516.66677 678.49375,713.93515 674.0293,800 h 25.01953 c 6.77297,-101.51622 21.64987,-340.82687 24.72461,-382.87109 3.24077,-44.31446 42.73281,-39.2367 46.1582,-20.82618 0.48782,2.62199 5.49864,11.36451 -0.5918,31.00586 -4.7217,15.22716 12.85092,18.64907 19.24024,12.03711 6.3893,-6.61196 9.19531,-25.61132 9.19531,-25.61132 -0.33153,-24.51193 -3.65244,-32.58578 -11.33984,-44.08985 -6.72648,-10.06606 -24.4439,-14.23328 -35.66016,-14.25976 z" />
    <path
       id="path43315-5-0-3"
       style="display:inline;fill:#b2291c;fill-opacity:1;stroke:none;stroke-width:1.02765px;stroke-linecap:butt;stroke-linejoin:miter;stroke-opacity:1"
       d="m 797.77492,413.73529 c -0.74638,4.61362 -3.49456,19.58057 -8.98894,25.63678 -0.30537,0.3366 -0.65731,0.62557 -1.00954,0.91378 -3.9e-4,3.3e-4 -0.002,-3.1e-4 -0.002,0 -1.50522,1.17333 -3.53724,1.97604 -5.80193,2.3852 -6.5e-4,9e-5 -0.001,-9e-5 -0.002,0 -1.01482,0.13408 -2.05028,0.1523 -3.08011,0.0549 -1.05005,-0.0975 -2.08909,-0.31411 -3.08209,-0.65532 -0.0841,-0.0293 -0.168,-0.0586 -0.2514,-0.0895 -0.39021,-0.14347 -0.77388,-0.30613 -1.14613,-0.48844 -0.29797,-0.1474 -0.58918,-0.30573 -0.87296,-0.47825 -0.2375,-0.14314 -0.46873,-0.29714 -0.69481,-0.45791 -0.34413,-0.24678 -0.67816,-0.50775 -0.99174,-0.79575 -0.10677,-0.0973 -0.21384,-0.19497 -0.31672,-0.29713 -0.38268,-0.38274 -0.73882,-0.79598 -1.06101,-1.2455 -0.0536,-0.0743 -0.10463,-0.15178 -0.15638,-0.22794 -0.33284,-0.49283 -0.63281,-1.01944 -0.88286,-1.58945 -0.0219,-0.0496 -0.0401,-0.10243 -0.0613,-0.15264 -0.24823,-0.5911 -0.45244,-1.21976 -0.59979,-1.8927 -0.008,-0.035 -0.0163,-0.0686 -0.0237,-0.10378 -0.14495,-0.69256 -0.23033,-1.4312 -0.25535,-2.21018 -0.002,-0.0603 -0.003,-0.12026 -0.004,-0.18113 -0.0151,-0.7845 0.0311,-1.61139 0.15044,-2.48288 0.007,-0.055 0.0176,-0.11152 0.0257,-0.16689 0.13166,-0.89996 0.33066,-1.84047 0.61958,-2.83291 0.12477,-0.4286 0.22196,-0.82451 0.29297,-1.19057 8.2e-4,-0.004 10e-4,-0.008 0.002,-0.0122 0.92408,-3.3471 1.53301,-6.3385 1.95377,-9.09915 z" />
    <path
       id="path43315-5-76-4"
       style="display:inline;fill:#e44637;fill-opacity:1;stroke:none;stroke-width:1px;stroke-linecap:butt;stroke-linejoin:miter;stroke-opacity:1"
       d="m 783.11121,366.24284 c 1.27816,1.1973 2.40898,2.49705 3.32422,3.91602 5.7235,8.87359 9.01799,15.79934 10.46875,29.22852 l -24.96289,6.81054 c -0.61448,-4.46479 -1.78397,-7.16262 -2.00976,-8.41992 -0.47345,-2.63627 -1.68521,-4.97253 -3.34571,-6.98242 z" />
    <path
       id="path43315-5-16-1"
       style="display:inline;fill:#912318;fill-opacity:1;stroke:none;stroke-width:0.979078px;stroke-linecap:butt;stroke-linejoin:miter;stroke-opacity:1"
       d="m 750.77527,355.38346 c 2.46278,0.006 5.28104,0.27752 8.18555,0.69836 l -3.40429,27.06527 c -5.55143,-1.13843 -11.83109,-0.25438 -17.38282,3.38878 L 722.1991,364.85894 c 6.75207,-5.34462 13.39809,-7.90133 24.21875,-9.23958 1.28595,-0.15903 2.7551,-0.23965 4.35742,-0.2359 z" />
    <path
       id="path43315-5-4-7"
       style="display:inline;fill:#b2291c;fill-opacity:1;stroke:none;stroke-width:1px;stroke-linecap:butt;stroke-linejoin:miter;stroke-opacity:1"
       d="m 706.02595,385.48403 21.45117,14.50391 c -2.09291,4.88981 -3.6218,10.81577 -4.14258,18.19336 -0.0302,0.42817 -0.14913,2.39545 -0.18164,2.86328 l -22.70508,-5.23828 c 0.44994,-4.45741 0.89351,-9.20393 1.34766,-13.44531 0.65731,-6.13897 2.15072,-11.76955 4.23047,-16.87696 z" />
    <path
       id="path43315-5-7-5"
       style="display:inline;fill:#b2291c;fill-opacity:1;stroke:none;stroke-width:1px;stroke-linecap:butt;stroke-linejoin:miter;stroke-opacity:1"
       d="m 677.94385,732.03121 25.71702,1.60529 c -0.57069,9.19595 -1.15888,18.70623 -1.69388,27.268 l -25.54375,-1.59356 c 0.45295,-8.42754 1.01731,-18.19037 1.52061,-27.27973 z" />
    <path
       id="path43315-5-9-9"
       style="display:inline;fill:#b2291c;fill-opacity:1;stroke:none;stroke-width:1px;stroke-linecap:butt;stroke-linejoin:miter;stroke-opacity:1"
       d="m 680.72997,680.72099 25.9791,1.6237 c -0.61158,9.92777 -1.10105,17.68326 -1.69373,27.26995 l -25.8512,-1.61621 c 0.51824,-9.12738 1.00636,-17.74516 1.56583,-27.27744 z" />
    <path
       id="path43315-5-5-4"
       style="display:inline;fill:#e44637;fill-opacity:1;stroke:none;stroke-width:1px;stroke-linecap:butt;stroke-linejoin:miter;stroke-opacity:1"
       d="m 683.72119,632.73967 26.02227,1.6242 c -0.58866,9.58547 -1.09148,17.73197 -1.67802,27.27067 l -26.00672,-1.62543 c 0.54585,-9.05627 1.08519,-18.02635 1.66247,-27.26944 z" />
    <path
       id="path43315-5-10-3"
       style="display:inline;fill:#b2291c;fill-opacity:1;stroke:none;stroke-width:1px;stroke-linecap:butt;stroke-linejoin:miter;stroke-opacity:1"
       d="m 686.93268,584.21634 25.82946,1.61401 c -0.56913,9.2662 -1.09509,17.80655 -1.67613,27.27052 l -26.00457,-1.62364 c 0.58532,-9.08984 1.23979,-18.14251 1.85124,-27.26089 z" />
    <path
       id="path43315-5-3-4"
       style="display:inline;fill:#b2291c;fill-opacity:1;stroke:none;stroke-width:1px;stroke-linecap:butt;stroke-linejoin:miter;stroke-opacity:1"
       d="m 690.30966,535.15339 25.47106,1.59149 c -0.52802,8.56874 -1.12414,18.2587 -1.67817,27.26872 l -25.6895,-1.60357 c 0.63581,-9.15274 1.23795,-18.22388 1.89661,-27.25664 z" />
    <path
       id="path43315-5-1-5"
       style="display:inline;fill:#e44637;fill-opacity:1;stroke:none;stroke-width:1px;stroke-linecap:butt;stroke-linejoin:miter;stroke-opacity:1"
       d="m 694.33264,485.76057 24.70714,1.5443 c -0.66716,10.69315 -0.95913,14.90321 -1.7234,27.26642 l -25.11061,-1.56717 c 0.70169,-9.20617 1.4047,-18.33241 2.12687,-27.24355 z" />
    <path
       id="path43315-5-6-6"
       style="display:inline;fill:#912318;fill-opacity:1;stroke:none;stroke-width:1px;stroke-linecap:butt;stroke-linejoin:miter;stroke-opacity:1"
       d="m 698.65124,436.84125 23.66157,1.47828 c -0.43101,6.55655 -1.13336,17.7923 -1.73319,27.2672 l -24.36255,-1.52263 c 0.80105,-9.35109 1.61404,-18.42373 2.43417,-27.22285 z" />
    <path
       style="display:inline;fill:none;stroke:none;stroke-width:1px;stroke-linecap:butt;stroke-linejoin:miter;stroke-opacity:1"
       d="m 688.41305,562.41003 c -39.02518,32.29297 -80.79872,-0.28789 -66.74771,-4.58125 14.05101,-4.29337 15.61223,-13.2704 14.44132,-30.83417 -1.17092,-17.56376 8.19642,-37.85967 18.73468,-21.85713 10.53826,16.00255 35.46832,30.01591 35.46832,30.01591 z"
       id="path176705-1" />
  </g>
  <g
     inkscape:groupmode="layer"
     id="layer2"
     inkscape:label="mountain"
     style="display:inline"
     sodipodi:insensitive="true">
    <path
       id="rect956-4"
       style="fill:#f2f3f5;fill-opacity:1"
       d="M 499.45898,552.90039 C 341.21561,553.59268 233.38045,628.32007 165.86133,700.69922 144.72882,728.10856 121.41323,764.47944 103.85742,800 H 800 V 639.87109 c -20.19641,-13.42086 -43.94021,-27.42783 -71.94336,-42.11328 -85.66453,-32.022 -161.66758,-45.15023 -228.59766,-44.85742 z" />
    <path
       id="rect956-4-1"
       style="display:inline;fill:#f2f3f5;fill-opacity:1"
       d="M 499.45898,552.90039 C 341.21561,553.59268 233.38045,628.32007 165.86133,700.69922 144.72882,728.10856 121.41323,764.47944 103.85742,800 H 799.99997 V 639.87109 c -20.1964,-13.42086 -43.9402,-27.42783 -71.9433,-42.11328 -85.66456,-32.022 -161.66761,-45.15023 -228.59769,-44.85742 z" />
    <path
       id="rect956-4-1-2"
       style="display:inline;fill:#ffffff;fill-opacity:1"
       d="m 499.45898,552.90039 c -112.01872,0.49007 -198.66717,38.12892 -263.74609,85.72266 52.18532,34.35384 298.04649,177.33326 477.60156,-46.04688 -79.6234,-28.10565 -150.81957,-39.95155 -213.85547,-39.67578 z" />
  </g>
  <g
     inkscape:groupmode="layer"
     id="layer8"
     inkscape:label="penguin 1"
     style="display:inline"
     sodipodi:insensitive="true">
    <ellipse
       style="display:inline;fill:#ffffff;fill-opacity:1;stroke:none;stroke-width:0.663134;stroke-linejoin:round;stroke-miterlimit:4;stroke-dasharray:none;stroke-opacity:1"
       id="path3118-9"
       cx="-599.92517"
       cy="411.84222"
       rx="45.912056"
       ry="31.045614"
       transform="matrix(-0.99986048,-0.01670399,-0.01670399,0.99986048,0,0)" />
    <path
       style="display:inline;fill:none;stroke:#29303a;stroke-width:1.66562;stroke-linecap:butt;stroke-linejoin:miter;stroke-miterlimit:4;stroke-dasharray:none;stroke-opacity:1"
       d="m 547.62403,419.14049 c 0,0 -1.92116,9.37498 5.21695,18.6894"
       id="path3116-5" />
    <path
       style="display:inline;fill:#29303a;fill-opacity:1;stroke:none;stroke-width:0.689987px;stroke-linecap:butt;stroke-linejoin:miter;stroke-opacity:1"
       d="m 618.59654,374.99779 c 0,0 -44.91095,-13.31691 -56.86767,3.46291 -11.95668,16.77984 -12.86142,27.25213 -12.86142,27.25213 0,0 -4.36775,13.91021 -12.58616,10.7765 -8.2184,-3.13369 11.53131,8.68243 11.53131,8.68243 0,0 8.9247,-11.70515 22.48681,-20.69834 13.56211,-8.99319 31.76161,-15.2744 50.31122,-4.42644 37.09924,21.69589 -2.01409,-25.04919 -2.01409,-25.04919 z"
       id="path3110-5"
       sodipodi:nodetypes="cscscssc" />
    <path
       style="display:inline;fill:none;stroke:#29303a;stroke-width:3.40303;stroke-linecap:butt;stroke-linejoin:miter;stroke-miterlimit:4;stroke-dasharray:none;stroke-opacity:1"
       d="m 585.49188,412.34506 c 0,0 -2.59352,4.71505 -6.45564,3.65281 -3.86212,-1.06224 -4.77024,-2.61239 -5.1217,-3.07875"
       id="path3126-1" />
    <ellipse
       style="display:inline;fill:#29303a;fill-opacity:1;stroke:none;stroke-width:3.23579;stroke-linejoin:round;stroke-miterlimit:4;stroke-dasharray:none;stroke-opacity:1"
       id="path3128-32"
       cx="-552.60754"
       cy="565.48798"
       rx="14.609066"
       ry="6.0334454"
       transform="matrix(-0.99986048,-0.01670399,-0.01670399,0.99986048,0,0)" />
    <ellipse
       style="display:inline;fill:#29303a;fill-opacity:1;stroke:none;stroke-width:3.33536;stroke-linejoin:round;stroke-miterlimit:4;stroke-dasharray:none;stroke-opacity:1"
       id="path3128-3-4"
       cx="-539.61127"
       cy="554.54828"
       rx="14.609066"
       ry="5.6982532"
       transform="matrix(-0.99986048,-0.01670399,-0.01670399,0.99986048,0,0)" />
    <path
       style="display:inline;fill:#d6c6b7;fill-opacity:1;stroke:none;stroke-width:2.44052;stroke-linecap:butt;stroke-linejoin:miter;stroke-miterlimit:4;stroke-dasharray:none;stroke-opacity:1"
       d="m 595.93692,370.18724 10.05056,5.14874 5.18722,-1.50717 1.30245,3.68397 4.07451,0.42584 -3.14315,5.00895 2.76906,2.25774 -2.20645,3.37085 4.20525,4.76808 -1.80888,6.1633 -4.97176,2.35551 -0.4838,7.87037 -6.33363,-0.48095 0.24256,6.56941 -4.22034,-0.44568 -0.0533,3.18804 -5.48441,1.40903 -0.80782,6.1767 -7.56013,-0.87662 -3.5911,4.06684 -8.24263,-2.20114 -4.83952,4.9839 -5.60729,-1.78192 -4.79563,2.35844 -2.04375,-4.19848 -1.13561,4.70811 -6.25906,-4.9442 0.95074,6.35619 -4.00725,-2.65559 -3.99747,3.0846 -1.80343,6.72285 0.11658,3.56601 -5.50322,2.53422 -0.21371,2.24741 -5.14474,2.16505 -1.71027,7.47471 -2.99074,-0.23756 0.81476,3.95286 -4.97491,2.54305 -0.30141,7.49826 -3.91826,2.56067 0.74897,7.89101 -4.07558,1.43257 2.40917,3.41668 -2.71057,4.08156 2.21107,4.7265 -4.31744,5.36777 3.29591,3.05636 -2.53756,4.27201 3.94084,6.63129 -1.67898,5.59935 3.14182,1.74077 -1.48724,4.66474 3.82115,3.2527 -1.50599,5.78988 5.22374,3.65138 -1.32362,5.41777 3.71394,-0.87591 -0.95578,4.48602 3.45953,3.80948 -1.29855,3.91748 5.41864,2.52914 -2.58457,7.08492 7.24552,-1.37957 0.96266,5.64355 7.39027,0.49862 1.36188,2.83646 11.78046,1.32234 5.06016,2.89826 5.82725,-0.84055 6.45336,3.85949 2.5317,-3.69648 12.06649,5.06584 6.42449,-4.95741 10.70815,2.24226 1.47779,-4.10207 10.86861,3.18285 3.39304,-2.757 4.75493,0.0794 -0.97833,-4.70591 3.80548,4.1904 v 0 l 29.93748,1.43255 -17.77417,-12.48429 5.7796,-8.53229 -3.06971,-6.05392 6.42137,-4.76987 -3.10103,-4.17863 3.58485,-3.69173 -2.32141,-8.6676 6.13805,-8.90138 -3.84365,-11.01598 v 0 0 l 4.86767,-8.1003 -2.71751,-6.04809 0.79846,-5.61414 -2.78017,-2.29741 0.18171,-10.87676 -3.51592,-0.43389 0.18798,-11.25179 -4.22031,-0.44569 -0.61672,-5.2626 -4.92476,-0.45744 1.15691,-5.98334 -4.21409,-0.82069 -0.94387,-6.76876 -6.6921,-0.1118 7.13205,-5.13315 -1.33994,-4.1492 3.55977,-2.19153 -2.40914,-3.41674 6.44018,-5.89502 -2.74882,-4.17276 4.68533,-6.29951 -3.81798,-3.44029 2.89291,-4.45364 -3.78666,-5.31557 1.93027,-10.0972 -3.84306,-1.94004 0.42115,-4.11977 -3.8368,-2.31508 0.0815,-4.87578 -4.91223,-1.20756 0.4462,-5.62001 -4.91849,-0.83251 -2.36729,-3.50547 -4.48049,3.27427 -5.16597,-6.20017 -4.92276,3.43676 -6.49968,-3.26046 z"
       id="path3097-6"
       sodipodi:nodetypes="cccccccccccccccccccccccccccccccccccccccccccccccccccccccccccccccccccccccccccccccccccccccccccccccccccccccccccccccccccccccccccccccccccc" />
    <path
       id="path3215"
       style="display:inline;fill:#ffffff;fill-opacity:1;stroke:none;stroke-width:1.59613;stroke-linejoin:round;stroke-miterlimit:4;stroke-dasharray:none;stroke-opacity:1"
       d="m 531.55603,451.87433 -0.97875,0.41175 -1.70962,7.47379 -2.9914,-0.23742 0.81542,3.95292 -4.97494,2.54396 -0.30207,7.49733 -3.91829,2.56161 0.74966,7.88981 -4.07626,1.43291 2.40914,3.41717 -2.70991,4.0815 2.21045,4.72607 -3.45397,4.29374 a 15.07061,52.017912 0.95711277 0 0 -0.0101,0.60607 15.07061,52.017912 0.95711277 0 0 -0.0168,1.24413 l 2.46003,2.27997 -2.40899,4.05594 a 15.07061,52.017912 0.95711277 0 0 0.011,0.45221 l 3.80055,6.3959 -1.6783,5.59839 3.14177,1.74097 -1.48721,4.6656 3.82115,3.25199 -1.506,5.79006 5.22376,3.65165 -1.32429,5.4182 3.71464,-0.87657 -0.95641,4.48569 3.36161,3.70298 A 15.07061,52.017912 0.95711277 0 0 542.75197,503.02901 15.07061,52.017912 0.95711277 0 0 531.556,451.87432 Z" />
    <path
       style="display:inline;fill:none;stroke:none;stroke-width:0.680609px;stroke-linecap:butt;stroke-linejoin:miter;stroke-opacity:1"
       d="m 571.68502,376.00578 c 0,0 8.85502,-6.17288 10.42695,-12.95366 1.57193,-6.78076 0.80976,9.73786 0.80976,9.73786 z"
       id="path3239" />
    <path
       style="display:inline;fill:#e7dcd4;fill-opacity:1;stroke:none;stroke-width:0.680609px;stroke-linecap:butt;stroke-linejoin:miter;stroke-opacity:1"
       d="m 588.31204,525.12814 c 0,0 -26.83652,-39.98613 -12.22839,-50.0563 14.60813,-10.07016 22.82274,-7.87008 28.94636,-3.98591 6.12365,3.8842 21.72189,16.86563 11.89127,29.07845 -9.83064,12.21283 -28.60924,24.96376 -28.60924,24.96376 z"
       id="path3255" />
    <ellipse
       style="display:inline;fill:#b24266;fill-opacity:1;stroke:none;stroke-width:6;stroke-opacity:1"
       id="path17193"
       cx="616.59424"
       cy="411.76599"
       rx="20.206894"
       ry="19.409122" />
    <path
       style="display:inline;fill:#b24266;fill-opacity:1;stroke:none;stroke-width:1px;stroke-linecap:butt;stroke-linejoin:miter;stroke-opacity:1"
       d="m 624.8473,364.67002 c 8.72739,27.41388 2.92468,42.21366 2.92468,42.21366 l -10.3732,-4.88207 v 0 c 0,0 4.7998,-19.29109 -3.57788,-37.8426 z"
       id="path17250"
       sodipodi:nodetypes="cccccc" />
  </g>
  <g
     inkscape:groupmode="layer"
     id="layer9"
     inkscape:label="penguin 2"
     style="display:inline"
     sodipodi:insensitive="true">
    <ellipse
       style="display:inline;fill:#ffffff;fill-opacity:1;stroke:none;stroke-width:0.663134;stroke-linejoin:round;stroke-miterlimit:4;stroke-dasharray:none;stroke-opacity:1"
       id="path3118"
       cx="411.85559"
       cy="424.69394"
       rx="45.912056"
       ry="31.045614"
       transform="rotate(-0.54212231)" />
    <path
       style="display:inline;fill:none;stroke:#29303a;stroke-width:1.66545;stroke-linecap:butt;stroke-linejoin:miter;stroke-miterlimit:4;stroke-dasharray:none;stroke-opacity:1"
       d="m 461.21158,418.44106 c 0,0 1.85322,9.38865 -5.35218,18.65114"
       id="path3116" />
    <path
       style="display:inline;fill:#29303a;fill-opacity:1;stroke:none;stroke-width:0.689987px;stroke-linecap:butt;stroke-linejoin:miter;stroke-opacity:1"
       d="m 390.56067,373.78549 c 0,0 45.0062,-12.99129 56.84107,3.87471 11.83484,16.86598 12.66371,27.34455 12.66371,27.34455 0,0 4.2669,13.94148 12.50779,10.86739 8.24087,-3.07409 -11.59391,8.5987 -11.59391,8.5987 0,0 -8.83967,-11.7695 -22.33631,-20.8607 -13.49661,-9.09117 -31.65013,-15.50401 -50.27784,-4.79071 -37.25537,21.42662 2.19549,-25.03394 2.19549,-25.03394 z"
       id="path3110"
       sodipodi:nodetypes="cscscssc" />
    <path
       style="display:inline;fill:none;stroke:#29303a;stroke-width:3.40303;stroke-linecap:butt;stroke-linejoin:miter;stroke-miterlimit:4;stroke-dasharray:none;stroke-opacity:1"
       d="m 423.39395,411.37154 c 0,0 2.55929,4.73373 6.42902,3.69947 3.86971,-1.03423 4.78904,-2.57776 5.14388,-3.04156"
       id="path3126" />
    <ellipse
       style="display:inline;fill:#29303a;fill-opacity:1;stroke:none;stroke-width:3.23579;stroke-linejoin:round;stroke-miterlimit:4;stroke-dasharray:none;stroke-opacity:1"
       id="path3128"
       cx="472.23611"
       cy="581.77692"
       rx="14.609066"
       ry="6.0334454"
       transform="rotate(-0.54212231)" />
    <ellipse
       style="display:inline;fill:#29303a;fill-opacity:1;stroke:none;stroke-width:3.33536;stroke-linejoin:round;stroke-miterlimit:4;stroke-dasharray:none;stroke-opacity:1"
       id="path3128-3"
       cx="479.6908"
       cy="567.39948"
       rx="14.609066"
       ry="5.6982532"
       transform="rotate(-0.54212231)" />
    <path
       style="display:inline;fill:#d6c6b7;fill-opacity:1;stroke:none;stroke-width:2.64202;stroke-linecap:butt;stroke-linejoin:miter;stroke-miterlimit:4;stroke-dasharray:none;stroke-opacity:1"
       d="m 413.01595,369.31206 -11.5169,5.22364 -5.90509,-1.58078 -1.52066,3.775 -4.65345,0.41143 3.53986,5.16396 -3.1809,2.301 2.48631,3.47575 -4.84319,4.86989 2.00652,6.34095 5.6513,2.45062 0.47847,8.08564 7.23188,-0.45369 -0.33819,6.74501 4.82004,-0.43085 0.031,3.27432 6.24514,1.48188 0.86408,6.34837 8.63513,-0.85218 4.05982,4.19928 9.42631,-2.20805 5.47584,5.14903 6.41517,-1.79431 5.45033,2.45253 2.37137,-4.29869 1.25184,4.84228 7.18849,-5.03771 -1.14432,6.52149 4.59754,-2.70172 4.53273,3.19319 1.99506,6.91553 -0.16636,3.66144 6.25608,2.63753 0.22287,2.30934 5.85047,2.25612 1.88178,7.68711 3.41492,-0.22492 -0.96662,4.05425 5.65311,2.64321 0.27387,7.70234 4.44723,2.65464 -0.92841,8.09894 4.63727,1.4971 -2.781,3.49354 3.05489,4.20878 -2.56727,4.83986 4.87651,5.53996 -3.78955,3.11781 2.85572,4.40331 -4.55892,6.78496 1.86358,5.76103 -3.60137,1.76768 1.65345,4.79993 -4.39072,3.31614 1.6644,5.95554 -5.99499,3.71658 1.45977,5.57227 -4.22984,-0.92311 1.04869,4.61303 -3.98328,3.89015 1.44518,4.0314 -6.20689,2.56283 2.88307,7.29239 -8.25504,-1.46286 -1.15123,5.78957 -8.43778,0.46511 -1.58057,2.90429 -13.45515,1.28306 -5.80125,2.94423 -6.64167,-0.90027 -7.40005,3.92246 -2.8544,-3.81216 -13.81654,5.12567 -7.28469,-5.13191 -12.24014,2.23468 -1.64798,-4.2221 -12.432,3.19956 -3.84608,-2.85292 -5.42662,0.0513 1.16037,-4.82655 -4.38162,4.27918 v 0 l -34.17536,1.28081 20.39895,-12.70786 -6.5154,-8.799 3.55944,-6.19761 -7.28291,-4.9393 3.57767,-4.27155 -4.05619,-3.81407 2.72997,-8.8865 -6.921,-9.18041 4.48903,-11.2885 v 0 0 l -5.47887,-8.34966 3.15747,-6.19383 -0.85862,-5.77055 3.1939,-2.34169 -0.1057,-11.17114 4.01609,-0.42324 -0.10935,-11.55636 4.82002,-0.43083 0.75292,-5.40057 5.62398,-0.43848 -1.26424,-6.15198 4.81638,-0.81604 1.14033,-6.94521 7.63748,-0.0723 -8.0905,-5.3169 1.56781,-4.25252 -4.04161,-2.27323 2.78102,-3.49353 -7.29383,-6.09492 3.17569,-4.26778 -5.28762,-6.49912 4.3889,-3.50876 -3.25953,-4.59211 4.37068,-5.4348 -2.10829,-10.38169 4.40348,-1.96789 -0.44206,-4.23352 4.39984,-2.3531 -0.0474,-5.00776 5.61668,-1.20888 -0.45664,-5.77436 5.62031,-0.82368 2.7341,-3.58492 5.08208,3.39103 5.95293,-6.33447 5.58526,3.56072 7.44732,-3.30702 z"
       id="path3097"
       sodipodi:nodetypes="cccccccccccccccccccccccccccccccccccccccccccccccccccccccccccccccccccccccccccccccccccccccccccccccccccccccccccccccccccccccccccccccccccc" />
    <path
       id="path3215-2"
       style="display:inline;fill:#ffffff;fill-opacity:1;stroke:none;stroke-width:1.98553;stroke-linejoin:round;stroke-miterlimit:4;stroke-dasharray:none;stroke-opacity:1"
       d="m 490.38949,463.37106 a 52.017912,23.320826 89.457878 0 0 -22.82692,52.23698 52.017912,23.320826 89.457878 0 0 16.79006,49.4626 l 4.91677,-2.02993 -1.44598,-4.03159 3.98323,-3.89022 -1.04865,-4.61231 4.23081,0.92243 -1.46053,-5.5722 5.99486,-3.71648 -1.66355,-5.95581 4.39012,-3.31578 -1.65396,-4.79934 3.60183,-1.76758 -1.86379,-5.76115 4.55935,-6.78572 -2.85593,-4.40243 3.78978,-3.11869 -4.87672,-5.53987 2.56776,-4.83929 -3.05484,-4.20912 2.7799,-3.49332 -4.6364,-1.49686 0.92837,-8.09936 -4.44795,-2.6552 -0.27368,-7.70245 -5.65223,-2.64248 0.50506,-2.1185 a 52.017912,23.320826 89.457878 0 0 -1.27683,-0.0664 z" />
    <path
       style="display:inline;fill:#e7dcd4;fill-opacity:1;stroke:none;stroke-width:0.798306px;stroke-linecap:butt;stroke-linejoin:miter;stroke-opacity:1"
       d="m 392.71736,535.64669 c 0,0 52.69893,-24.17702 46.73409,-43.74478 -5.96482,-19.56778 -14.93069,-22.48817 -23.21595,-22.35819 -8.28529,0.12999 -31.59328,3.63514 -31.45886,22.39176 0.13458,18.75662 7.94072,43.71121 7.94072,43.71121 z"
       id="path3255-0" />
    <ellipse
       style="display:inline;fill:#b24266;fill-opacity:1;stroke:none;stroke-width:6;stroke-opacity:1"
       id="path17193-4"
       cx="-389.29431"
       cy="409.41714"
       rx="20.206894"
       ry="19.409122"
       transform="scale(-1,1)" />
    <path
       style="display:inline;fill:#b24266;fill-opacity:1;stroke:none;stroke-width:1.14756px;stroke-linecap:butt;stroke-linejoin:miter;stroke-opacity:1"
       d="m 381.04424,363.90194 c -11.53525,27.31378 0.52311,40.36672 0.52311,40.36672 l 10.21136,-4.60259 v 0 c 0,0 -10.18702,-18.17469 0.886,-36.65846 z"
       id="path17250-3"
       sodipodi:nodetypes="cccccc" />
  </g>
  <g
     inkscape:groupmode="layer"
     id="layer6"
     inkscape:label="sugardrop1"
     sodipodi:insensitive="true" />
  <g
     inkscape:groupmode="layer"
     id="layer3"
     inkscape:label="moon"
     sodipodi:insensitive="true">
    <circle
       style="fill:#e7eef2;fill-opacity:1;stroke-width:6"
       id="path2101"
       cx="426.67734"
       cy="173.87239"
       r="45" />
    <circle
       style="fill:#5a6d77;fill-opacity:1;stroke-width:6"
       id="path2101-6"
       cx="447.1004"
       cy="147.92952"
       r="45" />
  </g>
  <g
     inkscape:groupmode="layer"
     id="layer14"
     inkscape:label="snowflake1"
     sodipodi:insensitive="true">
    <path
       style="fill:none;stroke:#f0faff;stroke-width:4.42305;stroke-linecap:butt;stroke-linejoin:miter;stroke-miterlimit:4;stroke-dasharray:none;stroke-opacity:1"
       d="m 278.44519,98.807158 37.84194,-14.6485"
       id="path21803" />
    <path
       style="fill:none;stroke:#f0faff;stroke-width:4.42305;stroke-linecap:butt;stroke-linejoin:miter;stroke-miterlimit:4;stroke-dasharray:none;stroke-opacity:1"
       d="m 280.88136,79.655008 32.9696,23.655802"
       id="path21803-1" />
    <path
       style="fill:none;stroke:#f0faff;stroke-width:4.42305;stroke-linecap:butt;stroke-linejoin:miter;stroke-miterlimit:4;stroke-dasharray:none;stroke-opacity:1"
       d="m 301.3439,71.587548 -7.95548,39.790722"
       id="path21803-1-0" />
    <circle
       style="fill:#f0faff;fill-opacity:1;stroke:none;stroke-width:4.42305;stroke-miterlimit:4;stroke-dasharray:none;stroke-opacity:1"
       id="path21951"
       cx="301.63864"
       cy="71.391434"
       r="6.6345711" />
    <circle
       style="fill:#f0faff;fill-opacity:1;stroke:none;stroke-width:4.42305;stroke-miterlimit:4;stroke-dasharray:none;stroke-opacity:1"
       id="path21951-4"
       cx="317.25418"
       cy="83.344864"
       r="6.6345711" />
    <circle
       style="fill:#f0faff;fill-opacity:1;stroke:none;stroke-width:4.42305;stroke-miterlimit:4;stroke-dasharray:none;stroke-opacity:1"
       id="path21951-9"
       cx="313.99899"
       cy="103.02946"
       r="6.6345711" />
    <circle
       style="fill:#ffffff;fill-opacity:1;stroke:none;stroke-width:4.42305;stroke-miterlimit:4;stroke-dasharray:none;stroke-opacity:1"
       id="path21951-8"
       cx="294.56805"
       cy="110.7606"
       r="6.6345711" />
    <circle
       style="fill:#f0faff;fill-opacity:1;stroke:none;stroke-width:4.42305;stroke-miterlimit:4;stroke-dasharray:none;stroke-opacity:1"
       id="path21951-5"
       cx="278.0383"
       cy="98.807159"
       r="6.6345711" />
    <circle
       style="fill:#f0faff;fill-opacity:1;stroke:none;stroke-width:4.42305;stroke-miterlimit:4;stroke-dasharray:none;stroke-opacity:1"
       id="path21951-1"
       cx="281.29352"
       cy="78.868942"
       r="6.6345711" />
  </g>
  <g
     inkscape:groupmode="layer"
     id="layer15"
     inkscape:label="snowflake2"
     style="display:inline"
     sodipodi:insensitive="true">
    <path
       style="fill:none;stroke:#f0faff;stroke-width:3.40267;stroke-linecap:butt;stroke-linejoin:miter;stroke-miterlimit:4;stroke-dasharray:none;stroke-opacity:1"
       d="M 538.87803,105.85522 567.98997,94.586074"
       id="path21803-5" />
    <path
       style="fill:none;stroke:#f0faff;stroke-width:3.40267;stroke-linecap:butt;stroke-linejoin:miter;stroke-miterlimit:4;stroke-dasharray:none;stroke-opacity:1"
       d="m 540.75218,91.121404 25.36364,18.198486"
       id="path21803-1-09" />
    <path
       style="fill:none;stroke:#f0faff;stroke-width:3.40267;stroke-linecap:butt;stroke-linejoin:miter;stroke-miterlimit:4;stroke-dasharray:none;stroke-opacity:1"
       d="m 556.49409,84.915074 -6.12018,30.611146"
       id="path21803-1-0-4" />
    <circle
       style="fill:#f0faff;fill-opacity:1;stroke:none;stroke-width:3.40267;stroke-miterlimit:4;stroke-dasharray:none;stroke-opacity:1"
       id="path21951-2"
       cx="556.72076"
       cy="84.764198"
       r="5.1040001" />
    <circle
       style="fill:#f0faff;fill-opacity:1;stroke:none;stroke-width:3.40267;stroke-miterlimit:4;stroke-dasharray:none;stroke-opacity:1"
       id="path21951-4-2"
       cx="568.73389"
       cy="93.96003"
       r="5.1040001" />
    <circle
       style="fill:#f0faff;fill-opacity:1;stroke:none;stroke-width:3.40267;stroke-miterlimit:4;stroke-dasharray:none;stroke-opacity:1"
       id="path21951-9-2"
       cx="566.22961"
       cy="109.10346"
       r="5.1040001" />
    <circle
       style="fill:#f0faff;fill-opacity:1;stroke:none;stroke-width:3.40267;stroke-miterlimit:4;stroke-dasharray:none;stroke-opacity:1"
       id="path21951-8-0"
       cx="551.28137"
       cy="115.05106"
       r="5.1040001" />
    <circle
       style="fill:#f0faff;fill-opacity:1;stroke:none;stroke-width:3.40267;stroke-miterlimit:4;stroke-dasharray:none;stroke-opacity:1"
       id="path21951-5-6"
       cx="538.56494"
       cy="105.85523"
       r="5.1040001" />
    <circle
       style="fill:#f0faff;fill-opacity:1;stroke:none;stroke-width:3.40267;stroke-miterlimit:4;stroke-dasharray:none;stroke-opacity:1"
       id="path21951-1-9"
       cx="541.06921"
       cy="90.51667"
       r="5.1040001" />
  </g>
  <g
     inkscape:groupmode="layer"
     id="layer18"
     inkscape:label="snowflake3"
     style="display:inline"
     sodipodi:insensitive="true">
    <path
       style="fill:none;stroke:#f0faff;stroke-width:3.40267;stroke-linecap:butt;stroke-linejoin:miter;stroke-miterlimit:4;stroke-dasharray:none;stroke-opacity:1"
       d="m 281.08763,338.23706 29.11194,-11.26915"
       id="path21803-5-6" />
    <path
       style="fill:none;stroke:#f0faff;stroke-width:3.40267;stroke-linecap:butt;stroke-linejoin:miter;stroke-miterlimit:4;stroke-dasharray:none;stroke-opacity:1"
       d="m 282.96178,323.50324 25.36364,18.19849"
       id="path21803-1-09-0" />
    <path
       style="fill:none;stroke:#f0faff;stroke-width:3.40267;stroke-linecap:butt;stroke-linejoin:miter;stroke-miterlimit:4;stroke-dasharray:none;stroke-opacity:1"
       d="m 298.70369,317.29691 -6.12018,30.61115"
       id="path21803-1-0-4-8" />
    <circle
       style="fill:#f0faff;fill-opacity:1;stroke:none;stroke-width:3.40267;stroke-miterlimit:4;stroke-dasharray:none;stroke-opacity:1"
       id="path21951-2-3"
       cx="298.93039"
       cy="317.14603"
       r="5.1040001" />
    <circle
       style="fill:#f0faff;fill-opacity:1;stroke:none;stroke-width:3.40267;stroke-miterlimit:4;stroke-dasharray:none;stroke-opacity:1"
       id="path21951-4-2-9"
       cx="310.94351"
       cy="326.34186"
       r="5.1040001" />
    <circle
       style="fill:#f0faff;fill-opacity:1;stroke:none;stroke-width:3.40267;stroke-miterlimit:4;stroke-dasharray:none;stroke-opacity:1"
       id="path21951-9-2-0"
       cx="308.43924"
       cy="341.48529"
       r="5.1040001" />
    <circle
       style="fill:#f0faff;fill-opacity:1;stroke:none;stroke-width:3.40267;stroke-miterlimit:4;stroke-dasharray:none;stroke-opacity:1"
       id="path21951-8-0-6"
       cx="293.491"
       cy="347.43289"
       r="5.1040001" />
    <circle
       style="fill:#f0faff;fill-opacity:1;stroke:none;stroke-width:3.40267;stroke-miterlimit:4;stroke-dasharray:none;stroke-opacity:1"
       id="path21951-5-6-0"
       cx="280.77457"
       cy="338.23706"
       r="5.1040001" />
    <circle
       style="fill:#f0faff;fill-opacity:1;stroke:none;stroke-width:3.40267;stroke-miterlimit:4;stroke-dasharray:none;stroke-opacity:1"
       id="path21951-1-9-8"
       cx="283.27884"
       cy="322.8985"
       r="5.1040001" />
  </g>
  <g
     inkscape:groupmode="layer"
     id="layer1"
     inkscape:label="snow"
     style="display:inline">
    <path
       style="fill:#ffffff;fill-opacity:1;stroke:none;stroke-width:0.59276px;stroke-linecap:butt;stroke-linejoin:miter;stroke-opacity:1"
       d="m 559.82329,273.58195 c 0,0 -7.735,13.88258 -3.50709,12.49477 4.22792,-1.38779 9.85663,-18.02256 3.50709,-12.49477 z"
       id="path982" />
    <path
       style="fill:#ffffff;fill-opacity:1;stroke:none;stroke-width:0.59276px;stroke-linecap:butt;stroke-linejoin:miter;stroke-opacity:1"
       d="m 265.55899,183.21859 c 0,0 -9.46938,12.76271 -5.09724,11.9347 4.37214,-0.828 12.1098,-16.59273 5.09724,-11.9347 z"
       id="path982-2" />
    <path
       style="fill:#ffffff;fill-opacity:1;stroke:none;stroke-width:0.59276px;stroke-linecap:butt;stroke-linejoin:miter;stroke-opacity:1"
       d="m 246.28794,489.93099 c 0,0 -8.25786,13.57805 -3.9802,12.35221 4.27768,-1.22585 10.53557,-17.63428 3.9802,-12.35221 z"
       id="path982-24" />
    <path
       style="fill:#ffffff;fill-opacity:1;stroke:none;stroke-width:0.529412px;stroke-linecap:butt;stroke-linejoin:miter;stroke-opacity:1"
       d="m 664.13783,114.81097 c 0,0 -8.76667,9.93557 -4.09112,9.93557 4.67557,0 8.76668,-9.35112 4.09112,-9.93557 z"
       id="path1461" />
    <path
       style="fill:#ffffff;fill-opacity:1;stroke:none;stroke-width:0.529412px;stroke-linecap:butt;stroke-linejoin:miter;stroke-opacity:1"
       d="m 452.11194,459.79587 c 0,0 -8.76667,9.93557 -4.09112,9.93557 4.67557,0 8.76668,-9.35112 4.09112,-9.93557 z"
       id="path1461-2" />
    <path
       style="fill:#ffffff;fill-opacity:1;stroke:none;stroke-width:0.529412px;stroke-linecap:butt;stroke-linejoin:miter;stroke-opacity:1"
       d="m 282.10338,564.67128 c 0,0 -8.76667,9.93557 -4.09112,9.93557 4.67557,0 8.76668,-9.35112 4.09112,-9.93557 z"
       id="path1461-5" />
    <path
       style="fill:#ffffff;fill-opacity:1;stroke:none;stroke-width:0.529412px;stroke-linecap:butt;stroke-linejoin:miter;stroke-opacity:1"
       d="m 144.10942,655.19532 c 0,0 -8.76667,9.93557 -4.09112,9.93557 4.67557,0 8.76668,-9.35112 4.09112,-9.93557 z"
       id="path1461-0" />
    <path
       style="fill:#ffffff;fill-opacity:1;stroke:none;stroke-width:0.529412px;stroke-linecap:butt;stroke-linejoin:miter;stroke-opacity:1"
       d="m 749.07494,181.60005 c 0,0 -8.76667,9.93557 -4.09112,9.93557 4.67557,0 8.76668,-9.35112 4.09112,-9.93557 z"
       id="path1461-6" />
    <path
       style="fill:#ffffff;fill-opacity:1;stroke:none;stroke-width:0.529412px;stroke-linecap:butt;stroke-linejoin:miter;stroke-opacity:1"
       d="m 96.6395,171.66448 c 0,0 -8.76667,9.93557 -4.09112,9.93557 4.67557,0 8.76668,-9.35112 4.09112,-9.93557 z"
       id="path1461-4" />
    <path
       style="fill:#ffffff;fill-opacity:1;stroke:none;stroke-width:0.529412px;stroke-linecap:butt;stroke-linejoin:miter;stroke-opacity:1"
       d="m 215.86628,92.179962 c 0,0 -8.76667,9.935568 -4.09112,9.935568 4.67557,0 8.76668,-9.351118 4.09112,-9.935568 z"
       id="path1461-3" />
    <path
       style="fill:#ffffff;fill-opacity:1;stroke:none;stroke-width:1px;stroke-linecap:butt;stroke-linejoin:miter;stroke-opacity:1"
       d="m 460.09997,62.273003 c 0,0 -8.91378,7.731883 -4.60424,7.616894 4.30953,-0.114995 11.08035,-6.022233 4.60424,-7.616894 z"
       id="path1906" />
    <path
       style="fill:#ffffff;fill-opacity:1;stroke:none;stroke-width:1px;stroke-linecap:butt;stroke-linejoin:miter;stroke-opacity:1"
       d="m 48.00137,539.88379 c 0,0 -2.2079,11.59149 1.10396,8.83161 3.31185,-2.75988 4.96778,-11.59149 -1.10396,-8.83161 z"
       id="path1906-8" />
    <path
       style="fill:#ffffff;fill-opacity:1;stroke:none;stroke-width:1px;stroke-linecap:butt;stroke-linejoin:miter;stroke-opacity:1"
       d="m 17.09073,678.9817 c 0,0 -2.2079,11.59149 1.10396,8.83161 3.31185,-2.75988 4.96778,-11.59149 -1.10396,-8.83161 z"
       id="path1906-4" />
    <path
       style="fill:#ffffff;fill-opacity:1;stroke:none;stroke-width:1px;stroke-linecap:butt;stroke-linejoin:miter;stroke-opacity:1"
       d="m 611.01673,528.84427 c 0,0 -2.2079,11.59149 1.10396,8.83161 3.31185,-2.75988 4.96778,-11.59149 -1.10396,-8.83161 z"
       id="path1906-86" />
    <path
       style="fill:#ffffff;fill-opacity:1;stroke:none;stroke-width:1px;stroke-linecap:butt;stroke-linejoin:miter;stroke-opacity:1"
       d="m 581.21003,364.35547 c 0,0 -2.2079,11.59149 1.10396,8.83161 3.31185,-2.75988 4.96778,-11.59149 -1.10396,-8.83161 z"
       id="path1906-7" />
    <path
       style="fill:#ffffff;fill-opacity:1;stroke:none;stroke-width:1px;stroke-linecap:butt;stroke-linejoin:miter;stroke-opacity:1"
       d="m 778.81738,272.72749 c 0,0 -2.2079,11.59149 1.10396,8.83161 3.31185,-2.75988 4.96778,-11.59149 -1.10396,-8.83161 z"
       id="path1906-87" />
    <path
       style="fill:#ffffff;fill-opacity:1;stroke:none;stroke-width:1px;stroke-linecap:butt;stroke-linejoin:miter;stroke-opacity:1"
       d="m 144.04517,18.8186 c 0,0 -2.2079,11.591492 1.10396,8.831613 3.31185,-2.759879 4.96778,-11.591492 -1.10396,-8.831613 z"
       id="path1906-82" />
    <path
       style="fill:#ffffff;fill-opacity:1;stroke:none;stroke-width:1px;stroke-linecap:butt;stroke-linejoin:miter;stroke-opacity:1"
       d="m 752.32254,13.298841 c 0,0 -2.2079,11.591492 1.10396,8.831613 3.31185,-2.759879 4.96778,-11.591492 -1.10396,-8.831613 z"
       id="path1906-6" />
  </g>
</svg>
